<?xml version="1.0" standalone="no"?>
  <!DOCTYPE svg PUBLIC "-//W3C//DTD SVG 1.1//EN" "http://www.w3.org/Graphics/SVG/1.1/DTD/svg11.dtd" >
  <svg>
  <metadata>
  Created by font-carrier
  </metadata>
  <defs>
  <font id="Asap-Italic" horiz-adv-x="1311" vert-adv-y="1311" >
    <font-face
      
      font-family="Asap"
      
      font-weight="400"
      
      font-stretch="normal"
      
      units-per-em="1000"
      
      ascent="934"
      
      descent="-212"
      
    />
      <missing-glyph />

      

      
      <glyph glyph-name="uni41" unicode="&#x41;" d="M18-2Q-23-2-23 14Q-23 19-18 29L287 686Q294 702 328 702L357 702Q392 702 396 686L564 28Q565 24 565 18Q565-2 521-2L513-2Q478-2 474 14L432 178L138 178L64 14Q57-2 23-2L18-2M413 254L340 552Q334 575 334 610L332 610Q320 573 311 552L174 254L413 254Z"  horiz-adv-x="613" vert-adv-y="1000"  />

      
      <glyph glyph-name="unic1" unicode="&#xc1;" d="M18-2Q-23-2-23 14Q-23 19-18 29L287 686Q294 702 328 702L357 702Q392 702 396 686L564 28Q565 24 565 18Q565-2 521-2L513-2Q478-2 474 14L432 178L138 178L64 14Q57-2 23-2L18-2M413 254L340 552Q334 575 334 610L332 610Q320 573 311 552L174 254L413 254M326 762Q304 762 304 771Q304 778 317.50 800Q331 822 373 883Q383 897 398.50 903Q414 909 438 909Q485 909 485 897Q485 891 475 879.50Q465 868 420 821Q420 821 379 780Q370 771 356 766.50Q342 762 326 762Z"  horiz-adv-x="613" vert-adv-y="1000"  />

      
      <glyph glyph-name="uni0102" unicode="&#x0102;" d="M18-2Q-23-2-23 14Q-23 19-18 29L287 686Q294 702 328 702L357 702Q392 702 396 686L564 28Q565 24 565 18Q565-2 521-2L513-2Q478-2 474 14L432 178L138 178L64 14Q57-2 23-2L18-2M413 254L340 552Q334 575 334 610L332 610Q320 573 311 552L174 254L413 254M347 762Q292 762 252.50 789Q213 816 213 865Q213 879 216.50 885.50Q220 892 230 892Q238 892 241 889Q244 886 245.50 879.50Q247 873 250 867Q259 847 287 837.50Q315 828 354 828Q393 828 422.50 837.50Q452 847 465 867Q469 874 471.50 880.50Q474 887 477.50 889.50Q481 892 489 892Q503 892 503 880Q503 843 479 816Q455 789 419 775.50Q383 762 347 762Z"  horiz-adv-x="613" vert-adv-y="1000"  />

      
      <glyph glyph-name="uni1EAE" unicode="&#x1EAE;" d="M347 852Q325 852 325 861Q325 875 380 963Q388 975 404.50 982Q421 989 445 989Q477 989 477 977Q477 973 455.50 948Q434 923 385 870Q370 852 347 852M346 761Q291 761 251.50 786.50Q212 812 212 856Q212 870 215.50 876.50Q219 883 229 883Q237 883 239.50 880.50Q242 878 244 870.50Q246 863 249 858Q258 841 288 827.50Q318 814 353 814Q386 814 420 829Q454 844 464 858Q468 863 471 870.50Q474 878 477 880.50Q480 883 488 883Q502 883 502 871Q502 838 478 812.50Q454 787 417.50 774Q381 761 346 761M18-2Q-23-2-23 14Q-23 19-18 29L287 686Q294 702 328 702L357 702Q392 702 396 686L564 28Q565 24 565 18Q565-2 521-2L513-2Q478-2 474 14L432 178L138 178L64 14Q57-2 23-2L18-2M413 254L340 552Q334 575 334 610L332 610Q320 573 311 552L174 254L413 254Z"  horiz-adv-x="613" vert-adv-y="1000"  />

      
      <glyph glyph-name="uni1EB6" unicode="&#x1EB6;" d="M18-2Q-23-2-23 14Q-23 19-18 29L287 686Q294 702 328 702L357 702Q392 702 396 686L564 28Q565 24 565 18Q565-2 521-2L513-2Q478-2 474 14L432 178L138 178L64 14Q57-2 23-2L18-2M413 254L340 552Q334 575 334 610L332 610Q320 573 311 552L174 254L413 254M258-175Q237-175 228.50-169.50Q220-164 220-153L225-102Q228-80 271-80Q292-80 300.50-85.50Q309-91 309-102L304-153Q301-175 258-175M347 762Q292 762 252.50 789Q213 816 213 865Q213 879 216.50 885.50Q220 892 230 892Q238 892 241 889Q244 886 245.50 879.50Q247 873 250 867Q259 847 287 837.50Q315 828 354 828Q393 828 422.50 837.50Q452 847 465 867Q469 874 471.50 880.50Q474 887 477.50 889.50Q481 892 489 892Q503 892 503 880Q503 843 479 816Q455 789 419 775.50Q383 762 347 762Z"  horiz-adv-x="613" vert-adv-y="1000"  />

      
      <glyph glyph-name="uni1EB0" unicode="&#x1EB0;" d="M381 852Q356 852 345 870Q305 932 294 951.50Q283 971 282 980Q282 987 290 989.50Q298 992 319 992Q357 992 367 966Q404 876 404 861Q404 852 381 852M346 761Q291 761 251.50 786.50Q212 812 212 856Q212 870 215.50 876.50Q219 883 229 883Q237 883 239.50 880.50Q242 878 244 870.50Q246 863 249 858Q258 841 288 827.50Q318 814 353 814Q386 814 420 829Q454 844 464 858Q468 863 471 870.50Q474 878 477 880.50Q480 883 488 883Q502 883 502 871Q502 838 478 812.50Q454 787 417.50 774Q381 761 346 761M18-2Q-23-2-23 14Q-23 19-18 29L287 686Q294 702 328 702L357 702Q392 702 396 686L564 28Q565 24 565 18Q565-2 521-2L513-2Q478-2 474 14L432 178L138 178L64 14Q57-2 23-2L18-2M413 254L340 552Q334 575 334 610L332 610Q320 573 311 552L174 254L413 254Z"  horiz-adv-x="613" vert-adv-y="1000"  />

      
      <glyph glyph-name="uni1EB2" unicode="&#x1EB2;" d="M360 853Q345 853 335.50 859.50Q326 866 326 873Q326 878 331.50 882.50Q337 887 353 895Q388 913 388 932Q388 945 379 952Q370 959 354 959Q332 959 320.50 952.50Q309 946 306 946Q300 946 293 958.50Q286 971 286 979Q286 989 313 998Q340 1007 367 1007Q398 1007 422 990.50Q446 974 446 939Q446 919 434.50 904.50Q423 890 404 875Q394 867 379.50 860Q365 853 360 853M346 761Q291 761 251.50 786.50Q212 812 212 856Q212 870 215.50 876.50Q219 883 229 883Q237 883 239.50 880.50Q242 878 244 870.50Q246 863 249 858Q258 841 288 827.50Q318 814 353 814Q386 814 420 829Q454 844 464 858Q468 863 471 870.50Q474 878 477 880.50Q480 883 488 883Q502 883 502 871Q502 838 478 812.50Q454 787 417.50 774Q381 761 346 761M18-2Q-23-2-23 14Q-23 19-18 29L287 686Q294 702 328 702L357 702Q392 702 396 686L564 28Q565 24 565 18Q565-2 521-2L513-2Q478-2 474 14L432 178L138 178L64 14Q57-2 23-2L18-2M413 254L340 552Q334 575 334 610L332 610Q320 573 311 552L174 254L413 254Z"  horiz-adv-x="613" vert-adv-y="1000"  />

      
      <glyph glyph-name="uni1EB4" unicode="&#x1EB4;" d="M219 940Q214 948 214 957Q214 967 222 973Q273 1014 319 1014Q350 1014 368 1005.50Q386 997 388 996Q416 983 428 983Q442 983 454 988.50Q466 994 480 1005Q491 1012 497 1012Q507 1012 514 1003L517 999Q523 990 523 983Q523 973 513 963Q465 919 417 919Q393 919 378 923Q363 927 348 935Q345 937 331.50 943.50Q318 950 308 950Q297 950 288 946.50Q279 943 271 938Q263 933 259 931Q249 925 240 925Q228 925 221 937L219 940M346 761Q291 761 251.50 786.50Q212 812 212 856Q212 870 215.50 876.50Q219 883 229 883Q237 883 239.50 880.50Q242 878 244 870.50Q246 863 249 858Q258 841 288 827.50Q318 814 353 814Q386 814 420 829Q454 844 464 858Q468 863 471 870.50Q474 878 477 880.50Q480 883 488 883Q502 883 502 871Q502 838 478 812.50Q454 787 417.50 774Q381 761 346 761M18-2Q-23-2-23 14Q-23 19-18 29L287 686Q294 702 328 702L357 702Q392 702 396 686L564 28Q565 24 565 18Q565-2 521-2L513-2Q478-2 474 14L432 178L138 178L64 14Q57-2 23-2L18-2M413 254L340 552Q334 575 334 610L332 610Q320 573 311 552L174 254L413 254Z"  horiz-adv-x="613" vert-adv-y="1000"  />

      
      <glyph glyph-name="unic2" unicode="&#xc2;" d="M18-2Q-23-2-23 14Q-23 19-18 29L287 686Q294 702 328 702L357 702Q392 702 396 686L564 28Q565 24 565 18Q565-2 521-2L513-2Q478-2 474 14L432 178L138 178L64 14Q57-2 23-2L18-2M413 254L340 552Q334 575 334 610L332 610Q320 573 311 552L174 254L413 254M242 753Q221 753 221 765Q221 774 228 785L294 873Q310 895 342 895L367 895Q399 895 411 873L458 785Q463 778 463 768Q461 753 437 753L435 753Q416 753 403 766L348 840L279 766Q263 753 244 753L242 753Z"  horiz-adv-x="613" vert-adv-y="1000"  />

      
      <glyph glyph-name="uni1EA4" unicode="&#x1EA4;" d="M475 824Q453 824 453 833Q453 847 508 935Q516 947 532.50 954Q549 961 573 961Q605 961 605 949Q605 945 583.50 920Q562 895 513 842Q498 824 475 824M250 753Q229 753 229 765Q229 774 236 785L302 873Q318 895 350 895L375 895Q399 895 409 873L451 785Q456 778 456 768Q454 753 430 753L428 753Q403 753 396 766L356 840L287 766Q271 753 252 753L250 753M18-2Q-23-2-23 14Q-23 19-18 29L287 686Q294 702 328 702L357 702Q392 702 396 686L564 28Q565 24 565 18Q565-2 521-2L513-2Q478-2 474 14L432 178L138 178L64 14Q57-2 23-2L18-2M413 254L340 552Q334 575 334 610L332 610Q320 573 311 552L174 254L413 254Z"  horiz-adv-x="613" vert-adv-y="1000"  />

      
      <glyph glyph-name="uni1EAC" unicode="&#x1EAC;" d="M18-2Q-23-2-23 14Q-23 19-18 29L287 686Q294 702 328 702L357 702Q392 702 396 686L564 28Q565 24 565 18Q565-2 521-2L513-2Q478-2 474 14L432 178L138 178L64 14Q57-2 23-2L18-2M413 254L340 552Q334 575 334 610L332 610Q320 573 311 552L174 254L413 254M258-175Q237-175 228.50-169.50Q220-164 220-153L225-102Q228-80 271-80Q292-80 300.50-85.50Q309-91 309-102L304-153Q301-175 258-175M242 753Q221 753 221 765Q221 774 228 785L294 873Q310 895 342 895L367 895Q399 895 411 873L458 785Q463 778 463 768Q461 753 437 753L435 753Q416 753 403 766L348 840L279 766Q263 753 244 753L242 753Z"  horiz-adv-x="613" vert-adv-y="1000"  />

      
      <glyph glyph-name="uni1EA6" unicode="&#x1EA6;" d="M509 824Q483 824 473 842Q433 904 422 923.50Q411 943 410 952Q410 959 418 961.50Q426 964 447 964Q485 964 495 938Q532 848 532 833Q532 824 509 824M250 753Q229 753 229 765Q229 774 236 785L302 873Q318 895 350 895L375 895Q399 895 409 873L451 785Q456 778 456 768Q454 753 430 753L428 753Q403 753 396 766L356 840L287 766Q271 753 252 753L250 753M18-2Q-23-2-23 14Q-23 19-18 29L287 686Q294 702 328 702L357 702Q392 702 396 686L564 28Q565 24 565 18Q565-2 521-2L513-2Q478-2 474 14L432 178L138 178L64 14Q57-2 23-2L18-2M413 254L340 552Q334 575 334 610L332 610Q320 573 311 552L174 254L413 254Z"  horiz-adv-x="613" vert-adv-y="1000"  />

      
      <glyph glyph-name="uni1EA8" unicode="&#x1EA8;" d="M488 825Q473 825 463.50 831.50Q454 838 454 845Q454 850 459.50 854.50Q465 859 481 867Q516 885 516 904Q516 917 507 924Q498 931 482 931Q460 931 448.50 924.50Q437 918 434 918Q428 918 421 930.50Q414 943 414 951Q414 961 441 970Q468 979 495 979Q526 979 550 962.50Q574 946 574 911Q574 891 562.50 876.50Q551 862 532 847Q522 839 507.50 832Q493 825 488 825M250 753Q229 753 229 765Q229 774 236 785L302 873Q318 895 350 895L375 895Q399 895 409 873L451 785Q456 778 456 768Q454 753 430 753L428 753Q403 753 396 766L356 840L287 766Q271 753 252 753L250 753M18-2Q-23-2-23 14Q-23 19-18 29L287 686Q294 702 328 702L357 702Q392 702 396 686L564 28Q565 24 565 18Q565-2 521-2L513-2Q478-2 474 14L432 178L138 178L64 14Q57-2 23-2L18-2M413 254L340 552Q334 575 334 610L332 610Q320 573 311 552L174 254L413 254Z"  horiz-adv-x="613" vert-adv-y="1000"  />

      
      <glyph glyph-name="uni1EAA" unicode="&#x1EAA;" d="M226 914Q221 922 221 931Q221 941 229 947Q280 988 326 988Q357 988 375 979.50Q393 971 395 970Q423 957 435 957Q449 957 461 962.50Q473 968 487 979Q497 986 504 986Q513 986 521 977L524 973Q530 964 530 957Q530 947 520 937Q472 893 424 893Q401 893 385.50 897Q370 901 355 909Q352 911 338.50 917.50Q325 924 315 924Q304 924 295 920.50Q286 917 278 912Q270 907 266 905Q256 899 247 899Q235 899 228 911L226 914M244 754Q223 754 223 766Q223 776 235 788L297 849Q311 860 321.50 865.50Q332 871 345 871L370 871Q394 871 414 849L460 786Q465 779 465 769Q463 754 439 754L437 754Q422 754 405 767L351 816L281 767Q273 762 264 758Q255 754 246 754L244 754M18-2Q-23-2-23 14Q-23 19-18 29L287 686Q294 702 328 702L357 702Q392 702 396 686L564 28Q565 24 565 18Q565-2 521-2L513-2Q478-2 474 14L432 178L138 178L64 14Q57-2 23-2L18-2M413 254L340 552Q334 575 334 610L332 610Q320 573 311 552L174 254L413 254Z"  horiz-adv-x="613" vert-adv-y="1000"  />

      
      <glyph glyph-name="unic4" unicode="&#xc4;" d="M18-2Q-23-2-23 14Q-23 19-18 29L287 686Q294 702 328 702L357 702Q392 702 396 686L564 28Q565 24 565 18Q565-2 521-2L513-2Q478-2 474 14L432 178L138 178L64 14Q57-2 23-2L18-2M413 254L340 552Q334 575 334 610L332 610Q320 573 311 552L174 254L413 254M274 784Q253 784 244.50 789.50Q236 795 236 806L241 857Q244 879 287 879Q308 879 316.50 873.50Q325 868 325 857L320 806Q317 784 274 784M418 784Q397 784 388.50 789.50Q380 795 380 806L385 857Q387 879 431 879Q452 879 460.50 873.50Q469 868 469 857L464 806Q461 784 418 784Z"  horiz-adv-x="613" vert-adv-y="1000"  />

      
      <glyph glyph-name="uni1EA0" unicode="&#x1EA0;" d="M18-2Q-23-2-23 14Q-23 19-18 29L287 686Q294 702 328 702L357 702Q392 702 396 686L564 28Q565 24 565 18Q565-2 521-2L513-2Q478-2 474 14L432 178L138 178L64 14Q57-2 23-2L18-2M413 254L340 552Q334 575 334 610L332 610Q320 573 311 552L174 254L413 254M258-175Q237-175 228.50-169.50Q220-164 220-153L225-102Q228-80 271-80Q292-80 300.50-85.50Q309-91 309-102L304-153Q301-175 258-175Z"  horiz-adv-x="613" vert-adv-y="1000"  />

      
      <glyph glyph-name="unic0" unicode="&#xc0;" d="M18-2Q-23-2-23 14Q-23 19-18 29L287 686Q294 702 328 702L357 702Q392 702 396 686L564 28Q565 24 565 18Q565-2 521-2L513-2Q478-2 474 14L432 178L138 178L64 14Q57-2 23-2L18-2M413 254L340 552Q334 575 334 610L332 610Q320 573 311 552L174 254L413 254M368 762Q352 762 338 766.50Q324 771 317 780L282 819Q241 866 232 878Q223 890 223 897Q224 904 235.50 906.50Q247 909 271 909Q295 909 310 903Q325 897 333 883Q368 822 379.50 800Q391 778 391 771Q391 762 368 762Z"  horiz-adv-x="613" vert-adv-y="1000"  />

      
      <glyph glyph-name="uni1EA2" unicode="&#x1EA2;" d="M18-2Q-23-2-23 14Q-23 19-18 29L287 686Q294 702 328 702L357 702Q392 702 396 686L564 28Q565 24 565 18Q565-2 521-2L513-2Q478-2 474 14L432 178L138 178L64 14Q57-2 23-2L18-2M413 254L340 552Q334 575 334 610L332 610Q320 573 311 552L174 254L413 254M353 740Q337 740 325.50 745Q314 750 314 757Q314 764 321 771.50Q328 779 341 788Q362 803 374 817Q386 831 386 851Q386 863 376.50 869.50Q367 876 352 876Q330 876 318.50 869.50Q307 863 304 863Q298 863 291 875.50Q284 888 284 896Q284 906 311.50 916.50Q339 927 365 927Q397 927 424.50 910Q452 893 452 857Q452 826 431.50 799.50Q411 773 385.50 756.50Q360 740 353 740Z"  horiz-adv-x="613" vert-adv-y="1000"  />

      
      <glyph glyph-name="uni0100" unicode="&#x0100;" d="M18-2Q-23-2-23 14Q-23 19-18 29L287 686Q294 702 328 702L357 702Q392 702 396 686L564 28Q565 24 565 18Q565-2 521-2L513-2Q478-2 474 14L432 178L138 178L64 14Q57-2 23-2L18-2M413 254L340 552Q334 575 334 610L332 610Q320 573 311 552L174 254L413 254M225 789Q215 789 211.50 796Q208 803 208 816L208 823Q211 860 233 860L459 860Q469 860 472.50 853.50Q476 847 476 834L476 828Q476 813 470.50 801Q465 789 451 789L225 789Z"  horiz-adv-x="613" vert-adv-y="1000"  />

      
      <glyph glyph-name="uni0104" unicode="&#x0104;" d="M642-95Q648-95 648-108Q648-138 636-154Q617-183 559-183Q497-183 474-158.50Q451-134 451-103Q451-83 460-53Q469-23 488 1Q477 6 474 14L432 178L138 178L64 14Q57-2 23-2L18-2Q-23-2-23 14Q-23 19-18 29L287 686Q294 702 328 702L357 702Q392 702 396 686L564 28Q565 24 565 18Q565 3 538-1Q520-35 520-70Q520-96 537-104.50Q554-113 578-113Q598-113 618.50-104Q639-95 642-95M413 254L340 552Q334 575 334 610L332 610Q320 573 311 552L174 254L413 254Z"  horiz-adv-x="613" vert-adv-y="1000"  />

      
      <glyph glyph-name="unic5" unicode="&#xc5;" d="M18-2Q-23-2-23 14Q-23 19-18 29L287 686Q294 702 328 702L357 702Q392 702 396 686L564 28Q565 24 565 18Q565-2 521-2L513-2Q478-2 474 14L432 178L138 178L64 14Q57-2 23-2L18-2M413 254L340 552Q334 575 334 610L332 610Q320 573 311 552L174 254L413 254M334 741Q301 741 279.50 762.50Q258 784 258 817Q258 855 286 882.50Q314 910 351 910Q384 910 405.50 888Q427 866 427 834Q427 796 399.50 768.50Q372 741 334 741M337 776Q360 776 376 792Q392 808 392 831Q392 850 379.50 862.50Q367 875 348 875Q326 875 309.50 859Q293 843 293 821Q293 801 305 788.50Q317 776 337 776Z"  horiz-adv-x="613" vert-adv-y="1000"  />

      
      <glyph glyph-name="uni01FA" unicode="&#x01FA;" d="M353 822Q331 822 331 832L364 885Q370 893 376 903Q385 917 400.50 923Q416 929 441 929Q466 929 477 926Q488 923 487 916Q487 913 480.50 906.50Q474 900 460 888L406 840Q388 822 353 822M564 28Q565 24 565 18Q565-2 521-2L513-2Q478-2 474 14L432 178L138 178L64 14Q57-2 23-2L18-2Q-23-2-23 14Q-23 19-18 29L274 659Q263 676 263 700Q263 738 291 765.50Q319 793 356 793Q389 793 410.50 771Q432 749 432 717Q432 681 405 652L564 28M353 758Q331 758 314.50 742Q298 726 298 704Q298 684 310 671.50Q322 659 342 659Q365 659 381 675Q397 691 397 714Q397 733 384.50 745.50Q372 758 353 758M413 254L340 552Q334 575 334 610L332 610Q320 573 311 552L174 254L413 254Z"  horiz-adv-x="613" vert-adv-y="1000"  />

      
      <glyph glyph-name="unic3" unicode="&#xc3;" d="M18-2Q-23-2-23 14Q-23 19-18 29L287 686Q294 702 328 702L357 702Q392 702 396 686L564 28Q565 24 565 18Q565-2 521-2L513-2Q478-2 474 14L432 178L138 178L64 14Q57-2 23-2L18-2M413 254L340 552Q334 575 334 610L332 610Q320 573 311 552L174 254L413 254M197 783Q191 790 191 800Q191 810 200 816Q257 857 307 857Q329 857 344.50 853Q360 849 370 844.50Q380 840 383 839Q413 826 427 826Q442 826 455 831.50Q468 837 484 848Q495 855 502 855Q514 855 521 846L524 842Q531 834 531 826Q531 815 520 806Q467 762 414 762Q388 762 371.50 766Q355 770 339 778Q335 780 320.50 786.50Q306 793 295 793Q282 793 272 789Q262 785 253 780.50Q244 776 241 774Q229 768 220 768Q207 768 199 780L197 783Z"  horiz-adv-x="613" vert-adv-y="1000"  />

      
      <glyph glyph-name="unic6" unicode="&#xc6;" d="M-9-2Q-30-2-38.50 1.50Q-47 5-47 13Q-47 21-41 31L347 673Q355 687 365.50 693.50Q376 700 392 700L842 700Q859 700 859 678L859 674Q859 651 854.50 637.50Q850 624 834 624L468 624L494 396L779 396Q796 396 796 374L796 370Q796 347 791.50 333.50Q787 320 771 320L502 320L530 76L778 76Q795 76 795 54L795 50Q795 27 790 13.50Q785 0 770 0L478 0Q462 0 454.50 7Q447 14 445 29L429 178L134 178L37 14Q27-2-4-2L-9-2M419 253L389 552L389 610L387 610L360 552L180 253L419 253Z"  horiz-adv-x="915" vert-adv-y="1000"  />

      
      <glyph glyph-name="uni01FC" unicode="&#x01FC;" d="M-9-2Q-30-2-38.50 1.50Q-47 5-47 13Q-47 21-41 31L347 673Q355 687 365.50 693.50Q376 700 392 700L842 700Q859 700 859 678L859 674Q859 651 854.50 637.50Q850 624 834 624L468 624L494 396L779 396Q796 396 796 374L796 370Q796 347 791.50 333.50Q787 320 771 320L502 320L530 76L778 76Q795 76 795 54L795 50Q795 27 790 13.50Q785 0 770 0L478 0Q462 0 454.50 7Q447 14 445 29L429 178L134 178L37 14Q27-2-4-2L-9-2M419 253L389 552L389 610L387 610L360 552L180 253L419 253M442 762Q420 762 420 771Q420 778 433.50 800Q447 822 489 883Q499 897 514.50 903Q530 909 554 909Q601 909 601 897Q601 891 591 879.50Q581 868 536 821Q536 821 495 780Q486 771 472 766.50Q458 762 442 762Z"  horiz-adv-x="915" vert-adv-y="1000"  />

      
      <glyph glyph-name="uni42" unicode="&#x42;" d="M78 0Q63 0 56.50 7Q50 14 51 31L118 668Q119 685 127 692.50Q135 700 151 700L335 700Q437 700 491 658Q545 616 545 544Q545 507 527 470.50Q509 434 479 407Q449 380 415 371L414 367Q414 370 449.50 353.50Q485 337 513 304Q541 271 541 219Q541 109 464 54.50Q387 0 255 0L78 0M299 398Q343 398 378 416Q413 434 433 465Q453 496 453 532Q453 579 420 601.50Q387 624 318 624L201 624L178 398L299 398M295 76Q365 76 407.50 115Q450 154 450 220Q450 269 412.50 295.50Q375 322 304 322L170 322L144 76L295 76Z"  horiz-adv-x="593" vert-adv-y="1000"  />

      
      <glyph glyph-name="uni43" unicode="&#x43;" d="M326-6Q179-6 108.50 62.50Q38 131 38 274Q38 465 124 585.50Q210 706 407 706Q453 706 494 697Q535 688 561 674Q590 660 590 645Q590 633 574.50 609.50Q559 586 550 586Q547 586 524 598.50Q501 611 467.50 620.50Q434 630 392 630Q255 630 191.50 536.50Q128 443 128 286Q128 175 178.50 122.50Q229 70 334 70Q389 70 429.50 82.50Q470 95 493.50 106.50Q517 118 519 118Q526 118 526 107Q526 91 523 70Q520 49 512 39Q493 16 434.50 5Q376-6 326-6Z"  horiz-adv-x="619" vert-adv-y="1000"  />

      
      <glyph glyph-name="uni0106" unicode="&#x0106;" d="M326-6Q179-6 108.50 62.50Q38 131 38 274Q38 465 124 585.50Q210 706 407 706Q453 706 494 697Q535 688 561 674Q590 660 590 645Q590 633 574.50 609.50Q559 586 550 586Q547 586 524 598.50Q501 611 467.50 620.50Q434 630 392 630Q255 630 191.50 536.50Q128 443 128 286Q128 175 178.50 122.50Q229 70 334 70Q389 70 429.50 82.50Q470 95 493.50 106.50Q517 118 519 118Q526 118 526 107Q526 91 523 70Q520 49 512 39Q493 16 434.50 5Q376-6 326-6M373 762Q351 762 351 771Q351 778 364.50 800Q378 822 420 883Q430 897 445.50 903Q461 909 485 909Q532 909 532 897Q532 891 522 879.50Q512 868 467 821Q467 821 426 780Q417 771 403 766.50Q389 762 373 762Z"  horiz-adv-x="619" vert-adv-y="1000"  />

      
      <glyph glyph-name="uni010C" unicode="&#x010C;" d="M326-6Q179-6 108.50 62.50Q38 131 38 274Q38 465 124 585.50Q210 706 407 706Q453 706 494 697Q535 688 561 674Q590 660 590 645Q590 633 574.50 609.50Q559 586 550 586Q547 586 524 598.50Q501 611 467.50 620.50Q434 630 392 630Q255 630 191.50 536.50Q128 443 128 286Q128 175 178.50 122.50Q229 70 334 70Q389 70 429.50 82.50Q470 95 493.50 106.50Q517 118 519 118Q526 118 526 107Q526 91 523 70Q520 49 512 39Q493 16 434.50 5Q376-6 326-6M382 759Q350 759 338 781L292 869Q287 878 287 887Q289 901 312 901L314 901Q334 901 347 888L400 814L471 888Q487 901 505 901L507 901Q529 901 529 887Q529 879 522 869L455 781Q439 759 407 759L382 759Z"  horiz-adv-x="619" vert-adv-y="1000"  />

      
      <glyph glyph-name="unic7" unicode="&#xc7;" d="M561 674Q590 660 590 645Q590 633 574.50 609.50Q559 586 550 586Q547 586 524 598.50Q501 611 467.50 620.50Q434 630 392 630Q255 630 191.50 536.50Q128 443 128 286Q128 175 178.50 122.50Q229 70 334 70Q389 70 429.50 82.50Q470 95 493.50 106.50Q517 118 519 118Q526 118 526 107Q526 91 523 70Q520 49 512 39Q493 17 437 6Q381-5 330-6L312-49L316-49Q343-49 368.50-62Q394-75 394-111Q394-169 356.50-189.50Q319-210 269-210Q237-210 204.50-201Q172-192 172-169Q172-147 175.50-141.50Q179-136 184-136Q186-137 206-149Q226-161 262-161Q322-161 322-121Q322-107 313-100.50Q304-94 287-89Q274-84 268-80Q262-76 262-69Q263-66 269-50.50Q275-35 287-5Q161 4 99.50 72.50Q38 141 38 274Q38 465 124 585.50Q210 706 407 706Q453 706 494 697Q535 688 561 674Z"  horiz-adv-x="619" vert-adv-y="1000"  />

      
      <glyph glyph-name="uni0108" unicode="&#x0108;" d="M326-6Q179-6 108.50 62.50Q38 131 38 274Q38 465 124 585.50Q210 706 407 706Q453 706 494 697Q535 688 561 674Q590 660 590 645Q590 633 574.50 609.50Q559 586 550 586Q547 586 524 598.50Q501 611 467.50 620.50Q434 630 392 630Q255 630 191.50 536.50Q128 443 128 286Q128 175 178.50 122.50Q229 70 334 70Q389 70 429.50 82.50Q470 95 493.50 106.50Q517 118 519 118Q526 118 526 107Q526 91 523 70Q520 49 512 39Q493 16 434.50 5Q376-6 326-6M289 753Q268 753 268 765Q268 774 275 785L341 873Q357 895 389 895L414 895Q446 895 458 873L505 785Q510 778 510 768Q508 753 484 753L482 753Q463 753 450 766L395 840L326 766Q310 753 291 753L289 753Z"  horiz-adv-x="619" vert-adv-y="1000"  />

      
      <glyph glyph-name="uni010A" unicode="&#x010A;" d="M326-6Q179-6 108.50 62.50Q38 131 38 274Q38 465 124 585.50Q210 706 407 706Q453 706 494 697Q535 688 561 674Q590 660 590 645Q590 633 574.50 609.50Q559 586 550 586Q547 586 524 598.50Q501 611 467.50 620.50Q434 630 392 630Q255 630 191.50 536.50Q128 443 128 286Q128 175 178.50 122.50Q229 70 334 70Q389 70 429.50 82.50Q470 95 493.50 106.50Q517 118 519 118Q526 118 526 107Q526 91 523 70Q520 49 512 39Q493 16 434.50 5Q376-6 326-6M393 784Q372 784 363.50 789.50Q355 795 355 806L360 857Q363 879 406 879Q427 879 435.50 873.50Q444 868 444 857L439 806Q436 784 393 784Z"  horiz-adv-x="619" vert-adv-y="1000"  />

      
      <glyph glyph-name="uni44" unicode="&#x44;" d="M77 0Q63 0 56.50 5.50Q50 11 50 24L117 670Q118 686 126 693Q134 700 150 700L365 700Q492 700 567.50 631.50Q643 563 643 415Q643 268 594.50 175Q546 82 467 41Q388 0 292 0L77 0M293 76Q362 76 421 109Q480 142 516 215Q552 288 552 401Q552 519 497.50 571.50Q443 624 350 624L200 624L143 76L293 76Z"  horiz-adv-x="695" vert-adv-y="1000"  />

      
      <glyph glyph-name="uni01F1" unicode="&#x01F1;" d="M77 0Q63 0 56.50 5.50Q50 11 50 24L117 670Q118 686 126 693Q134 700 150 700L365 700Q492 700 567.50 631.50Q643 563 643 415Q643 268 594.50 175Q546 82 467 41Q388 0 292 0L77 0M293 76Q362 76 421 109Q480 142 516 215Q552 288 552 401Q552 519 497.50 571.50Q443 624 350 624L200 624L143 76L293 76M720 0Q713 0 707 16.50Q701 33 701 48Q701 60 706 65L1174 624L813 624Q796 624 796 646L796 660Q796 676 801.50 688Q807 700 821 700L1280 700Q1285 700 1291 683.50Q1297 667 1297 652Q1297 640 1292 635L824 76L1216 76Q1233 76 1233 54L1233 44Q1233 24 1228 12Q1223 0 1208 0L720 0Z"  horiz-adv-x="1311" vert-adv-y="1000"  />

      
      <glyph glyph-name="uni01C4" unicode="&#x01C4;" d="M77 0Q63 0 56.50 5.50Q50 11 50 24L117 670Q118 686 126 693Q134 700 150 700L365 700Q492 700 567.50 631.50Q643 563 643 415Q643 268 594.50 175Q546 82 467 41Q388 0 292 0L77 0M293 76Q362 76 421 109Q480 142 516 215Q552 288 552 401Q552 519 497.50 571.50Q443 624 350 624L200 624L143 76L293 76M720 0Q713 0 707 16.50Q701 33 701 48Q701 60 706 65L1174 624L813 624Q796 624 796 646L796 660Q796 676 801.50 688Q807 700 821 700L1280 700Q1285 700 1291 683.50Q1297 667 1297 652Q1297 640 1292 635L824 76L1216 76Q1233 76 1233 54L1233 44Q1233 24 1228 12Q1223 0 1208 0L720 0M1026 759Q994 759 982 781L936 869Q931 878 931 887Q933 901 956 901L958 901Q978 901 991 888L1044 814L1115 888Q1131 901 1149 901L1151 901Q1173 901 1173 887Q1173 879 1166 869L1099 781Q1083 759 1051 759L1026 759Z"  horiz-adv-x="1311" vert-adv-y="1000"  />

      
      <glyph glyph-name="unid0" unicode="&#xd0;" d="M365 700Q492 700 567.50 631.50Q643 563 643 415Q643 268 594.50 175Q546 82 467 41Q388 0 292 0L77 0Q63 0 56.50 5.50Q50 11 50 24L81 320L16 320Q-1 320-1 342Q-1 367 3.50 381.50Q8 396 24 396L89 396L117 670Q118 686 126 693Q134 700 150 700L365 700M293 76Q362 76 421 109Q480 142 516 215Q552 288 552 401Q552 519 497.50 571.50Q443 624 350 624L200 624L176 396L288 396Q305 396 305 374Q305 349 300.50 334.50Q296 320 280 320L168 320L143 76L293 76Z"  horiz-adv-x="695" vert-adv-y="1000"  />

      
      <glyph glyph-name="uni010E" unicode="&#x010E;" d="M77 0Q63 0 56.50 5.50Q50 11 50 24L117 670Q118 686 126 693Q134 700 150 700L365 700Q492 700 567.50 631.50Q643 563 643 415Q643 268 594.50 175Q546 82 467 41Q388 0 292 0L77 0M293 76Q362 76 421 109Q480 142 516 215Q552 288 552 401Q552 519 497.50 571.50Q443 624 350 624L200 624L143 76L293 76M341 759Q309 759 297 781L251 869Q246 878 246 887Q248 901 271 901L273 901Q293 901 306 888L359 814L430 888Q446 901 464 901L466 901Q488 901 488 887Q488 879 481 869L414 781Q398 759 366 759L341 759Z"  horiz-adv-x="695" vert-adv-y="1000"  />

      
      <glyph glyph-name="uni0110" unicode="&#x0110;" d="M365 700Q492 700 567.50 631.50Q643 563 643 415Q643 268 594.50 175Q546 82 467 41Q388 0 292 0L77 0Q63 0 56.50 5.50Q50 11 50 24L81 320L16 320Q-1 320-1 342Q-1 367 3.50 381.50Q8 396 24 396L89 396L117 670Q118 686 126 693Q134 700 150 700L365 700M293 76Q362 76 421 109Q480 142 516 215Q552 288 552 401Q552 519 497.50 571.50Q443 624 350 624L200 624L176 396L288 396Q305 396 305 374Q305 349 300.50 334.50Q296 320 280 320L168 320L143 76L293 76Z"  horiz-adv-x="695" vert-adv-y="1000"  />

      
      <glyph glyph-name="uni1E0C" unicode="&#x1E0C;" d="M77 0Q63 0 56.50 5.50Q50 11 50 24L117 670Q118 686 126 693Q134 700 150 700L365 700Q492 700 567.50 631.50Q643 563 643 415Q643 268 594.50 175Q546 82 467 41Q388 0 292 0L77 0M293 76Q362 76 421 109Q480 142 516 215Q552 288 552 401Q552 519 497.50 571.50Q443 624 350 624L200 624L143 76L293 76M270-175Q249-175 240.50-169.50Q232-164 232-153L237-102Q240-80 283-80Q304-80 312.50-85.50Q321-91 321-102L316-153Q313-175 270-175Z"  horiz-adv-x="695" vert-adv-y="1000"  />

      
      <glyph glyph-name="uni01F2" unicode="&#x01F2;" d="M77 0Q63 0 56.50 5.50Q50 11 50 24L117 670Q118 686 126 693Q134 700 150 700L365 700Q492 700 567.50 631.50Q643 563 643 415Q643 268 594.50 175Q546 82 467 41Q388 0 292 0L77 0M293 76Q362 76 421 109Q480 142 516 215Q552 288 552 401Q552 519 497.50 571.50Q443 624 350 624L200 624L143 76L293 76M726 0Q721 0 715 15.50Q709 31 709 46Q709 57 714 62L1047 451L791 451Q781 451 777.50 458Q774 465 774 478L774 480Q774 495 779.50 509Q785 523 799 523L1150 523Q1156 523 1160.50 507Q1165 491 1165 475Q1165 465 1161 461L829 72L1104 72Q1114 72 1117.50 65Q1121 58 1121 45L1121 42Q1121 26 1115.50 13Q1110 0 1096 0L726 0Z"  horiz-adv-x="1184" vert-adv-y="1000"  />

      
      <glyph glyph-name="uni01C5" unicode="&#x01C5;" d="M77 0Q63 0 56.50 5.50Q50 11 50 24L117 670Q118 686 126 693Q134 700 150 700L365 700Q492 700 567.50 631.50Q643 563 643 415Q643 268 594.50 175Q546 82 467 41Q388 0 292 0L77 0M293 76Q362 76 421 109Q480 142 516 215Q552 288 552 401Q552 519 497.50 571.50Q443 624 350 624L200 624L143 76L293 76M726 0Q721 0 715 15.50Q709 31 709 46Q709 57 714 62L1047 451L791 451Q781 451 777.50 458Q774 465 774 478L774 480Q774 495 779.50 509Q785 523 799 523L1150 523Q1156 523 1160.50 507Q1165 491 1165 475Q1165 465 1161 461L829 72L1104 72Q1114 72 1117.50 65Q1121 58 1121 45L1121 42Q1121 26 1115.50 13Q1110 0 1096 0L726 0M963 582Q931 582 919 604L873 692Q868 701 868 710Q870 724 893 724L895 724Q915 724 928 711L981 637L1052 711Q1068 724 1086 724L1088 724Q1110 724 1110 710Q1110 702 1103 692L1036 604Q1020 582 988 582L963 582Z"  horiz-adv-x="1184" vert-adv-y="1000"  />

      
      <glyph glyph-name="uni45" unicode="&#x45;" d="M72 0Q58 0 51.50 5.50Q45 11 45 24L112 670Q113 686 121 693Q129 700 145 700L498 700Q515 700 515 678L515 673Q515 651 510 637.50Q505 624 490 624L195 624L171 396L435 396Q452 396 452 374L452 368Q452 346 447 333Q442 320 427 320L163 320L138 76L434 76Q451 76 451 54L451 49Q451 27 446 13.50Q441 0 426 0L72 0Z"  horiz-adv-x="546" vert-adv-y="1000"  />

      
      <glyph glyph-name="unic9" unicode="&#xc9;" d="M72 0Q58 0 51.50 5.50Q45 11 45 24L112 670Q113 686 121 693Q129 700 145 700L498 700Q515 700 515 678L515 673Q515 651 510 637.50Q505 624 490 624L195 624L171 396L435 396Q452 396 452 374L452 368Q452 346 447 333Q442 320 427 320L163 320L138 76L434 76Q451 76 451 54L451 49Q451 27 446 13.50Q441 0 426 0L72 0M307 762Q285 762 285 771Q285 778 298.50 800Q312 822 354 883Q364 897 379.50 903Q395 909 419 909Q466 909 466 897Q466 891 456 879.50Q446 868 401 821Q401 821 360 780Q351 771 337 766.50Q323 762 307 762Z"  horiz-adv-x="546" vert-adv-y="1000"  />

      
      <glyph glyph-name="uni0114" unicode="&#x0114;" d="M72 0Q58 0 51.50 5.50Q45 11 45 24L112 670Q113 686 121 693Q129 700 145 700L498 700Q515 700 515 678L515 673Q515 651 510 637.50Q505 624 490 624L195 624L171 396L435 396Q452 396 452 374L452 368Q452 346 447 333Q442 320 427 320L163 320L138 76L434 76Q451 76 451 54L451 49Q451 27 446 13.50Q441 0 426 0L72 0M328 762Q273 762 233.50 789Q194 816 194 865Q194 879 197.50 885.50Q201 892 211 892Q219 892 222 889Q225 886 226.50 879.50Q228 873 231 867Q240 847 268 837.50Q296 828 335 828Q374 828 403.50 837.50Q433 847 446 867Q450 874 452.50 880.50Q455 887 458.50 889.50Q462 892 470 892Q484 892 484 880Q484 843 460 816Q436 789 400 775.50Q364 762 328 762Z"  horiz-adv-x="546" vert-adv-y="1000"  />

      
      <glyph glyph-name="uni011A" unicode="&#x011A;" d="M72 0Q58 0 51.50 5.50Q45 11 45 24L112 670Q113 686 121 693Q129 700 145 700L498 700Q515 700 515 678L515 673Q515 651 510 637.50Q505 624 490 624L195 624L171 396L435 396Q452 396 452 374L452 368Q452 346 447 333Q442 320 427 320L163 320L138 76L434 76Q451 76 451 54L451 49Q451 27 446 13.50Q441 0 426 0L72 0M316 759Q284 759 272 781L226 869Q221 878 221 887Q223 901 246 901L248 901Q268 901 281 888L334 814L405 888Q421 901 439 901L441 901Q463 901 463 887Q463 879 456 869L389 781Q373 759 341 759L316 759Z"  horiz-adv-x="546" vert-adv-y="1000"  />

      
      <glyph glyph-name="unica" unicode="&#xca;" d="M72 0Q58 0 51.50 5.50Q45 11 45 24L112 670Q113 686 121 693Q129 700 145 700L498 700Q515 700 515 678L515 673Q515 651 510 637.50Q505 624 490 624L195 624L171 396L435 396Q452 396 452 374L452 368Q452 346 447 333Q442 320 427 320L163 320L138 76L434 76Q451 76 451 54L451 49Q451 27 446 13.50Q441 0 426 0L72 0M223 753Q202 753 202 765Q202 774 209 785L275 873Q291 895 323 895L348 895Q380 895 392 873L439 785Q444 778 444 768Q442 753 418 753L416 753Q397 753 384 766L329 840L260 766Q244 753 225 753L223 753Z"  horiz-adv-x="546" vert-adv-y="1000"  />

      
      <glyph glyph-name="uni1EBE" unicode="&#x1EBE;" d="M456 824Q434 824 434 833Q434 847 489 935Q497 947 513.50 954Q530 961 554 961Q586 961 586 949Q586 945 564.50 920Q543 895 494 842Q479 824 456 824M231 753Q210 753 210 765Q210 774 217 785L283 873Q299 895 331 895L356 895Q380 895 390 873L432 785Q437 778 437 768Q435 753 411 753L409 753Q384 753 377 766L337 840L268 766Q252 753 233 753L231 753M72 0Q58 0 51.50 5.50Q45 11 45 24L112 670Q113 686 121 693Q129 700 145 700L498 700Q515 700 515 678L515 673Q515 651 510 637.50Q505 624 490 624L195 624L171 396L435 396Q452 396 452 374L452 368Q452 346 447 333Q442 320 427 320L163 320L138 76L434 76Q451 76 451 54L451 49Q451 27 446 13.50Q441 0 426 0L72 0Z"  horiz-adv-x="546" vert-adv-y="1000"  />

      
      <glyph glyph-name="uni1EC6" unicode="&#x1EC6;" d="M72 0Q58 0 51.50 5.50Q45 11 45 24L112 670Q113 686 121 693Q129 700 145 700L498 700Q515 700 515 678L515 673Q515 651 510 637.50Q505 624 490 624L195 624L171 396L435 396Q452 396 452 374L452 368Q452 346 447 333Q442 320 427 320L163 320L138 76L434 76Q451 76 451 54L451 49Q451 27 446 13.50Q441 0 426 0L72 0M230-175Q209-175 200.50-169.50Q192-164 192-153L197-102Q200-80 243-80Q264-80 272.50-85.50Q281-91 281-102L276-153Q273-175 230-175M223 753Q202 753 202 765Q202 774 209 785L275 873Q291 895 323 895L348 895Q380 895 392 873L439 785Q444 778 444 768Q442 753 418 753L416 753Q397 753 384 766L329 840L260 766Q244 753 225 753L223 753Z"  horiz-adv-x="546" vert-adv-y="1000"  />

      
      <glyph glyph-name="uni1EC0" unicode="&#x1EC0;" d="M490 824Q465 824 454 842Q414 904 403 923.50Q392 943 391 952Q391 959 399 961.50Q407 964 428 964Q466 964 476 938Q513 848 513 833Q513 824 490 824M231 753Q210 753 210 765Q210 774 217 785L283 873Q299 895 331 895L356 895Q380 895 390 873L432 785Q437 778 437 768Q435 753 411 753L409 753Q384 753 377 766L337 840L268 766Q252 753 233 753L231 753M72 0Q58 0 51.50 5.50Q45 11 45 24L112 670Q113 686 121 693Q129 700 145 700L498 700Q515 700 515 678L515 673Q515 651 510 637.50Q505 624 490 624L195 624L171 396L435 396Q452 396 452 374L452 368Q452 346 447 333Q442 320 427 320L163 320L138 76L434 76Q451 76 451 54L451 49Q451 27 446 13.50Q441 0 426 0L72 0Z"  horiz-adv-x="546" vert-adv-y="1000"  />

      
      <glyph glyph-name="uni1EC2" unicode="&#x1EC2;" d="M469 825Q454 825 444.50 831.50Q435 838 435 845Q435 850 440.50 854.50Q446 859 462 867Q497 885 497 904Q497 917 488 924Q479 931 463 931Q441 931 429.50 924.50Q418 918 415 918Q409 918 402 930.50Q395 943 395 951Q395 961 422 970Q449 979 476 979Q507 979 531 962.50Q555 946 555 911Q555 891 543.50 876.50Q532 862 513 847Q503 839 488.50 832Q474 825 469 825M231 753Q210 753 210 765Q210 774 217 785L283 873Q299 895 331 895L356 895Q380 895 390 873L432 785Q437 778 437 768Q435 753 411 753L409 753Q384 753 377 766L337 840L268 766Q252 753 233 753L231 753M72 0Q58 0 51.50 5.50Q45 11 45 24L112 670Q113 686 121 693Q129 700 145 700L498 700Q515 700 515 678L515 673Q515 651 510 637.50Q505 624 490 624L195 624L171 396L435 396Q452 396 452 374L452 368Q452 346 447 333Q442 320 427 320L163 320L138 76L434 76Q451 76 451 54L451 49Q451 27 446 13.50Q441 0 426 0L72 0Z"  horiz-adv-x="546" vert-adv-y="1000"  />

      
      <glyph glyph-name="uni1EC4" unicode="&#x1EC4;" d="M207 914Q202 922 202 931Q202 941 210 947Q261 988 307 988Q338 988 356 979.50Q374 971 376 970Q404 957 416 957Q430 957 442 962.50Q454 968 468 979Q479 986 485 986Q495 986 502 977L505 973Q511 964 511 957Q511 947 501 937Q453 893 405 893Q382 893 366.50 897Q351 901 336 909Q333 911 319.50 917.50Q306 924 296 924Q285 924 276 920.50Q267 917 259 912Q251 907 247 905Q236 899 228 899Q217 899 209 911L207 914M225 754Q204 754 204 766Q204 776 216 788L278 849Q292 860 302.50 865.50Q313 871 326 871L351 871Q375 871 395 849L441 786Q446 779 446 769Q444 754 420 754L418 754Q403 754 386 767L332 816L262 767Q254 762 245 758Q236 754 227 754L225 754M72 0Q58 0 51.50 5.50Q45 11 45 24L112 670Q113 686 121 693Q129 700 145 700L498 700Q515 700 515 678L515 673Q515 651 510 637.50Q505 624 490 624L195 624L171 396L435 396Q452 396 452 374L452 368Q452 346 447 333Q442 320 427 320L163 320L138 76L434 76Q451 76 451 54L451 49Q451 27 446 13.50Q441 0 426 0L72 0Z"  horiz-adv-x="546" vert-adv-y="1000"  />

      
      <glyph glyph-name="unicb" unicode="&#xcb;" d="M72 0Q58 0 51.50 5.50Q45 11 45 24L112 670Q113 686 121 693Q129 700 145 700L498 700Q515 700 515 678L515 673Q515 651 510 637.50Q505 624 490 624L195 624L171 396L435 396Q452 396 452 374L452 368Q452 346 447 333Q442 320 427 320L163 320L138 76L434 76Q451 76 451 54L451 49Q451 27 446 13.50Q441 0 426 0L72 0M255 784Q234 784 225.50 789.50Q217 795 217 806L222 857Q225 879 268 879Q289 879 297.50 873.50Q306 868 306 857L301 806Q298 784 255 784M399 784Q378 784 369.50 789.50Q361 795 361 806L366 857Q368 879 412 879Q433 879 441.50 873.50Q450 868 450 857L445 806Q442 784 399 784Z"  horiz-adv-x="546" vert-adv-y="1000"  />

      
      <glyph glyph-name="uni0116" unicode="&#x0116;" d="M72 0Q58 0 51.50 5.50Q45 11 45 24L112 670Q113 686 121 693Q129 700 145 700L498 700Q515 700 515 678L515 673Q515 651 510 637.50Q505 624 490 624L195 624L171 396L435 396Q452 396 452 374L452 368Q452 346 447 333Q442 320 427 320L163 320L138 76L434 76Q451 76 451 54L451 49Q451 27 446 13.50Q441 0 426 0L72 0M327 784Q306 784 297.50 789.50Q289 795 289 806L294 857Q297 879 340 879Q361 879 369.50 873.50Q378 868 378 857L373 806Q370 784 327 784Z"  horiz-adv-x="546" vert-adv-y="1000"  />

      
      <glyph glyph-name="uni1EB8" unicode="&#x1EB8;" d="M72 0Q58 0 51.50 5.50Q45 11 45 24L112 670Q113 686 121 693Q129 700 145 700L498 700Q515 700 515 678L515 673Q515 651 510 637.50Q505 624 490 624L195 624L171 396L435 396Q452 396 452 374L452 368Q452 346 447 333Q442 320 427 320L163 320L138 76L434 76Q451 76 451 54L451 49Q451 27 446 13.50Q441 0 426 0L72 0M230-175Q209-175 200.50-169.50Q192-164 192-153L197-102Q200-80 243-80Q264-80 272.50-85.50Q281-91 281-102L276-153Q273-175 230-175Z"  horiz-adv-x="546" vert-adv-y="1000"  />

      
      <glyph glyph-name="unic8" unicode="&#xc8;" d="M72 0Q58 0 51.50 5.50Q45 11 45 24L112 670Q113 686 121 693Q129 700 145 700L498 700Q515 700 515 678L515 673Q515 651 510 637.50Q505 624 490 624L195 624L171 396L435 396Q452 396 452 374L452 368Q452 346 447 333Q442 320 427 320L163 320L138 76L434 76Q451 76 451 54L451 49Q451 27 446 13.50Q441 0 426 0L72 0M349 762Q333 762 319 766.50Q305 771 298 780L263 819Q222 866 213 878Q204 890 204 897Q205 904 216.50 906.50Q228 909 252 909Q276 909 291 903Q306 897 314 883Q349 822 360.50 800Q372 778 372 771Q372 762 349 762Z"  horiz-adv-x="546" vert-adv-y="1000"  />

      
      <glyph glyph-name="uni1EBA" unicode="&#x1EBA;" d="M72 0Q58 0 51.50 5.50Q45 11 45 24L112 670Q113 686 121 693Q129 700 145 700L498 700Q515 700 515 678L515 673Q515 651 510 637.50Q505 624 490 624L195 624L171 396L435 396Q452 396 452 374L452 368Q452 346 447 333Q442 320 427 320L163 320L138 76L434 76Q451 76 451 54L451 49Q451 27 446 13.50Q441 0 426 0L72 0M334 740Q318 740 306.50 745Q295 750 295 757Q295 764 302 771.50Q309 779 322 788Q343 803 355 817Q367 831 367 851Q367 863 357.50 869.50Q348 876 333 876Q311 876 299.50 869.50Q288 863 285 863Q279 863 272 875.50Q265 888 265 896Q265 906 292.50 916.50Q320 927 346 927Q378 927 405.50 910Q433 893 433 857Q433 826 412.50 799.50Q392 773 366.50 756.50Q341 740 334 740Z"  horiz-adv-x="546" vert-adv-y="1000"  />

      
      <glyph glyph-name="uni0112" unicode="&#x0112;" d="M72 0Q58 0 51.50 5.50Q45 11 45 24L112 670Q113 686 121 693Q129 700 145 700L498 700Q515 700 515 678L515 673Q515 651 510 637.50Q505 624 490 624L195 624L171 396L435 396Q452 396 452 374L452 368Q452 346 447 333Q442 320 427 320L163 320L138 76L434 76Q451 76 451 54L451 49Q451 27 446 13.50Q441 0 426 0L72 0M206 789Q196 789 192.50 796Q189 803 189 816L189 823Q192 860 214 860L440 860Q450 860 453.50 853.50Q457 847 457 834L457 828Q457 813 451.50 801Q446 789 432 789L206 789Z"  horiz-adv-x="546" vert-adv-y="1000"  />

      
      <glyph glyph-name="uni0118" unicode="&#x0118;" d="M529-95Q535-95 535-108Q535-138 523-154Q504-183 446-183Q384-183 361-158.50Q338-134 338-103Q338-83 346.50-53.50Q355-24 374 0L72 0Q58 0 51.50 5.50Q45 11 45 24L112 670Q113 686 121 693Q129 700 145 700L498 700Q515 700 515 678L515 673Q515 651 510 637.50Q505 624 490 624L195 624L171 396L435 396Q452 396 452 374L452 368Q452 346 447 333Q442 320 427 320L163 320L138 76L434 76Q451 76 451 54L451 49Q451 27 446 13.50Q441 0 426 0Q418-15 412.50-33.50Q407-52 407-70Q407-96 424-104.50Q441-113 465-113Q485-113 505.50-104Q526-95 529-95Z"  horiz-adv-x="546" vert-adv-y="1000"  />

      
      <glyph glyph-name="uni1EBC" unicode="&#x1EBC;" d="M72 0Q58 0 51.50 5.50Q45 11 45 24L112 670Q113 686 121 693Q129 700 145 700L498 700Q515 700 515 678L515 673Q515 651 510 637.50Q505 624 490 624L195 624L171 396L435 396Q452 396 452 374L452 368Q452 346 447 333Q442 320 427 320L163 320L138 76L434 76Q451 76 451 54L451 49Q451 27 446 13.50Q441 0 426 0L72 0M178 783Q172 790 172 800Q172 810 181 816Q238 857 288 857Q310 857 325.50 853Q341 849 351 844.50Q361 840 364 839Q394 826 408 826Q423 826 436 831.50Q449 837 465 848Q476 855 483 855Q495 855 502 846L505 842Q512 834 512 826Q512 815 501 806Q448 762 395 762Q369 762 352.50 766Q336 770 320 778Q316 780 301.50 786.50Q287 793 276 793Q263 793 253 789Q243 785 234 780.50Q225 776 222 774Q210 768 201 768Q188 768 180 780L178 783Z"  horiz-adv-x="546" vert-adv-y="1000"  />

      
      <glyph glyph-name="uni46" unicode="&#x46;" d="M87-2Q66-2 57.50 3.50Q49 9 49 20L117 670Q118 686 126 693Q134 700 150 700L467 700Q484 700 484 678L484 671Q484 650 479 637Q474 624 459 624L200 624L176 396L427 396Q444 396 444 374L444 367Q444 346 439 333Q434 320 419 320L168 320L137 20Q135 9 124.50 3.50Q114-2 95-2L87-2Z"  horiz-adv-x="503" vert-adv-y="1000"  />

      
      <glyph glyph-name="uni47" unicode="&#x47;" d="M560 361Q587 361 587 337L559 66Q555 27 490.50 10.50Q426-6 328-6Q52-6 52 275Q52 491 149 598.50Q246 706 418 706Q464 706 507 696.50Q550 687 576 672.50Q602 658 602 645Q602 633 586.50 609.50Q571 586 562 586Q559 586 537.50 598Q516 610 482.50 620Q449 630 404 630Q275 630 209.50 540.50Q144 451 144 288Q144 70 342 70Q379 70 415 73.50Q451 77 472 83L494 285L376 285Q359 285 359 307L359 321Q359 361 384 361L560 361Z"  horiz-adv-x="672" vert-adv-y="1000"  />

      
      <glyph glyph-name="uni011E" unicode="&#x011E;" d="M560 361Q587 361 587 337L559 66Q555 27 490.50 10.50Q426-6 328-6Q52-6 52 275Q52 491 149 598.50Q246 706 418 706Q464 706 507 696.50Q550 687 576 672.50Q602 658 602 645Q602 633 586.50 609.50Q571 586 562 586Q559 586 537.50 598Q516 610 482.50 620Q449 630 404 630Q275 630 209.50 540.50Q144 451 144 288Q144 70 342 70Q379 70 415 73.50Q451 77 472 83L494 285L376 285Q359 285 359 307L359 321Q359 361 384 361L560 361M401 762Q346 762 306.50 789Q267 816 267 865Q267 879 270.50 885.50Q274 892 284 892Q292 892 295 889Q298 886 299.50 879.50Q301 873 304 867Q313 847 341 837.50Q369 828 408 828Q447 828 476.50 837.50Q506 847 519 867Q523 874 525.50 880.50Q528 887 531.50 889.50Q535 892 543 892Q557 892 557 880Q557 843 533 816Q509 789 473 775.50Q437 762 401 762Z"  horiz-adv-x="672" vert-adv-y="1000"  />

      
      <glyph glyph-name="uni011C" unicode="&#x011C;" d="M560 361Q587 361 587 337L559 66Q555 27 490.50 10.50Q426-6 328-6Q52-6 52 275Q52 491 149 598.50Q246 706 418 706Q464 706 507 696.50Q550 687 576 672.50Q602 658 602 645Q602 633 586.50 609.50Q571 586 562 586Q559 586 537.50 598Q516 610 482.50 620Q449 630 404 630Q275 630 209.50 540.50Q144 451 144 288Q144 70 342 70Q379 70 415 73.50Q451 77 472 83L494 285L376 285Q359 285 359 307L359 321Q359 361 384 361L560 361M296 753Q275 753 275 765Q275 774 282 785L348 873Q364 895 396 895L421 895Q453 895 465 873L512 785Q517 778 517 768Q515 753 491 753L489 753Q470 753 457 766L402 840L333 766Q317 753 298 753L296 753Z"  horiz-adv-x="672" vert-adv-y="1000"  />

      
      <glyph glyph-name="uni0122" unicode="&#x0122;" d="M560 361Q587 361 587 337L559 66Q555 27 490.50 10.50Q426-6 328-6Q52-6 52 275Q52 491 149 598.50Q246 706 418 706Q464 706 507 696.50Q550 687 576 672.50Q602 658 602 645Q602 633 586.50 609.50Q571 586 562 586Q559 586 537.50 598Q516 610 482.50 620Q449 630 404 630Q275 630 209.50 540.50Q144 451 144 288Q144 70 342 70Q379 70 415 73.50Q451 77 472 83L494 285L376 285Q359 285 359 307L359 321Q359 361 384 361L560 361M256-235Q246-235 237.50-231.50Q229-228 229-220Q229-211 235.50-199.50Q242-188 250-176Q267-149 276.50-128.50Q286-108 286-83Q286-69 298-60Q310-51 330-51L339-51Q357-51 366.50-58.50Q376-66 376-79Q376-106 353.50-143Q331-180 301.50-207.50Q272-235 256-235Z"  horiz-adv-x="672" vert-adv-y="1000"  />

      
      <glyph glyph-name="uni0120" unicode="&#x0120;" d="M560 361Q587 361 587 337L559 66Q555 27 490.50 10.50Q426-6 328-6Q52-6 52 275Q52 491 149 598.50Q246 706 418 706Q464 706 507 696.50Q550 687 576 672.50Q602 658 602 645Q602 633 586.50 609.50Q571 586 562 586Q559 586 537.50 598Q516 610 482.50 620Q449 630 404 630Q275 630 209.50 540.50Q144 451 144 288Q144 70 342 70Q379 70 415 73.50Q451 77 472 83L494 285L376 285Q359 285 359 307L359 321Q359 361 384 361L560 361M400 784Q379 784 370.50 789.50Q362 795 362 806L367 857Q370 879 413 879Q434 879 442.50 873.50Q451 868 451 857L446 806Q443 784 400 784Z"  horiz-adv-x="672" vert-adv-y="1000"  />

      
      <glyph glyph-name="uni48" unicode="&#x48;" d="M100-2Q79-2 70.50 3.50Q62 9 62 20L131 680Q133 702 173 702L181 702Q202 702 210.50 696.50Q219 691 219 680L189 397L551 397L581 680Q583 702 623 702L631 702Q652 702 660.50 696.50Q669 691 669 680L600 20Q597-2 558-2L550-2Q529-2 520.50 3.50Q512 9 512 20L543 321L181 321L150 20Q147-2 108-2L100-2Z"  horiz-adv-x="733" vert-adv-y="1000"  />

      
      <glyph glyph-name="uni0126" unicode="&#x0126;" d="M680 561Q690 561 693.50 554.50Q697 548 697 535Q697 490 672 490L649 490L600 20Q597-2 558-2L550-2Q529-2 520.50 3.50Q512 9 512 20L543 321L181 321L150 20Q147-2 108-2L100-2Q79-2 70.50 3.50Q62 9 62 20L111 490L76 490Q66 490 62.50 497Q59 504 59 517Q59 561 84 561L119 561L131 680Q133 702 173 702L181 702Q202 702 210.50 696.50Q219 691 219 680L206 561L568 561L581 680Q583 702 623 702L631 702Q652 702 660.50 696.50Q669 691 669 680L657 561L680 561M561 490L199 490L189 397L551 397L561 490Z"  horiz-adv-x="733" vert-adv-y="1000"  />

      
      <glyph glyph-name="uni0124" unicode="&#x0124;" d="M100-2Q79-2 70.50 3.50Q62 9 62 20L131 680Q133 702 173 702L181 702Q202 702 210.50 696.50Q219 691 219 680L189 397L551 397L581 680Q583 702 623 702L631 702Q652 702 660.50 696.50Q669 691 669 680L600 20Q597-2 558-2L550-2Q529-2 520.50 3.50Q512 9 512 20L543 321L181 321L150 20Q147-2 108-2L100-2M305 753Q284 753 284 765Q284 774 291 785L357 873Q373 895 405 895L430 895Q462 895 474 873L521 785Q526 778 526 768Q524 753 500 753L498 753Q479 753 466 766L411 840L342 766Q326 753 307 753L305 753Z"  horiz-adv-x="733" vert-adv-y="1000"  />

      
      <glyph glyph-name="uni1E24" unicode="&#x1E24;" d="M100-2Q79-2 70.50 3.50Q62 9 62 20L131 680Q133 702 173 702L181 702Q202 702 210.50 696.50Q219 691 219 680L189 397L551 397L581 680Q583 702 623 702L631 702Q652 702 660.50 696.50Q669 691 669 680L600 20Q597-2 558-2L550-2Q529-2 520.50 3.50Q512 9 512 20L543 321L181 321L150 20Q147-2 108-2L100-2M328-173Q307-173 298.50-167.50Q290-162 290-151L295-100Q298-78 341-78Q362-78 370.50-83.50Q379-89 379-100L374-151Q371-173 328-173Z"  horiz-adv-x="733" vert-adv-y="1000"  />

      
      <glyph glyph-name="uni49" unicode="&#x49;" d="M100-2Q79-2 70.50 3.50Q62 9 62 20L131 680Q133 702 173 702L181 702Q202 702 210.50 696.50Q219 691 219 680L150 20Q147-2 108-2L100-2Z"  horiz-adv-x="282" vert-adv-y="1000"  />

      
      <glyph glyph-name="uni0132" unicode="&#x0132;" d="M100-2Q79-2 70.50 3.50Q62 9 62 20L131 680Q133 702 173 702L181 702Q202 702 210.50 696.50Q219 691 219 680L150 20Q147-2 108-2L100-2M359-6Q321-6 296 1.50Q271 9 271 26Q271 85 286 85Q291 85 308 80.50Q325 76 352 76Q421 76 455.50 106Q490 136 497 201L548 680Q550 702 590 702L598 702Q619 702 627.50 696.50Q636 691 636 680L586 205Q576 106 520.50 50Q465-6 359-6Z"  horiz-adv-x="684" vert-adv-y="1000"  />

      
      <glyph glyph-name="unicd" unicode="&#xcd;" d="M100-2Q79-2 70.50 3.50Q62 9 62 20L131 680Q133 702 173 702L181 702Q202 702 210.50 696.50Q219 691 219 680L150 20Q147-2 108-2L100-2M164 762Q142 762 142 771Q142 778 155.50 800Q169 822 211 883Q221 897 236.50 903Q252 909 276 909Q323 909 323 897Q323 891 313 879.50Q303 868 258 821Q258 821 217 780Q208 771 194 766.50Q180 762 164 762Z"  horiz-adv-x="282" vert-adv-y="1000"  />

      
      <glyph glyph-name="uni012C" unicode="&#x012C;" d="M100-2Q79-2 70.50 3.50Q62 9 62 20L131 680Q133 702 173 702L181 702Q202 702 210.50 696.50Q219 691 219 680L150 20Q147-2 108-2L100-2M185 762Q130 762 90.50 789Q51 816 51 865Q51 879 54.50 885.50Q58 892 68 892Q76 892 79 889Q82 886 83.50 879.50Q85 873 88 867Q97 847 125 837.50Q153 828 192 828Q231 828 260.50 837.50Q290 847 303 867Q307 874 309.50 880.50Q312 887 315.50 889.50Q319 892 327 892Q341 892 341 880Q341 843 317 816Q293 789 257 775.50Q221 762 185 762Z"  horiz-adv-x="282" vert-adv-y="1000"  />

      
      <glyph glyph-name="unice" unicode="&#xce;" d="M100-2Q79-2 70.50 3.50Q62 9 62 20L131 680Q133 702 173 702L181 702Q202 702 210.50 696.50Q219 691 219 680L150 20Q147-2 108-2L100-2M80 753Q59 753 59 765Q59 774 66 785L132 873Q148 895 180 895L205 895Q237 895 249 873L296 785Q301 778 301 768Q299 753 275 753L273 753Q254 753 241 766L186 840L117 766Q101 753 82 753L80 753Z"  horiz-adv-x="282" vert-adv-y="1000"  />

      
      <glyph glyph-name="unicf" unicode="&#xcf;" d="M100-2Q79-2 70.50 3.50Q62 9 62 20L131 680Q133 702 173 702L181 702Q202 702 210.50 696.50Q219 691 219 680L150 20Q147-2 108-2L100-2M112 784Q91 784 82.50 789.50Q74 795 74 806L79 857Q82 879 125 879Q146 879 154.50 873.50Q163 868 163 857L158 806Q155 784 112 784M256 784Q235 784 226.50 789.50Q218 795 218 806L223 857Q225 879 269 879Q290 879 298.50 873.50Q307 868 307 857L302 806Q299 784 256 784Z"  horiz-adv-x="282" vert-adv-y="1000"  />

      
      <glyph glyph-name="uni0130" unicode="&#x0130;" d="M100-2Q79-2 70.50 3.50Q62 9 62 20L131 680Q133 702 173 702L181 702Q202 702 210.50 696.50Q219 691 219 680L150 20Q147-2 108-2L100-2M184 784Q163 784 154.50 789.50Q146 795 146 806L151 857Q154 879 197 879Q218 879 226.50 873.50Q235 868 235 857L230 806Q227 784 184 784Z"  horiz-adv-x="282" vert-adv-y="1000"  />

      
      <glyph glyph-name="uni1ECA" unicode="&#x1ECA;" d="M100-2Q79-2 70.50 3.50Q62 9 62 20L131 680Q133 702 173 702L181 702Q202 702 210.50 696.50Q219 691 219 680L150 20Q147-2 108-2L100-2M80-175Q59-175 50.50-169.50Q42-164 42-153L47-102Q50-80 93-80Q114-80 122.50-85.50Q131-91 131-102L126-153Q123-175 80-175Z"  horiz-adv-x="282" vert-adv-y="1000"  />

      
      <glyph glyph-name="unicc" unicode="&#xcc;" d="M100-2Q79-2 70.50 3.50Q62 9 62 20L131 680Q133 702 173 702L181 702Q202 702 210.50 696.50Q219 691 219 680L150 20Q147-2 108-2L100-2M206 762Q190 762 176 766.50Q162 771 155 780L120 819Q79 866 70 878Q61 890 61 897Q62 904 73.50 906.50Q85 909 109 909Q133 909 148 903Q163 897 171 883Q206 822 217.50 800Q229 778 229 771Q229 762 206 762Z"  horiz-adv-x="282" vert-adv-y="1000"  />

      
      <glyph glyph-name="uni1EC8" unicode="&#x1EC8;" d="M100-2Q79-2 70.50 3.50Q62 9 62 20L131 680Q133 702 173 702L181 702Q202 702 210.50 696.50Q219 691 219 680L150 20Q147-2 108-2L100-2M191 740Q175 740 163.50 745Q152 750 152 757Q152 764 159 771.50Q166 779 179 788Q200 803 212 817Q224 831 224 851Q224 863 214.50 869.50Q205 876 190 876Q168 876 156.50 869.50Q145 863 142 863Q136 863 129 875.50Q122 888 122 896Q122 906 149.50 916.50Q177 927 203 927Q235 927 262.50 910Q290 893 290 857Q290 826 269.50 799.50Q249 773 223.50 756.50Q198 740 191 740Z"  horiz-adv-x="282" vert-adv-y="1000"  />

      
      <glyph glyph-name="uni012A" unicode="&#x012A;" d="M100-2Q79-2 70.50 3.50Q62 9 62 20L131 680Q133 702 173 702L181 702Q202 702 210.50 696.50Q219 691 219 680L150 20Q147-2 108-2L100-2M63 789Q53 789 49.50 796Q46 803 46 816L46 823Q49 860 71 860L297 860Q307 860 310.50 853.50Q314 847 314 834L314 828Q314 813 308.50 801Q303 789 289 789L63 789Z"  horiz-adv-x="282" vert-adv-y="1000"  />

      
      <glyph glyph-name="uni012E" unicode="&#x012E;" d="M231-95Q237-95 237-108Q237-138 225-154Q206-183 148-183Q86-183 63-158.50Q40-134 40-103Q40-83 49-53Q58-23 77 1Q62 5 62 20L131 680Q133 702 173 702L181 702Q202 702 210.50 696.50Q219 691 219 680L150 20Q148 5 128 0Q120-15 114.50-33.50Q109-52 109-70Q109-96 126-104.50Q143-113 167-113Q187-113 207.50-104Q228-95 231-95Z"  horiz-adv-x="282" vert-adv-y="1000"  />

      
      <glyph glyph-name="uni0128" unicode="&#x0128;" d="M49 783Q44 791 44 800Q44 811 52 816Q103 857 148 857Q177 857 195.50 848.50Q214 840 217 839Q243 826 256 826Q270 826 281 831.50Q292 837 307 848Q317 855 324 855Q334 855 341 846L343 842Q350 834 350 826Q350 816 340 806Q292 762 244 762Q221 762 206 766Q191 770 177 778Q174 780 160.50 786.50Q147 793 137 793Q126 793 116.50 789Q107 785 99 780Q91 775 89 774Q79 768 70 768Q57 768 51 780L49 783M100-2Q79-2 70.50 3.50Q62 9 62 20L131 680Q133 702 173 702L181 702Q202 702 210.50 696.50Q219 691 219 680L150 20Q147-2 108-2L100-2Z"  horiz-adv-x="282" vert-adv-y="1000"  />

      
      <glyph glyph-name="uni4a" unicode="&#x4a;" d="M77-6Q39-6 14 1.50Q-11 9-11 26Q-11 85 4 85Q9 85 26 80.50Q43 76 70 76Q139 76 173.50 106Q208 136 215 201L266 680Q268 702 308 702L316 702Q337 702 345.50 696.50Q354 691 354 680L304 205Q294 106 238.50 50Q183-6 77-6Z"  horiz-adv-x="402" vert-adv-y="1000"  />

      
      <glyph glyph-name="uni0134" unicode="&#x0134;" d="M77-6Q39-6 14 1.50Q-11 9-11 26Q-11 85 4 85Q9 85 26 80.50Q43 76 70 76Q139 76 173.50 106Q208 136 215 201L266 680Q268 702 308 702L316 702Q337 702 345.50 696.50Q354 691 354 680L304 205Q294 106 238.50 50Q183-6 77-6M208 755Q187 755 187 767Q187 776 194 787L260 875Q276 897 308 897L333 897Q365 897 377 875L424 787Q429 780 429 770Q427 755 403 755L401 755Q382 755 369 768L314 842L245 768Q229 755 210 755L208 755Z"  horiz-adv-x="402" vert-adv-y="1000"  />

      
      <glyph glyph-name="uni4b" unicode="&#x4b;" d="M82-2Q61-2 52.50 3.50Q44 9 44 20L113 680Q115 702 155 702L163 702Q184 702 192.50 696.50Q201 691 201 680L169 374L173 374L450 688Q463 702 505 702L515 702Q531 702 540 698.50Q549 695 549 690Q549 681 537 669L259 360L520 28Q527 19 527 12Q526 4 516 1Q506-2 482-2L475-2Q452-2 439.50 0.50Q427 3 421 11L169 333L165 333L132 20Q130 9 119.50 3.50Q109-2 90-2L82-2Z"  horiz-adv-x="576" vert-adv-y="1000"  />

      
      <glyph glyph-name="uni0136" unicode="&#x0136;" d="M82-2Q61-2 52.50 3.50Q44 9 44 20L113 680Q115 702 155 702L163 702Q184 702 192.50 696.50Q201 691 201 680L169 374L173 374L450 688Q463 702 505 702L515 702Q531 702 540 698.50Q549 695 549 690Q549 681 537 669L259 360L520 28Q527 19 527 12Q526 4 516 1Q506-2 482-2L475-2Q452-2 439.50 0.50Q427 3 421 11L169 333L165 333L132 20Q130 9 119.50 3.50Q109-2 90-2L82-2M180-235Q170-235 161.50-231.50Q153-228 153-220Q153-211 159.50-199.50Q166-188 174-176Q191-149 200.50-128.50Q210-108 210-83Q210-69 222-60Q234-51 254-51L263-51Q281-51 290.50-58.50Q300-66 300-79Q300-106 277.50-143Q255-180 225.50-207.50Q196-235 180-235Z"  horiz-adv-x="576" vert-adv-y="1000"  />

      
      <glyph glyph-name="uni4c" unicode="&#x4c;" d="M77 0Q61 0 55.50 7Q50 14 50 30L118 680Q120 702 160 702L168 702Q189 702 197.50 696.50Q206 691 206 680L143 76L434 76Q451 76 451 54L451 48Q451 26 446 13Q441 0 426 0L77 0Z"  horiz-adv-x="484" vert-adv-y="1000"  />

      
      <glyph glyph-name="uni01C7" unicode="&#x01C7;" d="M168 702Q189 702 197.50 696.50Q206 691 206 680L143 76L350 76Q367 76 367 54Q367 29 362.50 14.50Q358 0 342 0L77 0Q61 0 55.50 7Q50 14 50 30L118 680Q120 702 160 702L168 702M619 702Q640 702 648.50 696.50Q657 691 657 680L591 52Q581-47 525.50-103Q470-159 364-159Q326-159 301-151.50Q276-144 276-127Q276-68 291-68Q296-68 313-72.50Q330-77 357-77Q426-77 460.50-47Q495-17 502 48L569 680Q571 702 611 702L619 702Z"  horiz-adv-x="718" vert-adv-y="1000"  />

      
      <glyph glyph-name="uni0139" unicode="&#x0139;" d="M77 0Q61 0 55.50 7Q50 14 50 30L118 680Q120 702 160 702L168 702Q189 702 197.50 696.50Q206 691 206 680L143 76L434 76Q451 76 451 54L451 48Q451 26 446 13Q441 0 426 0L77 0M152 764Q130 764 130 773Q130 780 143.50 802Q157 824 199 885Q209 899 224.50 905Q240 911 264 911Q311 911 311 899Q311 893 301 881.50Q291 870 246 823Q246 823 205 782Q196 773 182 768.50Q168 764 152 764Z"  horiz-adv-x="484" vert-adv-y="1000"  />

      
      <glyph glyph-name="uni013D" unicode="&#x013D;" d="M77 0Q61 0 55.50 7Q50 14 50 30L118 680Q120 702 160 702L168 702Q189 702 197.50 696.50Q206 691 206 680L143 76L434 76Q451 76 451 54L451 48Q451 26 446 13Q441 0 426 0L77 0M352 536Q342 536 333.50 539.50Q325 543 325 551Q325 561 329.50 574Q334 587 335 590Q343 611 347.50 629Q352 647 352 668Q352 682 364 691Q376 700 396 700L405 700Q423 700 432.50 692.50Q442 685 442 672Q442 649 425 616.50Q408 584 386 560Q364 536 352 536Z"  horiz-adv-x="484" vert-adv-y="1000"  />

      
      <glyph glyph-name="uni013B" unicode="&#x013B;" d="M77 0Q61 0 55.50 7Q50 14 50 30L118 680Q120 702 160 702L168 702Q189 702 197.50 696.50Q206 691 206 680L143 76L434 76Q451 76 451 54L451 48Q451 26 446 13Q441 0 426 0L77 0M162-235Q152-235 143.50-231.50Q135-228 135-220Q135-211 141.50-199.50Q148-188 156-176Q173-149 182.50-128.50Q192-108 192-83Q192-69 204-60Q216-51 236-51L245-51Q263-51 272.50-58.50Q282-66 282-79Q282-106 259.50-143Q237-180 207.50-207.50Q178-235 162-235Z"  horiz-adv-x="484" vert-adv-y="1000"  />

      
      <glyph glyph-name="uni013F" unicode="&#x013F;" d="M77 0Q61 0 55.50 7Q50 14 50 30L118 680Q120 702 160 702L168 702Q189 702 197.50 696.50Q206 691 206 680L143 76L434 76Q451 76 451 54L451 48Q451 26 446 13Q441 0 426 0L77 0M355 309Q335 309 322 321.50Q309 334 309 354Q309 379 325 395.50Q341 412 366 412Q386 412 399 399Q412 386 412 366Q412 340 395.50 324.50Q379 309 355 309Z"  horiz-adv-x="484" vert-adv-y="1000"  />

      
      <glyph glyph-name="uni01C8" unicode="&#x01C8;" d="M657 614Q633 614 623.50 619.50Q614 625 614 637L620 692Q623 716 671 716Q695 716 704.50 710Q714 704 714 692L708 637Q705 614 657 614M77 0Q61 0 55.50 7Q50 14 50 30L118 680Q120 702 160 702L168 702Q189 702 197.50 696.50Q206 691 206 680L143 76L434 76Q451 76 451 54L451 48Q451 26 446 13Q441 0 426 0L77 0M495-212Q461-212 439-200.50Q417-189 417-171Q417-123 428-123Q431-123 445.50-131.50Q460-140 484-140Q510-140 525-124Q540-108 544-66L604 503Q607 525 646 525L650 525Q671 525 679.50 519.50Q688 514 688 503L627-74Q619-152 581.50-182Q544-212 495-212Z"  horiz-adv-x="760" vert-adv-y="1000"  />

      
      <glyph glyph-name="uni0141" unicode="&#x0141;" d="M434 76Q451 76 451 54L451 48Q451 26 446 13Q441 0 426 0L77 0Q61 0 55.50 7Q50 14 50 30L83 348L12 308Q4 304 2 304Q-5 304-5 317L-5 318Q-5 332 0.50 340Q6 348 17 354L88 394L118 680Q120 702 160 702L168 702Q189 702 197.50 696.50Q206 691 206 680L182 446L297 511Q305 515 308 515Q315 515 315 502L315 501Q315 487 309 479Q303 471 292 465L177 400L143 76L434 76Z"  horiz-adv-x="486" vert-adv-y="1000"  />

      
      <glyph glyph-name="uni4d" unicode="&#x4d;" d="M385 195Q371 195 365 208L217 524Q205 550 200 564L196 563Q197 546 193 514L141 20Q138-2 99-2L92-2Q71-2 62.50 3.50Q54 9 54 20L123 680Q125 702 165 702L201 702Q234 702 242 684L396 356Q410 326 416 293Q427 319 448 350L672 684Q683 702 715 702L748 702Q769 702 777.50 696.50Q786 691 786 680L717 20Q714-2 675-2L668-2Q647-2 638.50 3.50Q630 9 630 20L680 501Q683 534 687 554L683 556Q673 538 660 520L449 208Q440 195 425 195L385 195Z"  horiz-adv-x="843" vert-adv-y="1000"  />

      
      <glyph glyph-name="uni4e" unicode="&#x4e;" d="M90-2Q69-2 60.50 3.50Q52 9 52 20L121 680Q123 702 163 702L184 702Q200 702 209 698Q218 694 224 683L497 205Q512 177 519 145L526 146Q526 180 530 212L579 680Q581 702 621 702L628 702Q649 702 657.50 696.50Q666 691 666 680L597 20Q594-2 555-2L535-2Q509-2 501 12L222 501Q207 529 200 561L193 560Q193 526 189 494L139 20Q136-2 97-2L90-2Z"  horiz-adv-x="719" vert-adv-y="1000"  />

      
      <glyph glyph-name="uni01CA" unicode="&#x01CA;" d="M90-2Q69-2 60.50 3.50Q52 9 52 20L121 680Q123 702 163 702L184 702Q200 702 209 698Q218 694 224 683L497 205Q512 177 519 145L526 146Q526 180 530 212L579 680Q581 702 621 702L628 702Q649 702 657.50 696.50Q666 691 666 680L597 20Q594-2 555-2L535-2Q509-2 501 12L222 501Q207 529 200 561L193 560Q193 526 189 494L139 20Q136-2 97-2L90-2M796-6Q758-6 733 1.50Q708 9 708 26Q708 85 723 85Q728 85 745 80.50Q762 76 789 76Q858 76 892.50 106Q927 136 934 201L985 680Q987 702 1027 702L1035 702Q1056 702 1064.50 696.50Q1073 691 1073 680L1023 205Q1013 106 957.50 50Q902-6 796-6Z"  horiz-adv-x="1121" vert-adv-y="1000"  />

      
      <glyph glyph-name="uni0143" unicode="&#x0143;" d="M90-2Q69-2 60.50 3.50Q52 9 52 20L121 680Q123 702 163 702L184 702Q200 702 209 698Q218 694 224 683L497 205Q512 177 519 145L526 146Q526 180 530 212L579 680Q581 702 621 702L628 702Q649 702 657.50 696.50Q666 691 666 680L597 20Q594-2 555-2L535-2Q509-2 501 12L222 501Q207 529 200 561L193 560Q193 526 189 494L139 20Q136-2 97-2L90-2M375 762Q353 762 353 771Q353 778 366.50 800Q380 822 422 883Q432 897 447.50 903Q463 909 487 909Q534 909 534 897Q534 891 524 879.50Q514 868 469 821Q469 821 428 780Q419 771 405 766.50Q391 762 375 762Z"  horiz-adv-x="719" vert-adv-y="1000"  />

      
      <glyph glyph-name="uni0147" unicode="&#x0147;" d="M90-2Q69-2 60.50 3.50Q52 9 52 20L121 680Q123 702 163 702L184 702Q200 702 209 698Q218 694 224 683L497 205Q512 177 519 145L526 146Q526 180 530 212L579 680Q581 702 621 702L628 702Q649 702 657.50 696.50Q666 691 666 680L597 20Q594-2 555-2L535-2Q509-2 501 12L222 501Q207 529 200 561L193 560Q193 526 189 494L139 20Q136-2 97-2L90-2M384 759Q352 759 340 781L294 869Q289 878 289 887Q291 901 314 901L316 901Q336 901 349 888L402 814L473 888Q489 901 507 901L509 901Q531 901 531 887Q531 879 524 869L457 781Q441 759 409 759L384 759Z"  horiz-adv-x="719" vert-adv-y="1000"  />

      
      <glyph glyph-name="uni0145" unicode="&#x0145;" d="M90-2Q69-2 60.50 3.50Q52 9 52 20L121 680Q123 702 163 702L184 702Q200 702 209 698Q218 694 224 683L497 205Q512 177 519 145L526 146Q526 180 530 212L579 680Q581 702 621 702L628 702Q649 702 657.50 696.50Q666 691 666 680L597 20Q594-2 555-2L535-2Q509-2 501 12L222 501Q207 529 200 561L193 560Q193 526 189 494L139 20Q136-2 97-2L90-2M256-235Q246-235 237.50-231.50Q229-228 229-220Q229-211 235.50-199.50Q242-188 250-176Q267-149 276.50-128.50Q286-108 286-83Q286-69 298-60Q310-51 330-51L339-51Q357-51 366.50-58.50Q376-66 376-79Q376-106 353.50-143Q331-180 301.50-207.50Q272-235 256-235Z"  horiz-adv-x="719" vert-adv-y="1000"  />

      
      <glyph glyph-name="uni1E44" unicode="&#x1E44;" d="M90-2Q69-2 60.50 3.50Q52 9 52 20L121 680Q123 702 163 702L184 702Q200 702 209 698Q218 694 224 683L497 205Q512 177 519 145L526 146Q526 180 530 212L579 680Q581 702 621 702L628 702Q649 702 657.50 696.50Q666 691 666 680L597 20Q594-2 555-2L535-2Q509-2 501 12L222 501Q207 529 200 561L193 560Q193 526 189 494L139 20Q136-2 97-2L90-2M395 784Q374 784 365.50 789.50Q357 795 357 806L362 857Q365 879 408 879Q429 879 437.50 873.50Q446 868 446 857L441 806Q438 784 395 784Z"  horiz-adv-x="719" vert-adv-y="1000"  />

      
      <glyph glyph-name="uni014A" unicode="&#x014A;" d="M455-212Q421-212 399-200.50Q377-189 377-171Q377-123 388-123Q391-123 405.50-131.50Q420-140 444-140Q470-140 485-124Q500-108 504-66L511-5L222 501Q207 529 200 561L193 560Q193 526 189 494L139 20Q136-2 97-2L90-2Q69-2 60.50 3.50Q52 9 52 20L121 680Q123 702 163 702L184 702Q200 702 209 698Q218 694 224 683L497 205Q512 177 519 145L526 146Q526 180 530 212L579 680Q581 702 621 702L628 702Q649 702 657.50 696.50Q666 691 666 680L587-74Q579-152 541.50-182Q504-212 455-212Z"  horiz-adv-x="719" vert-adv-y="1000"  />

      
      <glyph glyph-name="uni01CB" unicode="&#x01CB;" d="M892 614Q868 614 858.50 619.50Q849 625 849 637L855 692Q858 716 906 716Q930 716 939.50 710Q949 704 949 692L943 637Q940 614 892 614M90-2Q69-2 60.50 3.50Q52 9 52 20L121 680Q123 702 163 702L184 702Q200 702 209 698Q218 694 224 683L497 205Q512 177 519 145L526 146Q526 180 530 212L579 680Q581 702 621 702L628 702Q649 702 657.50 696.50Q666 691 666 680L597 20Q594-2 555-2L535-2Q509-2 501 12L222 501Q207 529 200 561L193 560Q193 526 189 494L139 20Q136-2 97-2L90-2M730-212Q696-212 674-200.50Q652-189 652-171Q652-123 663-123Q666-123 680.50-131.50Q695-140 719-140Q745-140 760-124Q775-108 779-66L839 503Q842 525 881 525L885 525Q906 525 914.50 519.50Q923 514 923 503L862-74Q854-152 816.50-182Q779-212 730-212Z"  horiz-adv-x="995" vert-adv-y="1000"  />

      
      <glyph glyph-name="unid1" unicode="&#xd1;" d="M90-2Q69-2 60.50 3.50Q52 9 52 20L121 680Q123 702 163 702L184 702Q200 702 209 698Q218 694 224 683L497 205Q512 177 519 145L526 146Q526 180 530 212L579 680Q581 702 621 702L628 702Q649 702 657.50 696.50Q666 691 666 680L597 20Q594-2 555-2L535-2Q509-2 501 12L222 501Q207 529 200 561L193 560Q193 526 189 494L139 20Q136-2 97-2L90-2M246 783Q240 790 240 800Q240 810 249 816Q306 857 356 857Q378 857 393.50 853Q409 849 419 844.50Q429 840 432 839Q462 826 476 826Q491 826 504 831.50Q517 837 533 848Q544 855 551 855Q563 855 570 846L573 842Q580 834 580 826Q580 815 569 806Q516 762 463 762Q437 762 420.50 766Q404 770 388 778Q384 780 369.50 786.50Q355 793 344 793Q331 793 321 789Q311 785 302 780.50Q293 776 290 774Q278 768 269 768Q256 768 248 780L246 783Z"  horiz-adv-x="719" vert-adv-y="1000"  />

      
      <glyph glyph-name="uni4f" unicode="&#x4f;" d="M327-6Q193-6 123 67Q53 140 53 282Q53 396 87 491.50Q121 587 199 646.50Q277 706 402 706Q537 706 607.50 633.50Q678 561 678 420Q678 283 635 187.50Q592 92 513.50 43Q435-6 327-6M335 70Q411 70 467.50 109.50Q524 149 555 225.50Q586 302 586 410Q586 519 537 574.50Q488 630 394 630Q278 630 211 543Q144 456 144 291Q144 182 192.50 126Q241 70 335 70Z"  horiz-adv-x="731" vert-adv-y="1000"  />

      
      <glyph glyph-name="unid3" unicode="&#xd3;" d="M327-6Q193-6 123 67Q53 140 53 282Q53 396 87 491.50Q121 587 199 646.50Q277 706 402 706Q537 706 607.50 633.50Q678 561 678 420Q678 283 635 187.50Q592 92 513.50 43Q435-6 327-6M335 70Q411 70 467.50 109.50Q524 149 555 225.50Q586 302 586 410Q586 519 537 574.50Q488 630 394 630Q278 630 211 543Q144 456 144 291Q144 182 192.50 126Q241 70 335 70M386 762Q364 762 364 771Q364 778 377.50 800Q391 822 433 883Q443 897 458.50 903Q474 909 498 909Q545 909 545 897Q545 891 535 879.50Q525 868 480 821Q480 821 439 780Q430 771 416 766.50Q402 762 386 762Z"  horiz-adv-x="731" vert-adv-y="1000"  />

      
      <glyph glyph-name="uni014E" unicode="&#x014E;" d="M327-6Q193-6 123 67Q53 140 53 282Q53 396 87 491.50Q121 587 199 646.50Q277 706 402 706Q537 706 607.50 633.50Q678 561 678 420Q678 283 635 187.50Q592 92 513.50 43Q435-6 327-6M335 70Q411 70 467.50 109.50Q524 149 555 225.50Q586 302 586 410Q586 519 537 574.50Q488 630 394 630Q278 630 211 543Q144 456 144 291Q144 182 192.50 126Q241 70 335 70M407 762Q352 762 312.50 789Q273 816 273 865Q273 879 276.50 885.50Q280 892 290 892Q298 892 301 889Q304 886 305.50 879.50Q307 873 310 867Q319 847 347 837.50Q375 828 414 828Q453 828 482.50 837.50Q512 847 525 867Q529 874 531.50 880.50Q534 887 537.50 889.50Q541 892 549 892Q563 892 563 880Q563 843 539 816Q515 789 479 775.50Q443 762 407 762Z"  horiz-adv-x="731" vert-adv-y="1000"  />

      
      <glyph glyph-name="unid4" unicode="&#xd4;" d="M327-6Q193-6 123 67Q53 140 53 282Q53 396 87 491.50Q121 587 199 646.50Q277 706 402 706Q537 706 607.50 633.50Q678 561 678 420Q678 283 635 187.50Q592 92 513.50 43Q435-6 327-6M335 70Q411 70 467.50 109.50Q524 149 555 225.50Q586 302 586 410Q586 519 537 574.50Q488 630 394 630Q278 630 211 543Q144 456 144 291Q144 182 192.50 126Q241 70 335 70M302 753Q281 753 281 765Q281 774 288 785L354 873Q370 895 402 895L427 895Q459 895 471 873L518 785Q523 778 523 768Q521 753 497 753L495 753Q476 753 463 766L408 840L339 766Q323 753 304 753L302 753Z"  horiz-adv-x="731" vert-adv-y="1000"  />

      
      <glyph glyph-name="uni1ED0" unicode="&#x1ED0;" d="M535 824Q513 824 513 833Q513 847 568 935Q576 947 592.50 954Q609 961 633 961Q665 961 665 949Q665 945 643.50 920Q622 895 573 842Q558 824 535 824M310 753Q289 753 289 765Q289 774 296 785L362 873Q378 895 410 895L435 895Q459 895 469 873L511 785Q516 778 516 768Q514 753 490 753L488 753Q463 753 456 766L416 840L347 766Q331 753 312 753L310 753M327-6Q193-6 123 67Q53 140 53 282Q53 396 87 491.50Q121 587 199 646.50Q277 706 402 706Q537 706 607.50 633.50Q678 561 678 420Q678 283 635 187.50Q592 92 513.50 43Q435-6 327-6M335 70Q411 70 467.50 109.50Q524 149 555 225.50Q586 302 586 410Q586 519 537 574.50Q488 630 394 630Q278 630 211 543Q144 456 144 291Q144 182 192.50 126Q241 70 335 70Z"  horiz-adv-x="731" vert-adv-y="1000"  />

      
      <glyph glyph-name="uni1ED8" unicode="&#x1ED8;" d="M327-6Q193-6 123 67Q53 140 53 282Q53 396 87 491.50Q121 587 199 646.50Q277 706 402 706Q537 706 607.50 633.50Q678 561 678 420Q678 283 635 187.50Q592 92 513.50 43Q435-6 327-6M335 70Q411 70 467.50 109.50Q524 149 555 225.50Q586 302 586 410Q586 519 537 574.50Q488 630 394 630Q278 630 211 543Q144 456 144 291Q144 182 192.50 126Q241 70 335 70M306-175Q285-175 276.50-169.50Q268-164 268-153L273-102Q276-80 319-80Q340-80 348.50-85.50Q357-91 357-102L352-153Q349-175 306-175M302 753Q281 753 281 765Q281 774 288 785L354 873Q370 895 402 895L427 895Q459 895 471 873L518 785Q523 778 523 768Q521 753 497 753L495 753Q476 753 463 766L408 840L339 766Q323 753 304 753L302 753Z"  horiz-adv-x="731" vert-adv-y="1000"  />

      
      <glyph glyph-name="uni1ED2" unicode="&#x1ED2;" d="M569 824Q544 824 533 842Q493 904 482 923.50Q471 943 470 952Q470 959 478 961.50Q486 964 507 964Q545 964 555 938Q592 848 592 833Q592 824 569 824M310 753Q289 753 289 765Q289 774 296 785L362 873Q378 895 410 895L435 895Q459 895 469 873L511 785Q516 778 516 768Q514 753 490 753L488 753Q463 753 456 766L416 840L347 766Q331 753 312 753L310 753M327-6Q193-6 123 67Q53 140 53 282Q53 396 87 491.50Q121 587 199 646.50Q277 706 402 706Q537 706 607.50 633.50Q678 561 678 420Q678 283 635 187.50Q592 92 513.50 43Q435-6 327-6M335 70Q411 70 467.50 109.50Q524 149 555 225.50Q586 302 586 410Q586 519 537 574.50Q488 630 394 630Q278 630 211 543Q144 456 144 291Q144 182 192.50 126Q241 70 335 70Z"  horiz-adv-x="731" vert-adv-y="1000"  />

      
      <glyph glyph-name="uni1ED4" unicode="&#x1ED4;" d="M548 825Q533 825 523.50 831.50Q514 838 514 845Q514 850 519.50 854.50Q525 859 541 867Q576 885 576 904Q576 917 567 924Q558 931 542 931Q520 931 508.50 924.50Q497 918 494 918Q488 918 481 930.50Q474 943 474 951Q474 961 501 970Q528 979 555 979Q586 979 610 962.50Q634 946 634 911Q634 891 622.50 876.50Q611 862 592 847Q582 839 567.50 832Q553 825 548 825M310 753Q289 753 289 765Q289 774 296 785L362 873Q378 895 410 895L435 895Q459 895 469 873L511 785Q516 778 516 768Q514 753 490 753L488 753Q463 753 456 766L416 840L347 766Q331 753 312 753L310 753M327-6Q193-6 123 67Q53 140 53 282Q53 396 87 491.50Q121 587 199 646.50Q277 706 402 706Q537 706 607.50 633.50Q678 561 678 420Q678 283 635 187.50Q592 92 513.50 43Q435-6 327-6M335 70Q411 70 467.50 109.50Q524 149 555 225.50Q586 302 586 410Q586 519 537 574.50Q488 630 394 630Q278 630 211 543Q144 456 144 291Q144 182 192.50 126Q241 70 335 70Z"  horiz-adv-x="731" vert-adv-y="1000"  />

      
      <glyph glyph-name="uni1ED6" unicode="&#x1ED6;" d="M286 914Q281 922 281 931Q281 941 289 947Q340 988 386 988Q417 988 435 979.50Q453 971 455 970Q483 957 495 957Q509 957 521 962.50Q533 968 547 979Q558 986 564 986Q573 986 581 977L584 973Q590 964 590 957Q590 947 580 937Q532 893 484 893Q461 893 445.50 897Q430 901 415 909Q412 911 398.50 917.50Q385 924 375 924Q364 924 355 920.50Q346 917 338 912Q330 907 326 905Q315 899 307 899Q295 899 288 911L286 914M304 754Q283 754 283 766Q283 776 295 788L357 849Q371 860 381.50 865.50Q392 871 405 871L430 871Q454 871 474 849L520 786Q525 779 525 769Q523 754 499 754L497 754Q482 754 465 767L411 816L341 767Q333 762 324 758Q315 754 306 754L304 754M327-6Q193-6 123 67Q53 140 53 282Q53 396 87 491.50Q121 587 199 646.50Q277 706 402 706Q537 706 607.50 633.50Q678 561 678 420Q678 283 635 187.50Q592 92 513.50 43Q435-6 327-6M335 70Q411 70 467.50 109.50Q524 149 555 225.50Q586 302 586 410Q586 519 537 574.50Q488 630 394 630Q278 630 211 543Q144 456 144 291Q144 182 192.50 126Q241 70 335 70Z"  horiz-adv-x="731" vert-adv-y="1000"  />

      
      <glyph glyph-name="unid6" unicode="&#xd6;" d="M327-6Q193-6 123 67Q53 140 53 282Q53 396 87 491.50Q121 587 199 646.50Q277 706 402 706Q537 706 607.50 633.50Q678 561 678 420Q678 283 635 187.50Q592 92 513.50 43Q435-6 327-6M335 70Q411 70 467.50 109.50Q524 149 555 225.50Q586 302 586 410Q586 519 537 574.50Q488 630 394 630Q278 630 211 543Q144 456 144 291Q144 182 192.50 126Q241 70 335 70M334 784Q313 784 304.50 789.50Q296 795 296 806L301 857Q304 879 347 879Q368 879 376.50 873.50Q385 868 385 857L380 806Q377 784 334 784M478 784Q457 784 448.50 789.50Q440 795 440 806L445 857Q447 879 491 879Q512 879 520.50 873.50Q529 868 529 857L524 806Q521 784 478 784Z"  horiz-adv-x="731" vert-adv-y="1000"  />

      
      <glyph glyph-name="uni1ECC" unicode="&#x1ECC;" d="M327-6Q193-6 123 67Q53 140 53 282Q53 396 87 491.50Q121 587 199 646.50Q277 706 402 706Q537 706 607.50 633.50Q678 561 678 420Q678 283 635 187.50Q592 92 513.50 43Q435-6 327-6M335 70Q411 70 467.50 109.50Q524 149 555 225.50Q586 302 586 410Q586 519 537 574.50Q488 630 394 630Q278 630 211 543Q144 456 144 291Q144 182 192.50 126Q241 70 335 70M306-175Q285-175 276.50-169.50Q268-164 268-153L273-102Q276-80 319-80Q340-80 348.50-85.50Q357-91 357-102L352-153Q349-175 306-175Z"  horiz-adv-x="731" vert-adv-y="1000"  />

      
      <glyph glyph-name="unid2" unicode="&#xd2;" d="M327-6Q193-6 123 67Q53 140 53 282Q53 396 87 491.50Q121 587 199 646.50Q277 706 402 706Q537 706 607.50 633.50Q678 561 678 420Q678 283 635 187.50Q592 92 513.50 43Q435-6 327-6M335 70Q411 70 467.50 109.50Q524 149 555 225.50Q586 302 586 410Q586 519 537 574.50Q488 630 394 630Q278 630 211 543Q144 456 144 291Q144 182 192.50 126Q241 70 335 70M428 762Q412 762 398 766.50Q384 771 377 780L342 819Q301 866 292 878Q283 890 283 897Q284 904 295.50 906.50Q307 909 331 909Q355 909 370 903Q385 897 393 883Q428 822 439.50 800Q451 778 451 771Q451 762 428 762Z"  horiz-adv-x="731" vert-adv-y="1000"  />

      
      <glyph glyph-name="uni1ECE" unicode="&#x1ECE;" d="M327-6Q193-6 123 67Q53 140 53 282Q53 396 87 491.50Q121 587 199 646.50Q277 706 402 706Q537 706 607.50 633.50Q678 561 678 420Q678 283 635 187.50Q592 92 513.50 43Q435-6 327-6M335 70Q411 70 467.50 109.50Q524 149 555 225.50Q586 302 586 410Q586 519 537 574.50Q488 630 394 630Q278 630 211 543Q144 456 144 291Q144 182 192.50 126Q241 70 335 70M413 740Q397 740 385.50 745Q374 750 374 757Q374 764 381 771.50Q388 779 401 788Q422 803 434 817Q446 831 446 851Q446 863 436.50 869.50Q427 876 412 876Q390 876 378.50 869.50Q367 863 364 863Q358 863 351 875.50Q344 888 344 896Q344 906 371.50 916.50Q399 927 425 927Q457 927 484.50 910Q512 893 512 857Q512 826 491.50 799.50Q471 773 445.50 756.50Q420 740 413 740Z"  horiz-adv-x="731" vert-adv-y="1000"  />

      
      <glyph glyph-name="uni01A0" unicode="&#x01A0;" d="M327-6Q193-6 123 67Q53 140 53 282Q53 396 87 491.50Q121 587 199 646.50Q277 706 402 706Q430 706 454 702.50Q478 699 513 691Q553 682 574 682Q598 683 612.50 693Q627 703 627 722Q627 736 614 758Q613 761 609.50 767Q606 773 606 777Q606 787 617 793L643 809Q648 813 655 813Q671 813 680.50 791.50Q690 770 690 746Q690 710 663 683Q636 656 590 650Q678 579 678 420Q678 283 635 187.50Q592 92 513.50 43Q435-6 327-6M335 70Q411 70 467.50 109.50Q524 149 555 225.50Q586 302 586 410Q586 519 537 574.50Q488 630 394 630Q278 630 211 543Q144 456 144 291Q144 182 192.50 126Q241 70 335 70Z"  horiz-adv-x="731" vert-adv-y="1000"  />

      
      <glyph glyph-name="uni1EDA" unicode="&#x1EDA;" d="M327-6Q193-6 123 67Q53 140 53 282Q53 396 87 491.50Q121 587 199 646.50Q277 706 402 706Q430 706 454 702.50Q478 699 513 691Q553 682 574 682Q598 683 612.50 693Q627 703 627 722Q627 736 614 758Q613 761 609.50 767Q606 773 606 777Q606 787 617 793L643 809Q648 813 655 813Q671 813 680.50 791.50Q690 770 690 746Q690 710 663 683Q636 656 590 650Q678 579 678 420Q678 283 635 187.50Q592 92 513.50 43Q435-6 327-6M335 70Q411 70 467.50 109.50Q524 149 555 225.50Q586 302 586 410Q586 519 537 574.50Q488 630 394 630Q278 630 211 543Q144 456 144 291Q144 182 192.50 126Q241 70 335 70M391 762Q369 762 369 771Q369 778 382.50 800Q396 822 438 883Q448 897 463.50 903Q479 909 503 909Q550 909 550 897Q550 891 540 879.50Q530 868 485 821Q485 821 444 780Q435 771 421 766.50Q407 762 391 762Z"  horiz-adv-x="731" vert-adv-y="1000"  />

      
      <glyph glyph-name="uni1EE2" unicode="&#x1EE2;" d="M327-6Q193-6 123 67Q53 140 53 282Q53 396 87 491.50Q121 587 199 646.50Q277 706 402 706Q430 706 454 702.50Q478 699 513 691Q553 682 574 682Q598 683 612.50 693Q627 703 627 722Q627 736 614 758Q613 761 609.50 767Q606 773 606 777Q606 787 617 793L643 809Q648 813 655 813Q671 813 680.50 791.50Q690 770 690 746Q690 710 663 683Q636 656 590 650Q678 579 678 420Q678 283 635 187.50Q592 92 513.50 43Q435-6 327-6M335 70Q411 70 467.50 109.50Q524 149 555 225.50Q586 302 586 410Q586 519 537 574.50Q488 630 394 630Q278 630 211 543Q144 456 144 291Q144 182 192.50 126Q241 70 335 70M306-175Q285-175 276.50-169.50Q268-164 268-153L273-102Q276-80 319-80Q340-80 348.50-85.50Q357-91 357-102L352-153Q349-175 306-175Z"  horiz-adv-x="731" vert-adv-y="1000"  />

      
      <glyph glyph-name="uni1EDC" unicode="&#x1EDC;" d="M327-6Q193-6 123 67Q53 140 53 282Q53 396 87 491.50Q121 587 199 646.50Q277 706 402 706Q430 706 454 702.50Q478 699 513 691Q553 682 574 682Q598 683 612.50 693Q627 703 627 722Q627 736 614 758Q613 761 609.50 767Q606 773 606 777Q606 787 617 793L643 809Q648 813 655 813Q671 813 680.50 791.50Q690 770 690 746Q690 710 663 683Q636 656 590 650Q678 579 678 420Q678 283 635 187.50Q592 92 513.50 43Q435-6 327-6M335 70Q411 70 467.50 109.50Q524 149 555 225.50Q586 302 586 410Q586 519 537 574.50Q488 630 394 630Q278 630 211 543Q144 456 144 291Q144 182 192.50 126Q241 70 335 70M428 762Q412 762 398 766.50Q384 771 377 780L342 819Q301 866 292 878Q283 890 283 897Q284 904 295.50 906.50Q307 909 331 909Q355 909 370 903Q385 897 393 883Q428 822 439.50 800Q451 778 451 771Q451 762 428 762Z"  horiz-adv-x="731" vert-adv-y="1000"  />

      
      <glyph glyph-name="uni1EDE" unicode="&#x1EDE;" d="M327-6Q193-6 123 67Q53 140 53 282Q53 396 87 491.50Q121 587 199 646.50Q277 706 402 706Q430 706 454 702.50Q478 699 513 691Q553 682 574 682Q598 683 612.50 693Q627 703 627 722Q627 736 614 758Q613 761 609.50 767Q606 773 606 777Q606 787 617 793L643 809Q648 813 655 813Q671 813 680.50 791.50Q690 770 690 746Q690 710 663 683Q636 656 590 650Q678 579 678 420Q678 283 635 187.50Q592 92 513.50 43Q435-6 327-6M335 70Q411 70 467.50 109.50Q524 149 555 225.50Q586 302 586 410Q586 519 537 574.50Q488 630 394 630Q278 630 211 543Q144 456 144 291Q144 182 192.50 126Q241 70 335 70M413 740Q397 740 385.50 745Q374 750 374 757Q374 764 381 771.50Q388 779 401 788Q422 803 434 817Q446 831 446 851Q446 863 436.50 869.50Q427 876 412 876Q390 876 378.50 869.50Q367 863 364 863Q358 863 351 875.50Q344 888 344 896Q344 906 371.50 916.50Q399 927 425 927Q457 927 484.50 910Q512 893 512 857Q512 826 491.50 799.50Q471 773 445.50 756.50Q420 740 413 740Z"  horiz-adv-x="731" vert-adv-y="1000"  />

      
      <glyph glyph-name="uni1EE0" unicode="&#x1EE0;" d="M271 783Q266 791 266 800Q266 811 274 816Q325 857 370 857Q399 857 417.50 848.50Q436 840 439 839Q465 826 478 826Q492 826 503 831.50Q514 837 529 848Q540 855 546 855Q556 855 563 846L565 842Q572 834 572 826Q572 816 562 806Q514 762 466 762Q443 762 428 766Q413 770 399 778Q396 780 382.50 786.50Q369 793 359 793Q348 793 338.50 789Q329 785 321 780Q313 775 311 774Q300 768 292 768Q279 768 273 780L271 783M327-6Q193-6 123 67Q53 140 53 282Q53 396 87 491.50Q121 587 199 646.50Q277 706 402 706Q430 706 454 702.50Q478 699 513 691Q553 682 574 682Q598 683 612.50 693Q627 703 627 722Q627 736 614 758Q613 761 609.50 767Q606 773 606 777Q606 787 617 793L643 809Q648 813 655 813Q671 813 680.50 791.50Q690 770 690 746Q690 710 663 683Q636 656 590 650Q678 579 678 420Q678 283 635 187.50Q592 92 513.50 43Q435-6 327-6M335 70Q411 70 467.50 109.50Q524 149 555 225.50Q586 302 586 410Q586 519 537 574.50Q488 630 394 630Q278 630 211 543Q144 456 144 291Q144 182 192.50 126Q241 70 335 70Z"  horiz-adv-x="731" vert-adv-y="1000"  />

      
      <glyph glyph-name="uni0150" unicode="&#x0150;" d="M327-6Q193-6 123 67Q53 140 53 282Q53 396 87 491.50Q121 587 199 646.50Q277 706 402 706Q537 706 607.50 633.50Q678 561 678 420Q678 283 635 187.50Q592 92 513.50 43Q435-6 327-6M335 70Q411 70 467.50 109.50Q524 149 555 225.50Q586 302 586 410Q586 519 537 574.50Q488 630 394 630Q278 630 211 543Q144 456 144 291Q144 182 192.50 126Q241 70 335 70M324 762Q302 762 302 771Q302 778 315.50 800Q329 822 371 883Q381 897 396.50 903Q412 909 436 909Q483 909 483 897Q483 891 473 879.50Q463 868 418 821Q418 821 377 780Q368 771 354 766.50Q340 762 324 762M470 762Q448 762 448 771Q448 778 461.50 800Q475 822 517 883Q527 897 542.50 903Q558 909 582 909Q629 909 629 897Q629 891 619 879.50Q609 868 564 821Q564 821 523 780Q514 771 500 766.50Q486 762 470 762Z"  horiz-adv-x="731" vert-adv-y="1000"  />

      
      <glyph glyph-name="uni014C" unicode="&#x014C;" d="M327-6Q193-6 123 67Q53 140 53 282Q53 396 87 491.50Q121 587 199 646.50Q277 706 402 706Q537 706 607.50 633.50Q678 561 678 420Q678 283 635 187.50Q592 92 513.50 43Q435-6 327-6M335 70Q411 70 467.50 109.50Q524 149 555 225.50Q586 302 586 410Q586 519 537 574.50Q488 630 394 630Q278 630 211 543Q144 456 144 291Q144 182 192.50 126Q241 70 335 70M285 789Q275 789 271.50 796Q268 803 268 816L268 823Q271 860 293 860L519 860Q529 860 532.50 853.50Q536 847 536 834L536 828Q536 813 530.50 801Q525 789 511 789L285 789Z"  horiz-adv-x="731" vert-adv-y="1000"  />

      
      <glyph glyph-name="uni01EA" unicode="&#x01EA;" d="M678 420Q678 240 605 132.50Q532 25 402 1L403 0Q395-15 389.50-33.50Q384-52 384-70Q384-96 401-104.50Q418-113 442-113Q462-113 482.50-104Q503-95 506-95Q512-95 512-108Q512-138 500-154Q481-183 423-183Q361-183 338-158.50Q315-134 315-103Q315-84 322.50-56.50Q330-29 347-6L327-6Q193-6 123 67Q53 140 53 282Q53 396 87 491.50Q121 587 199 646.50Q277 706 402 706Q537 706 607.50 633.50Q678 561 678 420M335 70Q411 70 467.50 109.50Q524 149 555 225.50Q586 302 586 410Q586 519 537 574.50Q488 630 394 630Q278 630 211 543Q144 456 144 291Q144 182 192.50 126Q241 70 335 70Z"  horiz-adv-x="731" vert-adv-y="1000"  />

      
      <glyph glyph-name="unid8" unicode="&#xd8;" d="M703 683Q703 676 696 669L631 605Q678 534 678 420Q678 283 635 187.50Q592 92 513.50 43Q435-6 327-6Q178-6 108 84L33 9Q25 1 19 1Q13 1 6 7.50Q-1 14-1 21Q-1 27 7 35L88 116Q53 183 53 282Q53 396 87 491.50Q121 587 199 646.50Q277 706 402 706Q537 706 608 634L669 695Q676 702 683 702Q690 702 696.50 696Q703 690 703 683M144 291Q144 230 159 187L542 568Q494 630 394 630Q278 630 211 543Q144 456 144 291M586 410Q586 487 562 536L175 151Q221 70 335 70Q411 70 467.50 109.50Q524 149 555 225.50Q586 302 586 410Z"  horiz-adv-x="731" vert-adv-y="1000"  />

      
      <glyph glyph-name="uni01FE" unicode="&#x01FE;" d="M703 683Q703 676 696 669L631 605Q678 534 678 420Q678 283 635 187.50Q592 92 513.50 43Q435-6 327-6Q178-6 108 84L33 9Q25 1 19 1Q13 1 6 7.50Q-1 14-1 21Q-1 27 7 35L88 116Q53 183 53 282Q53 396 87 491.50Q121 587 199 646.50Q277 706 402 706Q537 706 608 634L669 695Q676 702 683 702Q690 702 696.50 696Q703 690 703 683M144 291Q144 230 159 187L542 568Q494 630 394 630Q278 630 211 543Q144 456 144 291M586 410Q586 487 562 536L175 151Q221 70 335 70Q411 70 467.50 109.50Q524 149 555 225.50Q586 302 586 410M390 762Q368 762 368 771Q368 778 381.50 800Q395 822 437 883Q447 897 462.50 903Q478 909 502 909Q549 909 549 897Q549 891 539 879.50Q529 868 484 821Q484 821 443 780Q434 771 420 766.50Q406 762 390 762Z"  horiz-adv-x="731" vert-adv-y="1000"  />

      
      <glyph glyph-name="unid5" unicode="&#xd5;" d="M327-6Q193-6 123 67Q53 140 53 282Q53 396 87 491.50Q121 587 199 646.50Q277 706 402 706Q537 706 607.50 633.50Q678 561 678 420Q678 283 635 187.50Q592 92 513.50 43Q435-6 327-6M335 70Q411 70 467.50 109.50Q524 149 555 225.50Q586 302 586 410Q586 519 537 574.50Q488 630 394 630Q278 630 211 543Q144 456 144 291Q144 182 192.50 126Q241 70 335 70M257 783Q251 790 251 800Q251 810 260 816Q317 857 367 857Q389 857 404.50 853Q420 849 430 844.50Q440 840 443 839Q473 826 487 826Q502 826 515 831.50Q528 837 544 848Q555 855 562 855Q574 855 581 846L584 842Q591 834 591 826Q591 815 580 806Q527 762 474 762Q448 762 431.50 766Q415 770 399 778Q395 780 380.50 786.50Q366 793 355 793Q342 793 332 789Q322 785 313 780.50Q304 776 301 774Q289 768 280 768Q267 768 259 780L257 783Z"  horiz-adv-x="731" vert-adv-y="1000"  />

      
      <glyph glyph-name="uni0152" unicode="&#x0152;" d="M1004 700Q1021 700 1021 678L1021 672Q1021 650 1016 637Q1011 624 996 624L701 624L677 396L941 396Q958 396 958 374L958 366Q958 320 933 320L669 320L644 76L940 76Q957 76 957 54L957 50Q957 27 952.50 13.50Q948 0 932 0L578 0Q548 0 551 24L557 74Q514 35 455.50 14.50Q397-6 327-6Q193-6 123 67Q53 140 53 282Q53 489 145.50 597.50Q238 706 402 706Q470 706 523.50 686Q577 666 613 629L618 670Q619 686 627 693Q635 700 651 700L1004 700M335 70Q411 70 467.50 109.50Q524 149 555 225.50Q586 302 586 410Q586 519 537 574.50Q488 630 394 630Q278 630 211 543Q144 456 144 291Q144 182 192.50 126Q241 70 335 70Z"  horiz-adv-x="1021" vert-adv-y="1000"  />

      
      <glyph glyph-name="uni50" unicode="&#x50;" d="M88-2Q67-2 58.50 3.50Q50 9 50 20L118 670Q119 686 127 693Q135 700 151 700L354 700Q435 700 497 664Q559 628 559 533Q559 438 515 385.50Q471 333 417 315.50Q363 298 322 298L167 298L138 20Q135-2 96-2L88-2M331 374Q357 374 388 386.50Q419 399 443 431.50Q467 464 467 521Q467 578 430.50 601Q394 624 343 624L201 624L175 374L331 374Z"  horiz-adv-x="570" vert-adv-y="1000"  />

      
      <glyph glyph-name="unide" unicode="&#xde;" d="M88-2Q67-2 58.50 3.50Q50 9 50 20L119 680Q122 702 161 702L169 702Q190 702 198.50 696.50Q207 691 207 680L196 578L341 578Q422 578 484 542Q546 506 546 411Q546 315 504.50 263Q463 211 410 193.50Q357 176 309 176L154 176L138 20Q135-2 96-2L88-2M318 252Q344 252 375 264.50Q406 277 430 309.50Q454 342 454 399Q454 456 417.50 479Q381 502 330 502L188 502L162 252L318 252Z"  horiz-adv-x="567" vert-adv-y="1000"  />

      
      <glyph glyph-name="uni51" unicode="&#x51;" d="M629-157Q616-157 286-22L217 6Q60 67 60 278Q60 415 102.50 511.50Q145 608 223.50 657Q302 706 410 706Q545 706 615 632.50Q685 559 685 417Q685 248 620.50 141Q556 34 444 5L444 1L638-62Q645-65 647.50-69Q650-73 650-82Q650-126 644.50-141.50Q639-157 629-157M343 67Q418 67 474.50 106.50Q531 146 562 221.50Q593 297 593 404Q593 514 544 572Q495 630 402 630Q328 630 271.50 590.50Q215 551 183.50 474Q152 397 152 290Q152 182 201.50 124.50Q251 67 343 67Z"  horiz-adv-x="731" vert-adv-y="1000"  />

      
      <glyph glyph-name="uni52" unicode="&#x52;" d="M88-2Q67-2 58.50 3.50Q50 9 50 20L118 670Q119 686 127 693Q135 700 151 700L319 700Q430 700 486.50 663.50Q543 627 543 548Q543 476 507 427Q471 378 409 354L409 350Q435 340 451.50 310.50Q468 281 485 225L543 28Q545 20 545 17Q545-2 501-2L491-2Q456-2 452 14L397 210Q381 267 350 287.50Q319 308 258 308L168 308L138 20Q136 9 125.50 3.50Q115-2 96-2L88-2M308 384Q347 384 379.50 403.50Q412 423 431 455.50Q450 488 450 525Q450 575 417 599.50Q384 624 326 624L201 624L176 384L308 384Z"  horiz-adv-x="610" vert-adv-y="1000"  />

      
      <glyph glyph-name="uni0154" unicode="&#x0154;" d="M88-2Q67-2 58.50 3.50Q50 9 50 20L118 670Q119 686 127 693Q135 700 151 700L319 700Q430 700 486.50 663.50Q543 627 543 548Q543 476 507 427Q471 378 409 354L409 350Q435 340 451.50 310.50Q468 281 485 225L543 28Q545 20 545 17Q545-2 501-2L491-2Q456-2 452 14L397 210Q381 267 350 287.50Q319 308 258 308L168 308L138 20Q136 9 125.50 3.50Q115-2 96-2L88-2M308 384Q347 384 379.50 403.50Q412 423 431 455.50Q450 488 450 525Q450 575 417 599.50Q384 624 326 624L201 624L176 384L308 384M289 762Q267 762 267 771Q267 778 280.50 800Q294 822 336 883Q346 897 361.50 903Q377 909 401 909Q448 909 448 897Q448 891 438 879.50Q428 868 383 821Q383 821 342 780Q333 771 319 766.50Q305 762 289 762Z"  horiz-adv-x="610" vert-adv-y="1000"  />

      
      <glyph glyph-name="uni0158" unicode="&#x0158;" d="M88-2Q67-2 58.50 3.50Q50 9 50 20L118 670Q119 686 127 693Q135 700 151 700L319 700Q430 700 486.50 663.50Q543 627 543 548Q543 476 507 427Q471 378 409 354L409 350Q435 340 451.50 310.50Q468 281 485 225L543 28Q545 20 545 17Q545-2 501-2L491-2Q456-2 452 14L397 210Q381 267 350 287.50Q319 308 258 308L168 308L138 20Q136 9 125.50 3.50Q115-2 96-2L88-2M308 384Q347 384 379.50 403.50Q412 423 431 455.50Q450 488 450 525Q450 575 417 599.50Q384 624 326 624L201 624L176 384L308 384M298 759Q266 759 254 781L208 869Q203 878 203 887Q205 901 228 901L230 901Q250 901 263 888L316 814L387 888Q403 901 421 901L423 901Q445 901 445 887Q445 879 438 869L371 781Q355 759 323 759L298 759Z"  horiz-adv-x="610" vert-adv-y="1000"  />

      
      <glyph glyph-name="uni0156" unicode="&#x0156;" d="M88-2Q67-2 58.50 3.50Q50 9 50 20L118 670Q119 686 127 693Q135 700 151 700L319 700Q430 700 486.50 663.50Q543 627 543 548Q543 476 507 427Q471 378 409 354L409 350Q435 340 451.50 310.50Q468 281 485 225L543 28Q545 20 545 17Q545-2 501-2L491-2Q456-2 452 14L397 210Q381 267 350 287.50Q319 308 258 308L168 308L138 20Q136 9 125.50 3.50Q115-2 96-2L88-2M308 384Q347 384 379.50 403.50Q412 423 431 455.50Q450 488 450 525Q450 575 417 599.50Q384 624 326 624L201 624L176 384L308 384M195-235Q185-235 176.50-231.50Q168-228 168-220Q168-211 174.50-199.50Q181-188 189-176Q206-149 215.50-128.50Q225-108 225-83Q225-69 237-60Q249-51 269-51L278-51Q296-51 305.50-58.50Q315-66 315-79Q315-106 292.50-143Q270-180 240.50-207.50Q211-235 195-235Z"  horiz-adv-x="610" vert-adv-y="1000"  />

      
      <glyph glyph-name="uni1E5A" unicode="&#x1E5A;" d="M88-2Q67-2 58.50 3.50Q50 9 50 20L118 670Q119 686 127 693Q135 700 151 700L319 700Q430 700 486.50 663.50Q543 627 543 548Q543 476 507 427Q471 378 409 354L409 350Q435 340 451.50 310.50Q468 281 485 225L543 28Q545 20 545 17Q545-2 501-2L491-2Q456-2 452 14L397 210Q381 267 350 287.50Q319 308 258 308L168 308L138 20Q136 9 125.50 3.50Q115-2 96-2L88-2M308 384Q347 384 379.50 403.50Q412 423 431 455.50Q450 488 450 525Q450 575 417 599.50Q384 624 326 624L201 624L176 384L308 384M254-175Q233-175 224.50-169.50Q216-164 216-153L221-102Q224-80 267-80Q288-80 296.50-85.50Q305-91 305-102L300-153Q297-175 254-175Z"  horiz-adv-x="610" vert-adv-y="1000"  />

      
      <glyph glyph-name="uni53" unicode="&#x53;" d="M206-6Q174-6 131.50 1Q89 8 63 22Q36 36 36 56Q36 121 52 121Q54 121 61 117Q68 113 73 110Q136 70 214 70Q275 70 317 107Q359 144 359 201Q359 233 341.50 254.50Q324 276 298.50 289.50Q273 303 227 322Q175 343 143.50 361.50Q112 380 89.50 414Q67 448 67 501Q67 561 97.50 607.50Q128 654 183 680Q238 706 309 706Q341 706 380.50 697Q420 688 443 674Q464 661 464 646Q464 636 448.50 614Q433 592 426 592Q422 592 411.50 597.50Q401 603 394 607Q352 630 299 630Q239 630 198 599Q157 568 157 511Q157 480 173.50 459.50Q190 439 214.50 427Q239 415 283 398Q336 377 369.50 357Q403 337 426.50 302.50Q450 268 450 215Q450 148 419 98Q388 48 332.50 21Q277-6 206-6Z"  horiz-adv-x="500" vert-adv-y="1000"  />

      
      <glyph glyph-name="uni015A" unicode="&#x015A;" d="M206-6Q174-6 131.50 1Q89 8 63 22Q36 36 36 56Q36 121 52 121Q54 121 61 117Q68 113 73 110Q136 70 214 70Q275 70 317 107Q359 144 359 201Q359 233 341.50 254.50Q324 276 298.50 289.50Q273 303 227 322Q175 343 143.50 361.50Q112 380 89.50 414Q67 448 67 501Q67 561 97.50 607.50Q128 654 183 680Q238 706 309 706Q341 706 380.50 697Q420 688 443 674Q464 661 464 646Q464 636 448.50 614Q433 592 426 592Q422 592 411.50 597.50Q401 603 394 607Q352 630 299 630Q239 630 198 599Q157 568 157 511Q157 480 173.50 459.50Q190 439 214.50 427Q239 415 283 398Q336 377 369.50 357Q403 337 426.50 302.50Q450 268 450 215Q450 148 419 98Q388 48 332.50 21Q277-6 206-6M284 762Q262 762 262 771Q262 778 275.50 800Q289 822 331 883Q341 897 356.50 903Q372 909 396 909Q443 909 443 897Q443 891 433 879.50Q423 868 378 821Q378 821 337 780Q328 771 314 766.50Q300 762 284 762Z"  horiz-adv-x="500" vert-adv-y="1000"  />

      
      <glyph glyph-name="uni0160" unicode="&#x0160;" d="M206-6Q174-6 131.50 1Q89 8 63 22Q36 36 36 56Q36 121 52 121Q54 121 61 117Q68 113 73 110Q136 70 214 70Q275 70 317 107Q359 144 359 201Q359 233 341.50 254.50Q324 276 298.50 289.50Q273 303 227 322Q175 343 143.50 361.50Q112 380 89.50 414Q67 448 67 501Q67 561 97.50 607.50Q128 654 183 680Q238 706 309 706Q341 706 380.50 697Q420 688 443 674Q464 661 464 646Q464 636 448.50 614Q433 592 426 592Q422 592 411.50 597.50Q401 603 394 607Q352 630 299 630Q239 630 198 599Q157 568 157 511Q157 480 173.50 459.50Q190 439 214.50 427Q239 415 283 398Q336 377 369.50 357Q403 337 426.50 302.50Q450 268 450 215Q450 148 419 98Q388 48 332.50 21Q277-6 206-6M293 759Q261 759 249 781L203 869Q198 878 198 887Q200 901 223 901L225 901Q245 901 258 888L311 814L382 888Q398 901 416 901L418 901Q440 901 440 887Q440 879 433 869L366 781Q350 759 318 759L293 759Z"  horiz-adv-x="500" vert-adv-y="1000"  />

      
      <glyph glyph-name="uni015E" unicode="&#x015E;" d="M283 398Q336 377 369.50 357Q403 337 426.50 302.50Q450 268 450 215Q450 122 392.50 63.50Q335 5 240-4L222-49L226-49Q253-49 278.50-62Q304-75 304-111Q304-169 266.50-189.50Q229-210 179-210Q147-210 114.50-201Q82-192 82-169Q82-147 85.50-141.50Q89-136 94-136Q96-137 116-149Q136-161 172-161Q232-161 232-121Q232-107 223-100.50Q214-94 197-89Q184-84 178-80Q172-76 172-69Q173-66 179-50.50Q185-35 197-6Q165-5 126.50 2Q88 9 63 22Q36 36 36 56Q36 121 52 121Q54 121 61 117Q68 113 73 110Q136 70 214 70Q275 70 317 107Q359 144 359 201Q359 233 341.50 254.50Q324 276 298.50 289.50Q273 303 227 322Q175 343 143.50 361.50Q112 380 89.50 414Q67 448 67 501Q67 561 97.50 607.50Q128 654 183 680Q238 706 309 706Q341 706 380.50 697Q420 688 443 674Q464 661 464 646Q464 636 448.50 614Q433 592 426 592Q422 592 411.50 597.50Q401 603 394 607Q352 630 299 630Q239 630 198 599Q157 568 157 511Q157 480 173.50 459.50Q190 439 214.50 427Q239 415 283 398Z"  horiz-adv-x="500" vert-adv-y="1000"  />

      
      <glyph glyph-name="uni015C" unicode="&#x015C;" d="M206-6Q174-6 131.50 1Q89 8 63 22Q36 36 36 56Q36 121 52 121Q54 121 61 117Q68 113 73 110Q136 70 214 70Q275 70 317 107Q359 144 359 201Q359 233 341.50 254.50Q324 276 298.50 289.50Q273 303 227 322Q175 343 143.50 361.50Q112 380 89.50 414Q67 448 67 501Q67 561 97.50 607.50Q128 654 183 680Q238 706 309 706Q341 706 380.50 697Q420 688 443 674Q464 661 464 646Q464 636 448.50 614Q433 592 426 592Q422 592 411.50 597.50Q401 603 394 607Q352 630 299 630Q239 630 198 599Q157 568 157 511Q157 480 173.50 459.50Q190 439 214.50 427Q239 415 283 398Q336 377 369.50 357Q403 337 426.50 302.50Q450 268 450 215Q450 148 419 98Q388 48 332.50 21Q277-6 206-6M200 753Q179 753 179 765Q179 774 186 785L252 873Q268 895 300 895L325 895Q357 895 369 873L416 785Q421 778 421 768Q419 753 395 753L393 753Q374 753 361 766L306 840L237 766Q221 753 202 753L200 753Z"  horiz-adv-x="500" vert-adv-y="1000"  />

      
      <glyph glyph-name="uni0218" unicode="&#x0218;" d="M206-6Q174-6 131.50 1Q89 8 63 22Q36 36 36 56Q36 121 52 121Q54 121 61 117Q68 113 73 110Q136 70 214 70Q275 70 317 107Q359 144 359 201Q359 233 341.50 254.50Q324 276 298.50 289.50Q273 303 227 322Q175 343 143.50 361.50Q112 380 89.50 414Q67 448 67 501Q67 561 97.50 607.50Q128 654 183 680Q238 706 309 706Q341 706 380.50 697Q420 688 443 674Q464 661 464 646Q464 636 448.50 614Q433 592 426 592Q422 592 411.50 597.50Q401 603 394 607Q352 630 299 630Q239 630 198 599Q157 568 157 511Q157 480 173.50 459.50Q190 439 214.50 427Q239 415 283 398Q336 377 369.50 357Q403 337 426.50 302.50Q450 268 450 215Q450 148 419 98Q388 48 332.50 21Q277-6 206-6M140-235Q130-235 121.50-231.50Q113-228 113-220Q113-211 119.50-199.50Q126-188 134-176Q151-149 160.50-128.50Q170-108 170-83Q170-69 182-60Q194-51 214-51L223-51Q241-51 250.50-58.50Q260-66 260-79Q260-106 237.50-143Q215-180 185.50-207.50Q156-235 140-235Z"  horiz-adv-x="500" vert-adv-y="1000"  />

      
      <glyph glyph-name="uni1E62" unicode="&#x1E62;" d="M206-6Q174-6 131.50 1Q89 8 63 22Q36 36 36 56Q36 121 52 121Q54 121 61 117Q68 113 73 110Q136 70 214 70Q275 70 317 107Q359 144 359 201Q359 233 341.50 254.50Q324 276 298.50 289.50Q273 303 227 322Q175 343 143.50 361.50Q112 380 89.50 414Q67 448 67 501Q67 561 97.50 607.50Q128 654 183 680Q238 706 309 706Q341 706 380.50 697Q420 688 443 674Q464 661 464 646Q464 636 448.50 614Q433 592 426 592Q422 592 411.50 597.50Q401 603 394 607Q352 630 299 630Q239 630 198 599Q157 568 157 511Q157 480 173.50 459.50Q190 439 214.50 427Q239 415 283 398Q336 377 369.50 357Q403 337 426.50 302.50Q450 268 450 215Q450 148 419 98Q388 48 332.50 21Q277-6 206-6M199-175Q178-175 169.50-169.50Q161-164 161-153L166-102Q169-80 212-80Q233-80 241.50-85.50Q250-91 250-102L245-153Q242-175 199-175Z"  horiz-adv-x="500" vert-adv-y="1000"  />

      
      <glyph glyph-name="uni1E9E" unicode="&#x1E9E;" d="M415-6Q371-6 314.50 5Q258 16 257 44Q257 80 261 91.50Q265 103 272 103Q274 102 309 84Q344 66 415 66Q472 66 518 103.50Q564 141 564 228Q564 286 526 310Q488 334 417 334L391 334Q385 334 378.50 353Q372 372 372 382Q372 392 377 399L552 616Q482 630 397 630Q302 630 252 577Q202 524 193 434L150 20Q149 9 138 3.50Q127-2 108-2L100-2Q79-2 70.50 3.50Q62 9 62 20L105 430Q117 555 190.50 630.50Q264 706 412 706Q555 706 640 674Q644 672 652 653Q660 634 660 626Q660 616 655 609L485 397Q576 379 613.50 339Q651 299 651 228Q651 147 614.50 94.50Q578 42 523.50 18Q469-6 415-6Z"  horiz-adv-x="700" vert-adv-y="1000"  />

      
      <glyph glyph-name="uni018F" unicode="&#x018F;" d="M287-4Q212-4 163 27Q114 58 91.50 102.50Q69 147 69 189Q69 318 160 375Q251 432 389 432Q471 432 525 425Q525 506 503 552Q481 598 440.50 616Q400 634 339 634Q280 634 237.50 618.50Q195 603 153 579Q149 577 139 571Q129 565 124 565Q120 565 118.50 567Q117 569 117 577Q117 596 122 622Q129 650 169 669Q209 688 259.50 697Q310 706 346 706Q458 706 535 651.50Q612 597 612 444Q612 319 577.50 218Q543 117 470.50 56.50Q398-4 287-4M296 68Q486 68 520 360L399 360Q319 360 237.50 330.50Q156 301 156 197Q156 163 173 133.50Q190 104 222 86Q254 68 296 68Z"  horiz-adv-x="672" vert-adv-y="1000"  />

      
      <glyph glyph-name="uni54" unicode="&#x54;" d="M234-2Q213-2 204.50 3.50Q196 9 196 20L259 624L65 624Q48 624 48 646L48 658Q48 674 53.50 687Q59 700 73 700L545 700Q562 700 562 678L562 671Q562 650 557 637Q552 624 537 624L347 624L284 20Q282 9 271.50 3.50Q261-2 242-2L234-2Z"  horiz-adv-x="549" vert-adv-y="1000"  />

      
      <glyph glyph-name="uni0166" unicode="&#x0166;" d="M545 700Q562 700 562 678L562 671Q562 650 557 637Q552 624 537 624L347 624L322 389L457 389Q467 389 470.50 382.50Q474 376 474 363Q474 318 449 318L315 318L284 20Q282 9 271.50 3.50Q261-2 242-2L234-2Q213-2 204.50 3.50Q196 9 196 20L227 318L83 318Q73 318 69.50 325Q66 332 66 345Q66 389 91 389L234 389L259 624L65 624Q48 624 48 646L48 658Q48 674 53.50 687Q59 700 73 700L545 700Z"  horiz-adv-x="549" vert-adv-y="1000"  />

      
      <glyph glyph-name="uni0164" unicode="&#x0164;" d="M234-2Q213-2 204.50 3.50Q196 9 196 20L259 624L65 624Q48 624 48 646L48 658Q48 674 53.50 687Q59 700 73 700L545 700Q562 700 562 678L562 671Q562 650 557 637Q552 624 537 624L347 624L284 20Q282 9 271.50 3.50Q261-2 242-2L234-2M298 759Q266 759 254 781L208 869Q203 878 203 887Q205 901 228 901L230 901Q250 901 263 888L316 814L387 888Q403 901 421 901L423 901Q445 901 445 887Q445 879 438 869L371 781Q355 759 323 759L298 759Z"  horiz-adv-x="549" vert-adv-y="1000"  />

      
      <glyph glyph-name="uni0162" unicode="&#x0162;" d="M234-2Q213-2 204.50 3.50Q196 9 196 20L259 624L65 624Q48 624 48 646L48 658Q48 674 53.50 687Q59 700 73 700L545 700Q562 700 562 678L562 671Q562 650 557 637Q552 624 537 624L347 624L284 20Q282 9 271.50 3.50Q261-2 242-2L234-2M233-51Q260-51 285.50-64Q311-77 311-113Q311-171 273.50-191.50Q236-212 186-212Q154-212 121.50-203Q89-194 89-171Q89-149 92.50-143.50Q96-138 101-138Q103-139 123-151Q143-163 179-163Q239-163 239-123Q239-109 230-102.50Q221-96 204-91Q191-86 185-82Q179-78 179-71Q180-67 186.50-50.50Q193-34 206-2L249-2L229-51L233-51Z"  horiz-adv-x="549" vert-adv-y="1000"  />

      
      <glyph glyph-name="uni021A" unicode="&#x021A;" d="M234-2Q213-2 204.50 3.50Q196 9 196 20L259 624L65 624Q48 624 48 646L48 658Q48 674 53.50 687Q59 700 73 700L545 700Q562 700 562 678L562 671Q562 650 557 637Q552 624 537 624L347 624L284 20Q282 9 271.50 3.50Q261-2 242-2L234-2M147-237Q137-237 128.50-233.50Q120-230 120-222Q120-213 126.50-201.50Q133-190 141-178Q158-151 167.50-130.50Q177-110 177-85Q177-71 189-62Q201-53 221-53L230-53Q248-53 257.50-60.50Q267-68 267-81Q267-108 244.50-145Q222-182 192.50-209.50Q163-237 147-237Z"  horiz-adv-x="549" vert-adv-y="1000"  />

      
      <glyph glyph-name="uni1E6C" unicode="&#x1E6C;" d="M234-2Q213-2 204.50 3.50Q196 9 196 20L259 624L65 624Q48 624 48 646L48 658Q48 674 53.50 687Q59 700 73 700L545 700Q562 700 562 678L562 671Q562 650 557 637Q552 624 537 624L347 624L284 20Q282 9 271.50 3.50Q261-2 242-2L234-2M206-177Q185-177 176.50-171.50Q168-166 168-155L173-104Q176-82 219-82Q240-82 248.50-87.50Q257-93 257-104L252-155Q249-177 206-177Z"  horiz-adv-x="549" vert-adv-y="1000"  />

      
      </font>
</defs>
</svg>
