<?xml version="1.0" standalone="no"?>
  <!DOCTYPE svg PUBLIC "-//W3C//DTD SVG 1.1//EN" "http://www.w3.org/Graphics/SVG/1.1/DTD/svg11.dtd" >
  <svg>
  <metadata>
  Created by font-carrier
  </metadata>
  <defs>
  <font id="Asap-SemiBold" horiz-adv-x="1311" vert-adv-y="1311" >
    <font-face
      
      font-family="Asap SemiBold"
      
      font-weight="400"
      
      font-stretch="normal"
      
      units-per-em="1000"
      
      ascent="934"
      
      descent="-212"
      
    />
      <missing-glyph />

      

      
      <glyph glyph-name="uni41" unicode="&#x41;" d="M59-2Q4-2 4 18Q4 21 8 35L234 683Q240 702 285 702L329 702Q373 702 380 683L606 35Q609 25 609 18Q609-2 561-2L530-2Q486-2 479 17L433 154L177 154L131 17Q124-2 87-2L59-2M395 266L322 486Q314 509 308 548L304 548Q303 542 299 522Q295 502 289 486L214 266L395 266Z"  horiz-adv-x="613" vert-adv-y="1000"  />

      
      <glyph glyph-name="unic1" unicode="&#xc1;" d="M59-2Q4-2 4 18Q4 21 8 35L234 683Q240 702 285 702L329 702Q373 702 380 683L606 35Q609 25 609 18Q609-2 561-2L530-2Q486-2 479 17L433 154L177 154L131 17Q124-2 87-2L59-2M395 266L322 486Q314 509 308 548L304 548Q303 542 299 522Q295 502 289 486L214 266L395 266M287 755Q271 755 265 758Q259 761 259 769Q259 774 266 787Q273 800 285 820Q298 841 322 884Q336 910 399 910Q428 910 441 907Q454 904 454 897Q454 890 446 880Q438 870 396 824L354 778Q333 755 287 755Z"  horiz-adv-x="613" vert-adv-y="1000"  />

      
      <glyph glyph-name="uni0102" unicode="&#x0102;" d="M59-2Q4-2 4 18Q4 21 8 35L234 683Q240 702 285 702L329 702Q373 702 380 683L606 35Q609 25 609 18Q609-2 561-2L530-2Q486-2 479 17L433 154L177 154L131 17Q124-2 87-2L59-2M395 266L322 486Q314 509 308 548L304 548Q303 542 299 522Q295 502 289 486L214 266L395 266M307 755Q267 755 233.50 770Q200 785 180.50 811Q161 837 161 869Q161 892 189 892Q199 892 204 888.50Q209 885 212.50 879.50Q216 874 218 872Q243 838 307 838Q373 838 397 873Q405 884 409.50 888Q414 892 425 892Q453 892 453 869Q453 838 433.50 811.50Q414 785 380.50 770Q347 755 307 755Z"  horiz-adv-x="613" vert-adv-y="1000"  />

      
      <glyph glyph-name="uni1EAE" unicode="&#x1EAE;" d="M287 880Q271 880 265 883Q259 886 259 894Q259 899 266 912Q273 925 285 945Q298 966 322 1009Q336 1035 399 1035Q428 1035 441 1032Q454 1029 454 1022Q454 1015 446 1005Q438 995 396 949L354 903Q333 880 287 880M307 755Q267 755 233.50 770Q200 785 180.50 811Q161 837 161 869Q161 892 189 892Q199 892 204 888.50Q209 885 212.50 879.50Q216 874 218 872Q243 838 307 838Q373 838 397 873Q405 884 409.50 888Q414 892 425 892Q453 892 453 869Q453 838 433.50 811.50Q414 785 380.50 770Q347 755 307 755M59-2Q4-2 4 18Q4 21 8 35L234 683Q240 702 285 702L329 702Q373 702 380 683L606 35Q609 25 609 18Q609-2 561-2L530-2Q486-2 479 17L433 154L177 154L131 17Q124-2 87-2L59-2M395 266L322 486Q314 509 308 548L304 548Q303 542 299 522Q295 502 289 486L214 266L395 266Z"  horiz-adv-x="613" vert-adv-y="1000"  />

      
      <glyph glyph-name="uni1EB6" unicode="&#x1EB6;" d="M59-2Q4-2 4 18Q4 21 8 35L234 683Q240 702 285 702L329 702Q373 702 380 683L606 35Q609 25 609 18Q609-2 561-2L530-2Q486-2 479 17L433 154L177 154L131 17Q124-2 87-2L59-2M395 266L322 486Q314 509 308 548L304 548Q303 542 299 522Q295 502 289 486L214 266L395 266M311-194Q258-194 258-165L258-109Q258-80 313-80Q366-80 366-109L366-165Q366-194 311-194M307 755Q267 755 233.50 770Q200 785 180.50 811Q161 837 161 869Q161 892 189 892Q199 892 204 888.50Q209 885 212.50 879.50Q216 874 218 872Q243 838 307 838Q373 838 397 873Q405 884 409.50 888Q414 892 425 892Q453 892 453 869Q453 838 433.50 811.50Q414 785 380.50 770Q347 755 307 755Z"  horiz-adv-x="613" vert-adv-y="1000"  />

      
      <glyph glyph-name="uni1EB0" unicode="&#x1EB0;" d="M327 880Q281 880 260 903L200 969Q178 993 169 1004.50Q160 1016 160 1022Q160 1029 173.50 1032Q187 1035 216 1035Q277 1035 293 1009Q290 1014 324 955Q328 949 336 934Q344 919 349.50 908Q355 897 355 894Q355 886 349 883Q343 880 327 880M307 755Q267 755 233.50 770Q200 785 180.50 811Q161 837 161 869Q161 892 189 892Q199 892 204 888.50Q209 885 212.50 879.50Q216 874 218 872Q243 838 307 838Q373 838 397 873Q405 884 409.50 888Q414 892 425 892Q453 892 453 869Q453 838 433.50 811.50Q414 785 380.50 770Q347 755 307 755M59-2Q4-2 4 18Q4 21 8 35L234 683Q240 702 285 702L329 702Q373 702 380 683L606 35Q609 25 609 18Q609-2 561-2L530-2Q486-2 479 17L433 154L177 154L131 17Q124-2 87-2L59-2M395 266L322 486Q314 509 308 548L304 548Q303 542 299 522Q295 502 289 486L214 266L395 266Z"  horiz-adv-x="613" vert-adv-y="1000"  />

      
      <glyph glyph-name="uni1EB2" unicode="&#x1EB2;" d="M325 873Q311 873 294.50 880Q278 887 278 894Q278 900 284 906Q290 912 300 919.50Q310 927 317 933Q330 944 337 953.50Q344 963 344 974Q344 985 334 991.50Q324 998 310 998Q294 998 281.50 992Q269 986 267 986Q261 986 250 1000.50Q239 1015 239 1025Q239 1035 265.50 1045.50Q292 1056 318 1056Q364 1056 393 1036.50Q422 1017 422 979Q422 948 390 916Q374 898 353.50 885.50Q333 873 325 873M307 755Q267 755 233.50 770Q200 785 180.50 811Q161 837 161 869Q161 892 189 892Q199 892 204 888.50Q209 885 212.50 879.50Q216 874 218 872Q243 838 307 838Q373 838 397 873Q405 884 409.50 888Q414 892 425 892Q453 892 453 869Q453 838 433.50 811.50Q414 785 380.50 770Q347 755 307 755M59-2Q4-2 4 18Q4 21 8 35L234 683Q240 702 285 702L329 702Q373 702 380 683L606 35Q609 25 609 18Q609-2 561-2L530-2Q486-2 479 17L433 154L177 154L131 17Q124-2 87-2L59-2M395 266L322 486Q314 509 308 548L304 548Q303 542 299 522Q295 502 289 486L214 266L395 266Z"  horiz-adv-x="613" vert-adv-y="1000"  />

      
      <glyph glyph-name="uni1EB4" unicode="&#x1EB4;" d="M160 909Q143 915 143 930Q143 938 146 944Q158 976 182 995Q206 1014 240 1014Q263 1014 315 996Q333 990 350 985Q367 980 378 980Q397 980 412 1000Q423 1016 435 1016Q442 1016 445 1014L454 1011Q471 1006 471 989Q471 985 469 975Q457 944 433 925Q409 906 375 906Q352 906 298 924Q252 940 236 940Q218 940 203 919Q192 903 180 903Q178 903 170 905L160 909M307 755Q267 755 233.50 770Q200 785 180.50 811Q161 837 161 869Q161 892 189 892Q199 892 204 888.50Q209 885 212.50 879.50Q216 874 218 872Q243 838 307 838Q373 838 397 873Q405 884 409.50 888Q414 892 425 892Q453 892 453 869Q453 838 433.50 811.50Q414 785 380.50 770Q347 755 307 755M59-2Q4-2 4 18Q4 21 8 35L234 683Q240 702 285 702L329 702Q373 702 380 683L606 35Q609 25 609 18Q609-2 561-2L530-2Q486-2 479 17L433 154L177 154L131 17Q124-2 87-2L59-2M395 266L322 486Q314 509 308 548L304 548Q303 542 299 522Q295 502 289 486L214 266L395 266Z"  horiz-adv-x="613" vert-adv-y="1000"  />

      
      <glyph glyph-name="unic2" unicode="&#xc2;" d="M59-2Q4-2 4 18Q4 21 8 35L234 683Q240 702 285 702L329 702Q373 702 380 683L606 35Q609 25 609 18Q609-2 561-2L530-2Q486-2 479 17L433 154L177 154L131 17Q124-2 87-2L59-2M395 266L322 486Q314 509 308 548L304 548Q303 542 299 522Q295 502 289 486L214 266L395 266M196 750Q175 750 175 762Q175 768 181 778L243 875Q250 887 263.50 891Q277 895 299 895L314 895Q336 895 349.50 891Q363 887 370 875L432 778Q438 769 438 762Q438 750 417 750L402 750Q362 750 346 771L306 822L267 771Q257 759 244 754.50Q231 750 211 750L196 750Z"  horiz-adv-x="613" vert-adv-y="1000"  />

      
      <glyph glyph-name="uni1EA4" unicode="&#x1EA4;" d="M423 842Q407 842 401 845Q395 848 395 856Q395 861 402 874Q409 887 421 907Q434 928 458 971Q472 997 535 997Q564 997 577 994Q590 991 590 984Q590 977 582 967Q574 957 532 911L490 865Q469 842 423 842M198 750Q177 750 177 762Q177 768 183 778L245 875Q252 887 265.50 891Q279 895 301 895L316 895Q338 895 351.50 891Q365 887 372 875L434 778Q440 769 440 762Q440 750 419 750L404 750Q364 750 348 771L308 822L269 771Q259 759 246 754.50Q233 750 213 750L198 750M59-2Q4-2 4 18Q4 21 8 35L234 683Q240 702 285 702L329 702Q373 702 380 683L606 35Q609 25 609 18Q609-2 561-2L530-2Q486-2 479 17L433 154L177 154L131 17Q124-2 87-2L59-2M395 266L322 486Q314 509 308 548L304 548Q303 542 299 522Q295 502 289 486L214 266L395 266Z"  horiz-adv-x="613" vert-adv-y="1000"  />

      
      <glyph glyph-name="uni1EAC" unicode="&#x1EAC;" d="M59-2Q4-2 4 18Q4 21 8 35L234 683Q240 702 285 702L329 702Q373 702 380 683L606 35Q609 25 609 18Q609-2 561-2L530-2Q486-2 479 17L433 154L177 154L131 17Q124-2 87-2L59-2M395 266L322 486Q314 509 308 548L304 548Q303 542 299 522Q295 502 289 486L214 266L395 266M311-194Q258-194 258-165L258-109Q258-80 313-80Q366-80 366-109L366-165Q366-194 311-194M196 750Q175 750 175 762Q175 768 181 778L243 875Q250 887 263.50 891Q277 895 299 895L314 895Q336 895 349.50 891Q363 887 370 875L432 778Q438 769 438 762Q438 750 417 750L402 750Q362 750 346 771L306 822L267 771Q257 759 244 754.50Q231 750 211 750L196 750Z"  horiz-adv-x="613" vert-adv-y="1000"  />

      
      <glyph glyph-name="uni1EA6" unicode="&#x1EA6;" d="M463 842Q417 842 396 865L336 931Q314 955 305 966.50Q296 978 296 984Q296 991 309.50 994Q323 997 352 997Q413 997 429 971Q426 977 460 917Q464 911 472 896Q480 881 485.50 870Q491 859 491 856Q491 848 485 845Q479 842 463 842M198 750Q177 750 177 762Q177 768 183 778L245 875Q252 887 265.50 891Q279 895 301 895L316 895Q338 895 351.50 891Q365 887 372 875L434 778Q440 769 440 762Q440 750 419 750L404 750Q364 750 348 771L308 822L269 771Q259 759 246 754.50Q233 750 213 750L198 750M59-2Q4-2 4 18Q4 21 8 35L234 683Q240 702 285 702L329 702Q373 702 380 683L606 35Q609 25 609 18Q609-2 561-2L530-2Q486-2 479 17L433 154L177 154L131 17Q124-2 87-2L59-2M395 266L322 486Q314 509 308 548L304 548Q303 542 299 522Q295 502 289 486L214 266L395 266Z"  horiz-adv-x="613" vert-adv-y="1000"  />

      
      <glyph glyph-name="uni1EA8" unicode="&#x1EA8;" d="M461 835Q447 835 430.50 842Q414 849 414 856Q414 862 420 868Q426 874 436 881.50Q446 889 453 895Q466 906 473 915.50Q480 925 480 936Q480 947 470 953.50Q460 960 446 960Q430 960 417.50 954Q405 948 403 948Q397 948 386 962.50Q375 977 375 987Q375 997 401.50 1007.50Q428 1018 454 1018Q500 1018 529 998.50Q558 979 558 941Q558 910 526 878Q510 860 489.50 847.50Q469 835 461 835M198 750Q177 750 177 762Q177 768 183 778L245 875Q252 887 265.50 891Q279 895 301 895L316 895Q338 895 351.50 891Q365 887 372 875L434 778Q440 769 440 762Q440 750 419 750L404 750Q364 750 348 771L308 822L269 771Q259 759 246 754.50Q233 750 213 750L198 750M59-2Q4-2 4 18Q4 21 8 35L234 683Q240 702 285 702L329 702Q373 702 380 683L606 35Q609 25 609 18Q609-2 561-2L530-2Q486-2 479 17L433 154L177 154L131 17Q124-2 87-2L59-2M395 266L322 486Q314 509 308 548L304 548Q303 542 299 522Q295 502 289 486L214 266L395 266Z"  horiz-adv-x="613" vert-adv-y="1000"  />

      
      <glyph glyph-name="uni1EAA" unicode="&#x1EAA;" d="M148 923Q131 929 131 944Q131 952 134 958Q146 990 170 1009Q194 1028 228 1028Q251 1028 303 1010Q321 1004 338 999Q355 994 366 994Q385 994 400 1014Q411 1030 423 1030Q430 1030 433 1028L442 1025Q459 1020 459 1003Q459 999 457 989Q445 958 421 939Q397 920 363 920Q340 920 286 938Q240 954 224 954Q206 954 191 933Q180 917 168 917Q166 917 158 919L148 923M196 750Q175 750 175 762Q175 768 181 778L243 875Q250 887 263.50 891Q277 895 299 895L314 895Q336 895 349.50 891Q363 887 370 875L432 778Q438 769 438 762Q438 750 417 750L402 750Q362 750 346 771L306 822L267 771Q257 759 244 754.50Q231 750 211 750L196 750M59-2Q4-2 4 18Q4 21 8 35L234 683Q240 702 285 702L329 702Q373 702 380 683L606 35Q609 25 609 18Q609-2 561-2L530-2Q486-2 479 17L433 154L177 154L131 17Q124-2 87-2L59-2M395 266L322 486Q314 509 308 548L304 548Q303 542 299 522Q295 502 289 486L214 266L395 266Z"  horiz-adv-x="613" vert-adv-y="1000"  />

      
      <glyph glyph-name="unic4" unicode="&#xc4;" d="M59-2Q4-2 4 18Q4 21 8 35L234 683Q240 702 285 702L329 702Q373 702 380 683L606 35Q609 25 609 18Q609-2 561-2L530-2Q486-2 479 17L433 154L177 154L131 17Q124-2 87-2L59-2M395 266L322 486Q314 509 308 548L304 548Q303 542 299 522Q295 502 289 486L214 266L395 266M223 765Q169 765 169 794L169 850Q169 879 224 879Q277 879 277 850L277 794Q277 765 223 765M390 765Q337 765 337 794L337 850Q337 879 391 879Q445 879 445 850L445 794Q445 765 390 765Z"  horiz-adv-x="613" vert-adv-y="1000"  />

      
      <glyph glyph-name="uni1EA0" unicode="&#x1EA0;" d="M59-2Q4-2 4 18Q4 21 8 35L234 683Q240 702 285 702L329 702Q373 702 380 683L606 35Q609 25 609 18Q609-2 561-2L530-2Q486-2 479 17L433 154L177 154L131 17Q124-2 87-2L59-2M395 266L322 486Q314 509 308 548L304 548Q303 542 299 522Q295 502 289 486L214 266L395 266M311-194Q258-194 258-165L258-109Q258-80 313-80Q366-80 366-109L366-165Q366-194 311-194Z"  horiz-adv-x="613" vert-adv-y="1000"  />

      
      <glyph glyph-name="unic0" unicode="&#xc0;" d="M59-2Q4-2 4 18Q4 21 8 35L234 683Q240 702 285 702L329 702Q373 702 380 683L606 35Q609 25 609 18Q609-2 561-2L530-2Q486-2 479 17L433 154L177 154L131 17Q124-2 87-2L59-2M395 266L322 486Q314 509 308 548L304 548Q303 542 299 522Q295 502 289 486L214 266L395 266M334 755Q288 755 267 778L207 844Q185 868 176 879.50Q167 891 167 897Q167 904 180.50 907Q194 910 223 910Q284 910 300 884Q297 890 331 830Q335 824 343 809Q351 794 356.50 783Q362 772 362 769Q362 761 356 758Q350 755 334 755Z"  horiz-adv-x="613" vert-adv-y="1000"  />

      
      <glyph glyph-name="uni1EA2" unicode="&#x1EA2;" d="M59-2Q4-2 4 18Q4 21 8 35L234 683Q240 702 285 702L329 702Q373 702 380 683L606 35Q609 25 609 18Q609-2 561-2L530-2Q486-2 479 17L433 154L177 154L131 17Q124-2 87-2L59-2M395 266L322 486Q314 509 308 548L304 548Q303 542 299 522Q295 502 289 486L214 266L395 266M325 745Q311 745 294.50 752Q278 759 278 766Q278 772 286 779.50Q294 787 304 795Q323 809 333.50 820.50Q344 832 344 846Q344 857 334 863.50Q324 870 310 870Q294 870 281.50 864Q269 858 267 858Q261 858 250 872.50Q239 887 239 897Q239 907 265.50 917.50Q292 928 318 928Q364 928 393 908.50Q422 889 422 851Q422 825 402.50 801Q383 777 359 761Q335 745 325 745Z"  horiz-adv-x="613" vert-adv-y="1000"  />

      
      <glyph glyph-name="uni0100" unicode="&#x0100;" d="M59-2Q4-2 4 18Q4 21 8 35L234 683Q240 702 285 702L329 702Q373 702 380 683L606 35Q609 25 609 18Q609-2 561-2L530-2Q486-2 479 17L433 154L177 154L131 17Q124-2 87-2L59-2M395 266L322 486Q314 509 308 548L304 548Q303 542 299 522Q295 502 289 486L214 266L395 266M199 779Q185 779 178.50 787.50Q172 796 172 816L172 829Q172 849 178.50 857.50Q185 866 199 866L416 866Q430 866 436.50 857.50Q443 849 443 829L443 816Q443 796 436.50 787.50Q430 779 416 779L199 779Z"  horiz-adv-x="613" vert-adv-y="1000"  />

      
      <glyph glyph-name="uni0104" unicode="&#x0104;" d="M664-104Q685-104 685-131Q685-149 675-161Q658-183 603-183Q533-183 509-150Q485-117 485-81Q485-64 490-41.50Q495-19 506 0Q483 5 479 17L433 154L177 154L131 17Q124-2 87-2L59-2Q4-2 4 18Q4 21 8 35L234 683Q240 702 285 702L329 702Q373 702 380 683L606 35Q609 25 609 18Q609-2 562-2Q561-6 556.50-22.50Q552-39 552-62Q552-94 570-103.50Q588-113 614-113Q624-113 632-111Q640-109 642-108Q656-104 664-104M395 266L322 486Q314 509 308 548L304 548Q303 542 299 522Q295 502 289 486L214 266L395 266Z"  horiz-adv-x="613" vert-adv-y="1000"  />

      
      <glyph glyph-name="unic5" unicode="&#xc5;" d="M59-2Q4-2 4 18Q4 21 8 35L234 683Q240 702 285 702L329 702Q373 702 380 683L606 35Q609 25 609 18Q609-2 561-2L530-2Q486-2 479 17L433 154L177 154L131 17Q124-2 87-2L59-2M395 266L322 486Q314 509 308 548L304 548Q303 542 299 522Q295 502 289 486L214 266L395 266M306 732Q266 732 239 759Q212 786 212 826Q212 866 239 893Q266 920 306 920Q346 920 373.50 893Q401 866 401 826Q401 786 373.50 759Q346 732 306 732M306 785Q323 785 335.50 796.50Q348 808 348 825Q348 842 335.50 854.50Q323 867 306 867Q289 867 277.50 854.50Q266 842 266 825Q266 808 277.50 796.50Q289 785 306 785Z"  horiz-adv-x="613" vert-adv-y="1000"  />

      
      <glyph glyph-name="uni01FA" unicode="&#x01FA;" d="M303 818Q287 818 281 821Q275 824 275 832Q275 837 282 850Q289 863 301 883Q314 904 338 947Q352 973 415 973Q444 973 457 970Q470 967 470 960Q470 953 462 943Q454 933 412 887L370 841Q349 818 303 818M606 35Q609 25 609 18Q609-2 561-2L530-2Q486-2 479 17L433 154L177 154L131 17Q124-2 87-2L59-2Q4-2 4 18Q4 21 8 35L223 654Q211 675 211 701Q211 741 238 768Q265 795 305 795Q345 795 372.50 768Q400 741 400 701Q400 677 389 657L606 35M305 742Q288 742 276.50 729.50Q265 717 265 700Q265 683 276.50 671.50Q288 660 305 660Q322 660 334.50 671.50Q347 683 347 700Q347 717 334.50 729.50Q322 742 305 742M395 266L322 486Q314 509 308 548L304 548Q303 542 299 522Q295 502 289 486L214 266L395 266Z"  horiz-adv-x="613" vert-adv-y="1000"  />

      
      <glyph glyph-name="unic3" unicode="&#xc3;" d="M59-2Q4-2 4 18Q4 21 8 35L234 683Q240 702 285 702L329 702Q373 702 380 683L606 35Q609 25 609 18Q609-2 561-2L530-2Q486-2 479 17L433 154L177 154L131 17Q124-2 87-2L59-2M395 266L322 486Q314 509 308 548L304 548Q303 542 299 522Q295 502 289 486L214 266L395 266M142 765Q123 770 123 786Q123 794 126 800Q139 832 165.50 851Q192 870 230 870Q245 870 268 864.50Q291 859 313 852Q332 846 351 841Q370 836 381 836Q403 836 419 856Q431 872 444 872Q452 872 455 870L465 867Q484 862 484 845Q484 841 482 831Q469 799 442 780.50Q415 762 378 762Q354 762 294 780Q275 786 256 791Q237 796 225 796Q205 796 189 775Q177 759 164 759Q161 759 153 761L142 765Z"  horiz-adv-x="613" vert-adv-y="1000"  />

      
      <glyph glyph-name="unic6" unicode="&#xc6;" d="M50-2Q-3-2-3 18Q-3 28 1 36L322 673Q330 687 340 693.50Q350 700 366 700L823 700Q837 700 843 690Q849 680 849 657L849 631Q849 608 843 598Q837 588 823 588L490 588L526 414L795 414Q809 414 815 403.50Q821 393 821 371L821 345Q821 323 815 312.50Q809 302 795 302L549 302L587 112L824 112Q838 112 844 102Q850 92 850 69L850 43Q850 20 844 10Q838 0 824 0L508 0Q492 0 484 7Q476 14 473 30L448 154L187 154L120 17Q111-2 76-2L50-2M426 266L383 488L381 562L378 562L352 489L243 266L426 266Z"  horiz-adv-x="915" vert-adv-y="1000"  />

      
      <glyph glyph-name="uni01FC" unicode="&#x01FC;" d="M50-2Q-3-2-3 18Q-3 28 1 36L322 673Q330 687 340 693.50Q350 700 366 700L823 700Q837 700 843 690Q849 680 849 657L849 631Q849 608 843 598Q837 588 823 588L490 588L526 414L795 414Q809 414 815 403.50Q821 393 821 371L821 345Q821 323 815 312.50Q809 302 795 302L549 302L587 112L824 112Q838 112 844 102Q850 92 850 69L850 43Q850 20 844 10Q838 0 824 0L508 0Q492 0 484 7Q476 14 473 30L448 154L187 154L120 17Q111-2 76-2L50-2M426 266L383 488L381 562L378 562L352 489L243 266L426 266M438 755Q422 755 416 758Q410 761 410 769Q410 774 417 787Q424 800 436 820Q449 841 473 884Q487 910 550 910Q579 910 592 907Q605 904 605 897Q605 890 597 880Q589 870 547 824L505 778Q484 755 438 755Z"  horiz-adv-x="915" vert-adv-y="1000"  />

      
      <glyph glyph-name="uni42" unicode="&#x42;" d="M120 0Q101 0 92 9Q83 18 83 37L83 663Q83 683 92 691.50Q101 700 120 700L311 700Q428 700 485.50 652.50Q543 605 543 523Q543 473 511.50 430.50Q480 388 434 371L435 367Q464 362 496 340Q528 318 550 282.50Q572 247 572 202Q572 103 508 51.50Q444 0 318 0L120 0M300 413Q349 413 378.50 438.50Q408 464 408 503Q408 589 300 589L214 589L214 413L300 413M329 112Q381 112 409 137.50Q437 163 437 210Q437 254 405 277.50Q373 301 313 301L214 301L214 112L329 112Z"  horiz-adv-x="593" vert-adv-y="1000"  />

      
      <glyph glyph-name="uni43" unicode="&#x43;" d="M376-7Q208-7 128.50 80Q49 167 49 351Q49 707 380 707Q429 707 479 696.50Q529 686 557 670Q582 656 582 640Q582 628 572.50 608.50Q563 589 550.50 574Q538 559 528 559Q525 559 504 569Q483 579 451.50 587Q420 595 378 595Q279 595 231.50 535Q184 475 184 350Q184 227 231.50 166Q279 105 376 105Q422 105 456 115Q490 125 521 140Q537 148 543 148Q554 148 565.50 133.50Q577 119 585 100Q593 81 593 73Q593 50 559 31Q527 13 476 3Q425-7 376-7Z"  horiz-adv-x="619" vert-adv-y="1000"  />

      
      <glyph glyph-name="uni0106" unicode="&#x0106;" d="M376-7Q208-7 128.50 80Q49 167 49 351Q49 707 380 707Q429 707 479 696.50Q529 686 557 670Q582 656 582 640Q582 628 572.50 608.50Q563 589 550.50 574Q538 559 528 559Q525 559 504 569Q483 579 451.50 587Q420 595 378 595Q279 595 231.50 535Q184 475 184 350Q184 227 231.50 166Q279 105 376 105Q422 105 456 115Q490 125 521 140Q537 148 543 148Q554 148 565.50 133.50Q577 119 585 100Q593 81 593 73Q593 50 559 31Q527 13 476 3Q425-7 376-7M344 755Q328 755 322 758Q316 761 316 769Q316 774 323 787Q330 800 342 820Q355 841 379 884Q393 910 456 910Q485 910 498 907Q511 904 511 897Q511 890 503 880Q495 870 453 824L411 778Q390 755 344 755Z"  horiz-adv-x="619" vert-adv-y="1000"  />

      
      <glyph glyph-name="uni010C" unicode="&#x010C;" d="M376-7Q208-7 128.50 80Q49 167 49 351Q49 707 380 707Q429 707 479 696.50Q529 686 557 670Q582 656 582 640Q582 628 572.50 608.50Q563 589 550.50 574Q538 559 528 559Q525 559 504 569Q483 579 451.50 587Q420 595 378 595Q279 595 231.50 535Q184 475 184 350Q184 227 231.50 166Q279 105 376 105Q422 105 456 115Q490 125 521 140Q537 148 543 148Q554 148 565.50 133.50Q577 119 585 100Q593 81 593 73Q593 50 559 31Q527 13 476 3Q425-7 376-7M356 752Q335 752 321.50 756.50Q308 761 300 773L239 870Q233 879 233 886Q233 897 254 897L269 897Q288 897 301.50 892.50Q315 888 324 876L364 825L404 877Q420 897 460 897L475 897Q496 897 496 885Q496 879 490 870L428 773Q420 761 406.50 756.50Q393 752 372 752L356 752Z"  horiz-adv-x="619" vert-adv-y="1000"  />

      
      <glyph glyph-name="unic7" unicode="&#xc7;" d="M543 148Q554 148 565.50 133.50Q577 119 585 100Q593 81 593 73Q593 50 559 31Q531 15 487 5.50Q443-4 398-6L390-40Q422-43 446.50-60.50Q471-78 471-115Q471-211 353-211Q309-211 268.50-198Q228-185 228-164Q228-146 237-136Q246-126 255-126Q263-126 285-134Q320-147 343-147Q379-147 379-123Q379-112 371-106Q363-100 347-94Q334-89 327.50-84.50Q321-80 321-72Q321-67 340-6Q191 3 120 90Q49 177 49 351Q49 707 380 707Q429 707 479 696.50Q529 686 557 670Q582 656 582 640Q582 628 572.50 608.50Q563 589 550.50 574Q538 559 528 559Q525 559 504 569Q483 579 451.50 587Q420 595 378 595Q279 595 231.50 535Q184 475 184 350Q184 227 231.50 166Q279 105 376 105Q422 105 456 115Q490 125 521 140Q537 148 543 148Z"  horiz-adv-x="619" vert-adv-y="1000"  />

      
      <glyph glyph-name="uni0108" unicode="&#x0108;" d="M376-7Q208-7 128.50 80Q49 167 49 351Q49 707 380 707Q429 707 479 696.50Q529 686 557 670Q582 656 582 640Q582 628 572.50 608.50Q563 589 550.50 574Q538 559 528 559Q525 559 504 569Q483 579 451.50 587Q420 595 378 595Q279 595 231.50 535Q184 475 184 350Q184 227 231.50 166Q279 105 376 105Q422 105 456 115Q490 125 521 140Q537 148 543 148Q554 148 565.50 133.50Q577 119 585 100Q593 81 593 73Q593 50 559 31Q527 13 476 3Q425-7 376-7M253 750Q232 750 232 762Q232 768 238 778L300 875Q307 887 320.50 891Q334 895 356 895L371 895Q393 895 406.50 891Q420 887 427 875L489 778Q495 769 495 762Q495 750 474 750L459 750Q419 750 403 771L363 822L324 771Q314 759 301 754.50Q288 750 268 750L253 750Z"  horiz-adv-x="619" vert-adv-y="1000"  />

      
      <glyph glyph-name="uni010A" unicode="&#x010A;" d="M376-7Q208-7 128.50 80Q49 167 49 351Q49 707 380 707Q429 707 479 696.50Q529 686 557 670Q582 656 582 640Q582 628 572.50 608.50Q563 589 550.50 574Q538 559 528 559Q525 559 504 569Q483 579 451.50 587Q420 595 378 595Q279 595 231.50 535Q184 475 184 350Q184 227 231.50 166Q279 105 376 105Q422 105 456 115Q490 125 521 140Q537 148 543 148Q554 148 565.50 133.50Q577 119 585 100Q593 81 593 73Q593 50 559 31Q527 13 476 3Q425-7 376-7M363 765Q310 765 310 794L310 850Q310 879 365 879Q418 879 418 850L418 794Q418 765 363 765Z"  horiz-adv-x="619" vert-adv-y="1000"  />

      
      <glyph glyph-name="uni44" unicode="&#x44;" d="M120 0Q101 0 92 9Q83 18 83 37L83 663Q83 683 92 691.50Q101 700 120 700L330 700Q479 700 562.50 612Q646 524 646 350Q646 176 562.50 88Q479 0 330 0L120 0M327 112Q414 112 462.50 171.50Q511 231 511 350Q511 469 462.50 528.50Q414 588 327 588L215 588L215 112L327 112Z"  horiz-adv-x="695" vert-adv-y="1000"  />

      
      <glyph glyph-name="uni01F1" unicode="&#x01F1;" d="M120 0Q101 0 92 9Q83 18 83 37L83 663Q83 683 92 691.50Q101 700 120 700L330 700Q479 700 562.50 612Q646 524 646 350Q646 176 562.50 88Q479 0 330 0L120 0M327 112Q414 112 462.50 171.50Q511 231 511 350Q511 469 462.50 528.50Q414 588 327 588L215 588L215 112L327 112M760 0Q749 0 737.50 28.50Q726 57 726 77Q726 83 728 87L1089 588L783 588Q769 588 762.50 598.50Q756 609 756 633L756 656Q756 679 762.50 689.50Q769 700 783 700L1240 700Q1249 700 1260.50 670.50Q1272 641 1272 622Q1272 614 1270 612L910 112L1245 112Q1259 112 1265 101.50Q1271 91 1271 68L1271 44Q1271 21 1265 10.50Q1259 0 1245 0L760 0Z"  horiz-adv-x="1311" vert-adv-y="1000"  />

      
      <glyph glyph-name="uni01C4" unicode="&#x01C4;" d="M120 0Q101 0 92 9Q83 18 83 37L83 663Q83 683 92 691.50Q101 700 120 700L330 700Q479 700 562.50 612Q646 524 646 350Q646 176 562.50 88Q479 0 330 0L120 0M327 112Q414 112 462.50 171.50Q511 231 511 350Q511 469 462.50 528.50Q414 588 327 588L215 588L215 112L327 112M760 0Q749 0 737.50 28.50Q726 57 726 77Q726 83 728 87L1089 588L783 588Q769 588 762.50 598.50Q756 609 756 633L756 656Q756 679 762.50 689.50Q769 700 783 700L1240 700Q1249 700 1260.50 670.50Q1272 641 1272 622Q1272 614 1270 612L910 112L1245 112Q1259 112 1265 101.50Q1271 91 1271 68L1271 44Q1271 21 1265 10.50Q1259 0 1245 0L760 0M995 752Q974 752 960.50 756.50Q947 761 939 773L878 870Q872 879 872 886Q872 897 893 897L908 897Q927 897 940.50 892.50Q954 888 963 876L1003 825L1043 877Q1059 897 1099 897L1114 897Q1135 897 1135 885Q1135 879 1129 870L1067 773Q1059 761 1045.50 756.50Q1032 752 1011 752L995 752Z"  horiz-adv-x="1311" vert-adv-y="1000"  />

      
      <glyph glyph-name="unid0" unicode="&#xd0;" d="M330 700Q479 700 562.50 612Q646 524 646 350Q646 176 562.50 88Q479 0 330 0L120 0Q101 0 92 9Q83 18 83 37L83 301L34 301Q20 301 14 311.50Q8 322 8 344L8 369Q8 391 14 401.50Q20 412 34 412L83 412L83 663Q83 683 92 691.50Q101 700 120 700L330 700M327 112Q414 112 462.50 171.50Q511 231 511 350Q511 469 462.50 528.50Q414 588 327 588L215 588L215 412L284 412Q298 412 304.50 402Q311 392 311 369L311 344Q311 321 304.50 311Q298 301 284 301L215 301L215 112L327 112Z"  horiz-adv-x="696" vert-adv-y="1000"  />

      
      <glyph glyph-name="uni010E" unicode="&#x010E;" d="M120 0Q101 0 92 9Q83 18 83 37L83 663Q83 683 92 691.50Q101 700 120 700L330 700Q479 700 562.50 612Q646 524 646 350Q646 176 562.50 88Q479 0 330 0L120 0M327 112Q414 112 462.50 171.50Q511 231 511 350Q511 469 462.50 528.50Q414 588 327 588L215 588L215 112L327 112M322 752Q301 752 287.50 756.50Q274 761 266 773L205 870Q199 879 199 886Q199 897 220 897L235 897Q254 897 267.50 892.50Q281 888 290 876L330 825L370 877Q386 897 426 897L441 897Q462 897 462 885Q462 879 456 870L394 773Q386 761 372.50 756.50Q359 752 338 752L322 752Z"  horiz-adv-x="695" vert-adv-y="1000"  />

      
      <glyph glyph-name="uni0110" unicode="&#x0110;" d="M330 700Q479 700 562.50 612Q646 524 646 350Q646 176 562.50 88Q479 0 330 0L120 0Q101 0 92 9Q83 18 83 37L83 301L34 301Q20 301 14 311.50Q8 322 8 344L8 369Q8 391 14 401.50Q20 412 34 412L83 412L83 663Q83 683 92 691.50Q101 700 120 700L330 700M327 112Q414 112 462.50 171.50Q511 231 511 350Q511 469 462.50 528.50Q414 588 327 588L215 588L215 412L284 412Q298 412 304.50 402Q311 392 311 369L311 344Q311 321 304.50 311Q298 301 284 301L215 301L215 112L327 112Z"  horiz-adv-x="696" vert-adv-y="1000"  />

      
      <glyph glyph-name="uni1E0C" unicode="&#x1E0C;" d="M120 0Q101 0 92 9Q83 18 83 37L83 663Q83 683 92 691.50Q101 700 120 700L330 700Q479 700 562.50 612Q646 524 646 350Q646 176 562.50 88Q479 0 330 0L120 0M327 112Q414 112 462.50 171.50Q511 231 511 350Q511 469 462.50 528.50Q414 588 327 588L215 588L215 112L327 112M331-194Q278-194 278-165L278-109Q278-80 333-80Q386-80 386-109L386-165Q386-194 331-194Z"  horiz-adv-x="695" vert-adv-y="1000"  />

      
      <glyph glyph-name="uni01F2" unicode="&#x01F2;" d="M120 0Q101 0 92 9Q83 18 83 37L83 663Q83 683 92 691.50Q101 700 120 700L330 700Q479 700 562.50 612Q646 524 646 350Q646 176 562.50 88Q479 0 330 0L120 0M327 112Q414 112 462.50 171.50Q511 231 511 350Q511 469 462.50 528.50Q414 588 327 588L215 588L215 112L327 112M752 0Q744 0 734.50 24Q725 48 725 67Q725 76 728 80L980 422L769 422Q755 422 749 432.50Q743 443 743 465L743 480Q743 502 749 512.50Q755 523 769 523L1122 523Q1130 523 1139 498.50Q1148 474 1148 455Q1148 447 1146 441L895 101L1125 101Q1139 101 1145 91Q1151 81 1151 58L1151 43Q1151 21 1145 10.50Q1139 0 1125 0L752 0Z"  horiz-adv-x="1184" vert-adv-y="1000"  />

      
      <glyph glyph-name="uni01C5" unicode="&#x01C5;" d="M120 0Q101 0 92 9Q83 18 83 37L83 663Q83 683 92 691.50Q101 700 120 700L330 700Q479 700 562.50 612Q646 524 646 350Q646 176 562.50 88Q479 0 330 0L120 0M327 112Q414 112 462.50 171.50Q511 231 511 350Q511 469 462.50 528.50Q414 588 327 588L215 588L215 112L327 112M752 0Q744 0 734.50 24Q725 48 725 67Q725 76 728 80L980 422L769 422Q755 422 749 432.50Q743 443 743 465L743 480Q743 502 749 512.50Q755 523 769 523L1122 523Q1130 523 1139 498.50Q1148 474 1148 455Q1148 447 1146 441L895 101L1125 101Q1139 101 1145 91Q1151 81 1151 58L1151 43Q1151 21 1145 10.50Q1139 0 1125 0L752 0M932 575Q911 575 897.50 579.50Q884 584 876 596L815 693Q809 702 809 709Q809 720 830 720L845 720Q864 720 877.50 715.50Q891 711 900 699L940 648L980 700Q996 720 1036 720L1051 720Q1072 720 1072 708Q1072 702 1066 693L1004 596Q996 584 982.50 579.50Q969 575 948 575L932 575Z"  horiz-adv-x="1184" vert-adv-y="1000"  />

      
      <glyph glyph-name="uni45" unicode="&#x45;" d="M120 0Q101 0 92 9Q83 18 83 37L83 663Q83 683 92 691.50Q101 700 120 700L470 700Q484 700 490.50 690Q497 680 497 657L497 631Q497 608 490.50 598Q484 588 470 588L214 588L214 414L442 414Q456 414 462.50 404Q469 394 469 371L469 345Q469 322 462.50 312Q456 302 442 302L214 302L214 112L471 112Q485 112 491.50 102Q498 92 498 69L498 43Q498 20 491.50 10Q485 0 471 0L120 0Z"  horiz-adv-x="546" vert-adv-y="1000"  />

      
      <glyph glyph-name="unic9" unicode="&#xc9;" d="M120 0Q101 0 92 9Q83 18 83 37L83 663Q83 683 92 691.50Q101 700 120 700L470 700Q484 700 490.50 690Q497 680 497 657L497 631Q497 608 490.50 598Q484 588 470 588L214 588L214 414L442 414Q456 414 462.50 404Q469 394 469 371L469 345Q469 322 462.50 312Q456 302 442 302L214 302L214 112L471 112Q485 112 491.50 102Q498 92 498 69L498 43Q498 20 491.50 10Q485 0 471 0L120 0M280 755Q264 755 258 758Q252 761 252 769Q252 774 259 787Q266 800 278 820Q291 841 315 884Q329 910 392 910Q421 910 434 907Q447 904 447 897Q447 890 439 880Q431 870 389 824L347 778Q326 755 280 755Z"  horiz-adv-x="546" vert-adv-y="1000"  />

      
      <glyph glyph-name="uni0114" unicode="&#x0114;" d="M120 0Q101 0 92 9Q83 18 83 37L83 663Q83 683 92 691.50Q101 700 120 700L470 700Q484 700 490.50 690Q497 680 497 657L497 631Q497 608 490.50 598Q484 588 470 588L214 588L214 414L442 414Q456 414 462.50 404Q469 394 469 371L469 345Q469 322 462.50 312Q456 302 442 302L214 302L214 112L471 112Q485 112 491.50 102Q498 92 498 69L498 43Q498 20 491.50 10Q485 0 471 0L120 0M300 755Q260 755 226.50 770Q193 785 173.50 811Q154 837 154 869Q154 892 182 892Q192 892 197 888.50Q202 885 205.50 879.50Q209 874 211 872Q236 838 300 838Q366 838 390 873Q398 884 402.50 888Q407 892 418 892Q446 892 446 869Q446 838 426.50 811.50Q407 785 373.50 770Q340 755 300 755Z"  horiz-adv-x="546" vert-adv-y="1000"  />

      
      <glyph glyph-name="uni011A" unicode="&#x011A;" d="M120 0Q101 0 92 9Q83 18 83 37L83 663Q83 683 92 691.50Q101 700 120 700L470 700Q484 700 490.50 690Q497 680 497 657L497 631Q497 608 490.50 598Q484 588 470 588L214 588L214 414L442 414Q456 414 462.50 404Q469 394 469 371L469 345Q469 322 462.50 312Q456 302 442 302L214 302L214 112L471 112Q485 112 491.50 102Q498 92 498 69L498 43Q498 20 491.50 10Q485 0 471 0L120 0M292 752Q271 752 257.50 756.50Q244 761 236 773L175 870Q169 879 169 886Q169 897 190 897L205 897Q224 897 237.50 892.50Q251 888 260 876L300 825L340 877Q356 897 396 897L411 897Q432 897 432 885Q432 879 426 870L364 773Q356 761 342.50 756.50Q329 752 308 752L292 752Z"  horiz-adv-x="546" vert-adv-y="1000"  />

      
      <glyph glyph-name="unica" unicode="&#xca;" d="M120 0Q101 0 92 9Q83 18 83 37L83 663Q83 683 92 691.50Q101 700 120 700L470 700Q484 700 490.50 690Q497 680 497 657L497 631Q497 608 490.50 598Q484 588 470 588L214 588L214 414L442 414Q456 414 462.50 404Q469 394 469 371L469 345Q469 322 462.50 312Q456 302 442 302L214 302L214 112L471 112Q485 112 491.50 102Q498 92 498 69L498 43Q498 20 491.50 10Q485 0 471 0L120 0M189 750Q168 750 168 762Q168 768 174 778L236 875Q243 887 256.50 891Q270 895 292 895L307 895Q329 895 342.50 891Q356 887 363 875L425 778Q431 769 431 762Q431 750 410 750L395 750Q355 750 339 771L299 822L260 771Q250 759 237 754.50Q224 750 204 750L189 750Z"  horiz-adv-x="546" vert-adv-y="1000"  />

      
      <glyph glyph-name="uni1EBE" unicode="&#x1EBE;" d="M411 842Q395 842 389 845Q383 848 383 856Q383 861 390 874Q397 887 409 907Q422 928 446 971Q460 997 523 997Q552 997 565 994Q578 991 578 984Q578 977 570 967Q562 957 520 911L478 865Q457 842 411 842M186 750Q165 750 165 762Q165 768 171 778L233 875Q240 887 253.50 891Q267 895 289 895L304 895Q326 895 339.50 891Q353 887 360 875L422 778Q428 769 428 762Q428 750 407 750L392 750Q352 750 336 771L296 822L257 771Q247 759 234 754.50Q221 750 201 750L186 750M120 0Q101 0 92 9Q83 18 83 37L83 663Q83 683 92 691.50Q101 700 120 700L470 700Q484 700 490.50 690Q497 680 497 657L497 631Q497 608 490.50 598Q484 588 470 588L214 588L214 414L442 414Q456 414 462.50 404Q469 394 469 371L469 345Q469 322 462.50 312Q456 302 442 302L214 302L214 112L471 112Q485 112 491.50 102Q498 92 498 69L498 43Q498 20 491.50 10Q485 0 471 0L120 0Z"  horiz-adv-x="546" vert-adv-y="1000"  />

      
      <glyph glyph-name="uni1EC6" unicode="&#x1EC6;" d="M120 0Q101 0 92 9Q83 18 83 37L83 663Q83 683 92 691.50Q101 700 120 700L470 700Q484 700 490.50 690Q497 680 497 657L497 631Q497 608 490.50 598Q484 588 470 588L214 588L214 414L442 414Q456 414 462.50 404Q469 394 469 371L469 345Q469 322 462.50 312Q456 302 442 302L214 302L214 112L471 112Q485 112 491.50 102Q498 92 498 69L498 43Q498 20 491.50 10Q485 0 471 0L120 0M293-194Q240-194 240-165L240-109Q240-80 295-80Q348-80 348-109L348-165Q348-194 293-194M189 750Q168 750 168 762Q168 768 174 778L236 875Q243 887 256.50 891Q270 895 292 895L307 895Q329 895 342.50 891Q356 887 363 875L425 778Q431 769 431 762Q431 750 410 750L395 750Q355 750 339 771L299 822L260 771Q250 759 237 754.50Q224 750 204 750L189 750Z"  horiz-adv-x="546" vert-adv-y="1000"  />

      
      <glyph glyph-name="uni1EC0" unicode="&#x1EC0;" d="M451 842Q405 842 384 865L324 931Q302 955 293 966.50Q284 978 284 984Q284 991 297.50 994Q311 997 340 997Q401 997 417 971Q414 977 448 917Q452 911 460 896Q468 881 473.50 870Q479 859 479 856Q479 848 473 845Q467 842 451 842M186 750Q165 750 165 762Q165 768 171 778L233 875Q240 887 253.50 891Q267 895 289 895L304 895Q326 895 339.50 891Q353 887 360 875L422 778Q428 769 428 762Q428 750 407 750L392 750Q352 750 336 771L296 822L257 771Q247 759 234 754.50Q221 750 201 750L186 750M120 0Q101 0 92 9Q83 18 83 37L83 663Q83 683 92 691.50Q101 700 120 700L470 700Q484 700 490.50 690Q497 680 497 657L497 631Q497 608 490.50 598Q484 588 470 588L214 588L214 414L442 414Q456 414 462.50 404Q469 394 469 371L469 345Q469 322 462.50 312Q456 302 442 302L214 302L214 112L471 112Q485 112 491.50 102Q498 92 498 69L498 43Q498 20 491.50 10Q485 0 471 0L120 0Z"  horiz-adv-x="546" vert-adv-y="1000"  />

      
      <glyph glyph-name="uni1EC2" unicode="&#x1EC2;" d="M449 835Q435 835 418.50 842Q402 849 402 856Q402 862 408 868Q414 874 424 881.50Q434 889 441 895Q454 906 461 915.50Q468 925 468 936Q468 947 458 953.50Q448 960 434 960Q418 960 405.50 954Q393 948 391 948Q385 948 374 962.50Q363 977 363 987Q363 997 389.50 1007.50Q416 1018 442 1018Q488 1018 517 998.50Q546 979 546 941Q546 910 514 878Q498 860 477.50 847.50Q457 835 449 835M186 750Q165 750 165 762Q165 768 171 778L233 875Q240 887 253.50 891Q267 895 289 895L304 895Q326 895 339.50 891Q353 887 360 875L422 778Q428 769 428 762Q428 750 407 750L392 750Q352 750 336 771L296 822L257 771Q247 759 234 754.50Q221 750 201 750L186 750M120 0Q101 0 92 9Q83 18 83 37L83 663Q83 683 92 691.50Q101 700 120 700L470 700Q484 700 490.50 690Q497 680 497 657L497 631Q497 608 490.50 598Q484 588 470 588L214 588L214 414L442 414Q456 414 462.50 404Q469 394 469 371L469 345Q469 322 462.50 312Q456 302 442 302L214 302L214 112L471 112Q485 112 491.50 102Q498 92 498 69L498 43Q498 20 491.50 10Q485 0 471 0L120 0Z"  horiz-adv-x="546" vert-adv-y="1000"  />

      
      <glyph glyph-name="uni1EC4" unicode="&#x1EC4;" d="M146 909Q129 915 129 930Q129 938 132 944Q144 976 168 995Q192 1014 226 1014Q249 1014 301 996Q319 990 336 985Q353 980 364 980Q383 980 398 1000Q409 1016 421 1016Q428 1016 431 1014L440 1011Q457 1006 457 989Q457 985 455 975Q443 944 419 925Q395 906 361 906Q338 906 284 924Q238 940 222 940Q204 940 189 919Q178 903 166 903Q164 903 156 905L146 909M185 750Q164 750 164 762Q164 768 170 778L232 875Q239 887 252.50 891Q266 895 288 895L303 895Q325 895 338.50 891Q352 887 359 875L421 778Q427 769 427 762Q427 750 406 750L391 750Q351 750 335 771L295 822L256 771Q246 759 233 754.50Q220 750 200 750L185 750M120 0Q101 0 92 9Q83 18 83 37L83 663Q83 683 92 691.50Q101 700 120 700L470 700Q484 700 490.50 690Q497 680 497 657L497 631Q497 608 490.50 598Q484 588 470 588L214 588L214 414L442 414Q456 414 462.50 404Q469 394 469 371L469 345Q469 322 462.50 312Q456 302 442 302L214 302L214 112L471 112Q485 112 491.50 102Q498 92 498 69L498 43Q498 20 491.50 10Q485 0 471 0L120 0Z"  horiz-adv-x="546" vert-adv-y="1000"  />

      
      <glyph glyph-name="unicb" unicode="&#xcb;" d="M120 0Q101 0 92 9Q83 18 83 37L83 663Q83 683 92 691.50Q101 700 120 700L470 700Q484 700 490.50 690Q497 680 497 657L497 631Q497 608 490.50 598Q484 588 470 588L214 588L214 414L442 414Q456 414 462.50 404Q469 394 469 371L469 345Q469 322 462.50 312Q456 302 442 302L214 302L214 112L471 112Q485 112 491.50 102Q498 92 498 69L498 43Q498 20 491.50 10Q485 0 471 0L120 0M216 765Q162 765 162 794L162 850Q162 879 217 879Q270 879 270 850L270 794Q270 765 216 765M383 765Q330 765 330 794L330 850Q330 879 384 879Q438 879 438 850L438 794Q438 765 383 765Z"  horiz-adv-x="546" vert-adv-y="1000"  />

      
      <glyph glyph-name="uni0116" unicode="&#x0116;" d="M120 0Q101 0 92 9Q83 18 83 37L83 663Q83 683 92 691.50Q101 700 120 700L470 700Q484 700 490.50 690Q497 680 497 657L497 631Q497 608 490.50 598Q484 588 470 588L214 588L214 414L442 414Q456 414 462.50 404Q469 394 469 371L469 345Q469 322 462.50 312Q456 302 442 302L214 302L214 112L471 112Q485 112 491.50 102Q498 92 498 69L498 43Q498 20 491.50 10Q485 0 471 0L120 0M299 765Q246 765 246 794L246 850Q246 879 301 879Q354 879 354 850L354 794Q354 765 299 765Z"  horiz-adv-x="546" vert-adv-y="1000"  />

      
      <glyph glyph-name="uni1EB8" unicode="&#x1EB8;" d="M120 0Q101 0 92 9Q83 18 83 37L83 663Q83 683 92 691.50Q101 700 120 700L470 700Q484 700 490.50 690Q497 680 497 657L497 631Q497 608 490.50 598Q484 588 470 588L214 588L214 414L442 414Q456 414 462.50 404Q469 394 469 371L469 345Q469 322 462.50 312Q456 302 442 302L214 302L214 112L471 112Q485 112 491.50 102Q498 92 498 69L498 43Q498 20 491.50 10Q485 0 471 0L120 0M293-194Q240-194 240-165L240-109Q240-80 295-80Q348-80 348-109L348-165Q348-194 293-194Z"  horiz-adv-x="546" vert-adv-y="1000"  />

      
      <glyph glyph-name="unic8" unicode="&#xc8;" d="M120 0Q101 0 92 9Q83 18 83 37L83 663Q83 683 92 691.50Q101 700 120 700L470 700Q484 700 490.50 690Q497 680 497 657L497 631Q497 608 490.50 598Q484 588 470 588L214 588L214 414L442 414Q456 414 462.50 404Q469 394 469 371L469 345Q469 322 462.50 312Q456 302 442 302L214 302L214 112L471 112Q485 112 491.50 102Q498 92 498 69L498 43Q498 20 491.50 10Q485 0 471 0L120 0M327 755Q281 755 260 778L200 844Q178 868 169 879.50Q160 891 160 897Q160 904 173.50 907Q187 910 216 910Q277 910 293 884Q290 890 324 830Q328 824 336 809Q344 794 349.50 783Q355 772 355 769Q355 761 349 758Q343 755 327 755Z"  horiz-adv-x="546" vert-adv-y="1000"  />

      
      <glyph glyph-name="uni1EBA" unicode="&#x1EBA;" d="M120 0Q101 0 92 9Q83 18 83 37L83 663Q83 683 92 691.50Q101 700 120 700L470 700Q484 700 490.50 690Q497 680 497 657L497 631Q497 608 490.50 598Q484 588 470 588L214 588L214 414L442 414Q456 414 462.50 404Q469 394 469 371L469 345Q469 322 462.50 312Q456 302 442 302L214 302L214 112L471 112Q485 112 491.50 102Q498 92 498 69L498 43Q498 20 491.50 10Q485 0 471 0L120 0M313 745Q299 745 282.50 752Q266 759 266 766Q266 772 274 779.50Q282 787 292 795Q311 809 321.50 820.50Q332 832 332 846Q332 857 322 863.50Q312 870 298 870Q282 870 269.50 864Q257 858 255 858Q249 858 238 872.50Q227 887 227 897Q227 907 253.50 917.50Q280 928 306 928Q352 928 381 908.50Q410 889 410 851Q410 825 390.50 801Q371 777 347 761Q323 745 313 745Z"  horiz-adv-x="546" vert-adv-y="1000"  />

      
      <glyph glyph-name="uni0112" unicode="&#x0112;" d="M120 0Q101 0 92 9Q83 18 83 37L83 663Q83 683 92 691.50Q101 700 120 700L470 700Q484 700 490.50 690Q497 680 497 657L497 631Q497 608 490.50 598Q484 588 470 588L214 588L214 414L442 414Q456 414 462.50 404Q469 394 469 371L469 345Q469 322 462.50 312Q456 302 442 302L214 302L214 112L471 112Q485 112 491.50 102Q498 92 498 69L498 43Q498 20 491.50 10Q485 0 471 0L120 0M192 779Q178 779 171.50 787.50Q165 796 165 816L165 829Q165 849 171.50 857.50Q178 866 192 866L409 866Q423 866 429.50 857.50Q436 849 436 829L436 816Q436 796 429.50 787.50Q423 779 409 779L192 779Z"  horiz-adv-x="546" vert-adv-y="1000"  />

      
      <glyph glyph-name="uni0118" unicode="&#x0118;" d="M575-104Q596-104 596-131Q596-149 586-161Q569-183 514-183Q444-183 420-150Q396-117 396-81Q396-64 401-41.50Q406-19 417 0L120 0Q101 0 92 9Q83 18 83 37L83 663Q83 683 92 691.50Q101 700 120 700L470 700Q484 700 490.50 690Q497 680 497 657L497 631Q497 608 490.50 598Q484 588 470 588L214 588L214 414L442 414Q456 414 462.50 404Q469 394 469 371L469 345Q469 322 462.50 312Q456 302 442 302L214 302L214 112L471 112Q485 112 491.50 102Q498 92 498 69L498 43Q498 21 492.50 11Q487 1 474 0Q473-5 468-22.50Q463-40 463-62Q463-94 481-103.50Q499-113 525-113Q535-113 543-111Q551-109 553-108Q567-104 575-104Z"  horiz-adv-x="546" vert-adv-y="1000"  />

      
      <glyph glyph-name="uni1EBC" unicode="&#x1EBC;" d="M120 0Q101 0 92 9Q83 18 83 37L83 663Q83 683 92 691.50Q101 700 120 700L470 700Q484 700 490.50 690Q497 680 497 657L497 631Q497 608 490.50 598Q484 588 470 588L214 588L214 414L442 414Q456 414 462.50 404Q469 394 469 371L469 345Q469 322 462.50 312Q456 302 442 302L214 302L214 112L471 112Q485 112 491.50 102Q498 92 498 69L498 43Q498 20 491.50 10Q485 0 471 0L120 0M135 765Q116 770 116 786Q116 794 119 800Q132 832 158.50 851Q185 870 223 870Q238 870 261 864.50Q284 859 306 852Q325 846 344 841Q363 836 374 836Q396 836 412 856Q424 872 437 872Q445 872 448 870L458 867Q477 862 477 845Q477 841 475 831Q462 799 435 780.50Q408 762 371 762Q347 762 287 780Q268 786 249 791Q230 796 218 796Q198 796 182 775Q170 759 157 759Q154 759 146 761L135 765Z"  horiz-adv-x="546" vert-adv-y="1000"  />

      
      <glyph glyph-name="uni46" unicode="&#x46;" d="M136-2Q83-2 83 27L83 663Q83 683 92 691.50Q101 700 120 700L444 700Q458 700 464.50 690Q471 680 471 657L471 631Q471 608 464.50 598Q458 588 444 588L214 588L214 414L433 414Q447 414 453.50 404Q460 394 460 371L460 345Q460 322 453.50 312Q447 302 433 302L214 302L214 27Q214 12 201.50 5Q189-2 161-2L136-2Z"  horiz-adv-x="503" vert-adv-y="1000"  />

      
      <glyph glyph-name="uni47" unicode="&#x47;" d="M564 379Q583 379 592 370.50Q601 362 601 343L601 69Q601 26 530 9.50Q459-7 371-7Q209-7 129 80Q49 167 49 349Q49 707 380 707Q426 707 474.50 698Q523 689 554.50 673.50Q586 658 586 640Q586 628 576.50 608.50Q567 589 554 574Q541 559 531 559Q528 559 506.50 569Q485 579 452.50 587Q420 595 378 595Q277 595 230.50 534Q184 473 184 352Q184 105 373 105Q424 105 469 114L469 267L371 267Q357 267 350.50 277Q344 287 344 310L344 336Q344 359 350.50 369Q357 379 371 379L564 379Z"  horiz-adv-x="672" vert-adv-y="1000"  />

      
      <glyph glyph-name="uni011E" unicode="&#x011E;" d="M564 379Q583 379 592 370.50Q601 362 601 343L601 69Q601 26 530 9.50Q459-7 371-7Q209-7 129 80Q49 167 49 349Q49 707 380 707Q426 707 474.50 698Q523 689 554.50 673.50Q586 658 586 640Q586 628 576.50 608.50Q567 589 554 574Q541 559 531 559Q528 559 506.50 569Q485 579 452.50 587Q420 595 378 595Q277 595 230.50 534Q184 473 184 352Q184 105 373 105Q424 105 469 114L469 267L371 267Q357 267 350.50 277Q344 287 344 310L344 336Q344 359 350.50 369Q357 379 371 379L564 379M345 755Q305 755 271.50 770Q238 785 218.50 811Q199 837 199 869Q199 892 227 892Q237 892 242 888.50Q247 885 250.50 879.50Q254 874 256 872Q281 838 345 838Q411 838 435 873Q443 884 447.50 888Q452 892 463 892Q491 892 491 869Q491 838 471.50 811.50Q452 785 418.50 770Q385 755 345 755Z"  horiz-adv-x="672" vert-adv-y="1000"  />

      
      <glyph glyph-name="uni011C" unicode="&#x011C;" d="M564 379Q583 379 592 370.50Q601 362 601 343L601 69Q601 26 530 9.50Q459-7 371-7Q209-7 129 80Q49 167 49 349Q49 707 380 707Q426 707 474.50 698Q523 689 554.50 673.50Q586 658 586 640Q586 628 576.50 608.50Q567 589 554 574Q541 559 531 559Q528 559 506.50 569Q485 579 452.50 587Q420 595 378 595Q277 595 230.50 534Q184 473 184 352Q184 105 373 105Q424 105 469 114L469 267L371 267Q357 267 350.50 277Q344 287 344 310L344 336Q344 359 350.50 369Q357 379 371 379L564 379M235 750Q214 750 214 762Q214 768 220 778L282 875Q289 887 302.50 891Q316 895 338 895L353 895Q375 895 388.50 891Q402 887 409 875L471 778Q477 769 477 762Q477 750 456 750L441 750Q401 750 385 771L345 822L306 771Q296 759 283 754.50Q270 750 250 750L235 750Z"  horiz-adv-x="672" vert-adv-y="1000"  />

      
      <glyph glyph-name="uni0122" unicode="&#x0122;" d="M564 379Q583 379 592 370.50Q601 362 601 343L601 69Q601 26 530 9.50Q459-7 371-7Q209-7 129 80Q49 167 49 349Q49 707 380 707Q426 707 474.50 698Q523 689 554.50 673.50Q586 658 586 640Q586 628 576.50 608.50Q567 589 554 574Q541 559 531 559Q528 559 506.50 569Q485 579 452.50 587Q420 595 378 595Q277 595 230.50 534Q184 473 184 352Q184 105 373 105Q424 105 469 114L469 267L371 267Q357 267 350.50 277Q344 287 344 310L344 336Q344 359 350.50 369Q357 379 371 379L564 379M316-238Q301-238 288.50-233.50Q276-229 276-219Q276-213 279.50-205Q283-197 284-194Q295-169 301-147Q307-125 307-91Q307-72 320-61.50Q333-51 360-51L375-51Q398-51 410-61.50Q422-72 422-89Q422-125 403.50-159.50Q385-194 359.50-216Q334-238 316-238Z"  horiz-adv-x="672" vert-adv-y="1000"  />

      
      <glyph glyph-name="uni0120" unicode="&#x0120;" d="M564 379Q583 379 592 370.50Q601 362 601 343L601 69Q601 26 530 9.50Q459-7 371-7Q209-7 129 80Q49 167 49 349Q49 707 380 707Q426 707 474.50 698Q523 689 554.50 673.50Q586 658 586 640Q586 628 576.50 608.50Q567 589 554 574Q541 559 531 559Q528 559 506.50 569Q485 579 452.50 587Q420 595 378 595Q277 595 230.50 534Q184 473 184 352Q184 105 373 105Q424 105 469 114L469 267L371 267Q357 267 350.50 277Q344 287 344 310L344 336Q344 359 350.50 369Q357 379 371 379L564 379M344 765Q291 765 291 794L291 850Q291 879 346 879Q399 879 399 850L399 794Q399 765 344 765Z"  horiz-adv-x="672" vert-adv-y="1000"  />

      
      <glyph glyph-name="uni48" unicode="&#x48;" d="M136-2Q83-2 83 27L83 673Q83 702 136 702L162 702Q215 702 215 673L215 414L517 414L517 673Q517 702 570 702L596 702Q649 702 649 673L649 27Q649-2 596-2L570-2Q517-2 517 27L517 301L215 301L215 27Q215-2 162-2L136-2Z"  horiz-adv-x="733" vert-adv-y="1000"  />

      
      <glyph glyph-name="uni0126" unicode="&#x0126;" d="M668 568Q682 568 688.50 559.50Q695 551 695 531L695 518Q695 498 688.50 489.50Q682 481 668 481L649 481L649 27Q649-2 596-2L570-2Q517-2 517 27L517 301L215 301L215 27Q215-2 162-2L136-2Q83-2 83 27L83 481L65 481Q51 481 44.50 489.50Q38 498 38 518L38 531Q38 551 44.50 559.50Q51 568 65 568L83 568L83 673Q83 702 136 702L162 702Q215 702 215 673L215 568L517 568L517 673Q517 702 570 702L596 702Q649 702 649 673L649 568L668 568M517 481L215 481L215 414L517 414L517 481Z"  horiz-adv-x="733" vert-adv-y="1000"  />

      
      <glyph glyph-name="uni0124" unicode="&#x0124;" d="M136-2Q83-2 83 27L83 673Q83 702 136 702L162 702Q215 702 215 673L215 414L517 414L517 673Q517 702 570 702L596 702Q649 702 649 673L649 27Q649-2 596-2L570-2Q517-2 517 27L517 301L215 301L215 27Q215-2 162-2L136-2M255 750Q234 750 234 762Q234 768 240 778L302 875Q309 887 322.50 891Q336 895 358 895L373 895Q395 895 408.50 891Q422 887 429 875L491 778Q497 769 497 762Q497 750 476 750L461 750Q421 750 405 771L365 822L326 771Q316 759 303 754.50Q290 750 270 750L255 750Z"  horiz-adv-x="733" vert-adv-y="1000"  />

      
      <glyph glyph-name="uni1E24" unicode="&#x1E24;" d="M136-2Q83-2 83 27L83 673Q83 702 136 702L162 702Q215 702 215 673L215 414L517 414L517 673Q517 702 570 702L596 702Q649 702 649 673L649 27Q649-2 596-2L570-2Q517-2 517 27L517 301L215 301L215 27Q215-2 162-2L136-2M380-194Q327-194 327-165L327-109Q327-80 382-80Q435-80 435-109L435-165Q435-194 380-194Z"  horiz-adv-x="733" vert-adv-y="1000"  />

      
      <glyph glyph-name="uni49" unicode="&#x49;" d="M129-3Q75-3 75 27L75 673Q75 703 129 703L154 703Q207 703 207 673L207 27Q207-3 154-3L129-3Z"  horiz-adv-x="283" vert-adv-y="1000"  />

      
      <glyph glyph-name="uni0132" unicode="&#x0132;" d="M129-3Q75-3 75 27L75 673Q75 703 129 703L154 703Q207 703 207 673L207 27Q207-3 154-3L129-3M400-7Q360-7 322 1Q284 9 284 34Q284 53 293 83Q302 113 319 114Q322 114 339 109.50Q356 105 377 105Q432 105 456 131Q480 157 480 216L480 673Q480 703 533 703L559 703Q612 703 612 673L612 203Q612 103 560.50 48Q509-7 400-7Z"  horiz-adv-x="684" vert-adv-y="1000"  />

      
      <glyph glyph-name="unicd" unicode="&#xcd;" d="M129-3Q75-3 75 27L75 673Q75 703 129 703L154 703Q207 703 207 673L207 27Q207-3 154-3L129-3M122 755Q106 755 100 758Q94 761 94 769Q94 774 101 787Q108 800 120 820Q133 841 157 884Q171 910 234 910Q263 910 276 907Q289 904 289 897Q289 890 281 880Q273 870 231 824L189 778Q168 755 122 755Z"  horiz-adv-x="282" vert-adv-y="1000"  />

      
      <glyph glyph-name="uni012C" unicode="&#x012C;" d="M129-3Q75-3 75 27L75 673Q75 703 129 703L154 703Q207 703 207 673L207 27Q207-3 154-3L129-3M141 755Q101 755 67.50 770Q34 785 14.50 811Q-5 837-5 869Q-5 892 23 892Q33 892 38 888.50Q43 885 46.50 879.50Q50 874 52 872Q77 838 141 838Q207 838 231 873Q239 884 243.50 888Q248 892 259 892Q287 892 287 869Q287 838 267.50 811.50Q248 785 214.50 770Q181 755 141 755Z"  horiz-adv-x="282" vert-adv-y="1000"  />

      
      <glyph glyph-name="unice" unicode="&#xce;" d="M129-3Q75-3 75 27L75 673Q75 703 129 703L154 703Q207 703 207 673L207 27Q207-3 154-3L129-3M31 750Q10 750 10 762Q10 768 16 778L78 875Q85 887 98.50 891Q112 895 134 895L149 895Q171 895 184.50 891Q198 887 205 875L267 778Q273 769 273 762Q273 750 252 750L237 750Q197 750 181 771L141 822L102 771Q92 759 79 754.50Q66 750 46 750L31 750Z"  horiz-adv-x="282" vert-adv-y="1000"  />

      
      <glyph glyph-name="unicf" unicode="&#xcf;" d="M129-3Q75-3 75 27L75 673Q75 703 129 703L154 703Q207 703 207 673L207 27Q207-3 154-3L129-3M58 765Q4 765 4 794L4 850Q4 879 59 879Q112 879 112 850L112 794Q112 765 58 765M225 765Q172 765 172 794L172 850Q172 879 226 879Q280 879 280 850L280 794Q280 765 225 765Z"  horiz-adv-x="283" vert-adv-y="1000"  />

      
      <glyph glyph-name="uni0130" unicode="&#x0130;" d="M129-3Q75-3 75 27L75 673Q75 703 129 703L154 703Q207 703 207 673L207 27Q207-3 154-3L129-3M141 765Q88 765 88 794L88 850Q88 879 143 879Q196 879 196 850L196 794Q196 765 141 765Z"  horiz-adv-x="283" vert-adv-y="1000"  />

      
      <glyph glyph-name="uni1ECA" unicode="&#x1ECA;" d="M129-3Q75-3 75 27L75 673Q75 703 129 703L154 703Q207 703 207 673L207 27Q207-3 154-3L129-3M142-194Q89-194 89-165L89-109Q89-80 144-80Q197-80 197-109L197-165Q197-194 142-194Z"  horiz-adv-x="282" vert-adv-y="1000"  />

      
      <glyph glyph-name="unicc" unicode="&#xcc;" d="M129-3Q75-3 75 27L75 673Q75 703 129 703L154 703Q207 703 207 673L207 27Q207-3 154-3L129-3M169 755Q123 755 102 778L42 844Q20 868 11 879.50Q2 891 2 897Q2 904 15.50 907Q29 910 58 910Q119 910 135 884Q132 890 166 830Q170 824 178 809Q186 794 191.50 783Q197 772 197 769Q197 761 191 758Q185 755 169 755Z"  horiz-adv-x="283" vert-adv-y="1000"  />

      
      <glyph glyph-name="uni1EC8" unicode="&#x1EC8;" d="M129-3Q75-3 75 27L75 673Q75 703 129 703L154 703Q207 703 207 673L207 27Q207-3 154-3L129-3M159 745Q145 745 128.50 752Q112 759 112 766Q112 772 120 779.50Q128 787 138 795Q157 809 167.50 820.50Q178 832 178 846Q178 857 168 863.50Q158 870 144 870Q128 870 115.50 864Q103 858 101 858Q95 858 84 872.50Q73 887 73 897Q73 907 99.50 917.50Q126 928 152 928Q198 928 227 908.50Q256 889 256 851Q256 825 236.50 801Q217 777 193 761Q169 745 159 745Z"  horiz-adv-x="282" vert-adv-y="1000"  />

      
      <glyph glyph-name="uni012A" unicode="&#x012A;" d="M129-3Q75-3 75 27L75 673Q75 703 129 703L154 703Q207 703 207 673L207 27Q207-3 154-3L129-3M34 779Q20 779 13.50 787.50Q7 796 7 816L7 829Q7 849 13.50 857.50Q20 866 34 866L251 866Q265 866 271.50 857.50Q278 849 278 829L278 816Q278 796 271.50 787.50Q265 779 251 779L34 779Z"  horiz-adv-x="283" vert-adv-y="1000"  />

      
      <glyph glyph-name="uni012E" unicode="&#x012E;" d="M277-104Q298-104 298-131Q298-149 288-161Q271-183 216-183Q146-183 122-150Q98-117 98-81Q98-65 102.50-43Q107-21 117-3Q75 1 75 27L75 673Q75 703 129 703L154 703Q207 703 207 673L207 27Q207 3 176-1Q175-6 170-23.50Q165-41 165-62Q165-94 183-103.50Q201-113 227-113Q237-113 245-111Q253-109 255-108Q269-104 277-104Z"  horiz-adv-x="282" vert-adv-y="1000"  />

      
      <glyph glyph-name="uni0128" unicode="&#x0128;" d="M129-3Q75-3 75 27L75 673Q75 703 129 703L154 703Q207 703 207 673L207 27Q207-3 154-3L129-3M-24 765Q-43 770-43 786Q-43 794-40 800Q-27 832-0.50 851Q26 870 64 870Q79 870 102 864.50Q125 859 147 852Q166 846 185 841Q204 836 215 836Q237 836 253 856Q265 872 278 872Q286 872 289 870L299 867Q318 862 318 845Q318 841 316 831Q303 799 276 780.50Q249 762 212 762Q188 762 128 780Q109 786 90 791Q71 796 59 796Q39 796 23 775Q11 759-2 759Q-5 759-13 761L-24 765Z"  horiz-adv-x="282" vert-adv-y="1000"  />

      
      <glyph glyph-name="uni4a" unicode="&#x4a;" d="M118-7Q78-7 40 1Q2 9 2 34Q2 53 11 83Q20 113 37 114Q40 114 57 109.50Q74 105 95 105Q150 105 174 131Q198 157 198 216L198 673Q198 703 251 703L277 703Q330 703 330 673L330 203Q330 103 278.50 48Q227-7 118-7Z"  horiz-adv-x="402" vert-adv-y="1000"  />

      
      <glyph glyph-name="uni0134" unicode="&#x0134;" d="M118-7Q78-7 40 1Q2 9 2 34Q2 53 11 83Q20 113 37 114Q40 114 57 109.50Q74 105 95 105Q150 105 174 131Q198 157 198 216L198 673Q198 703 251 703L277 703Q330 703 330 673L330 203Q330 103 278.50 48Q227-7 118-7M154 750Q133 750 133 762Q133 768 139 778L201 875Q208 887 221.50 891Q235 895 257 895L272 895Q294 895 307.50 891Q321 887 328 875L390 778Q396 769 396 762Q396 750 375 750L360 750Q320 750 304 771L264 822L225 771Q215 759 202 754.50Q189 750 169 750L154 750Z"  horiz-adv-x="402" vert-adv-y="1000"  />

      
      <glyph glyph-name="uni4b" unicode="&#x4b;" d="M132-2Q79-2 79 27L79 673Q79 702 132 702L157 702Q211 702 211 673L211 392L215 392L413 685Q425 702 471 702L506 702Q530 702 542 698Q554 694 554 688Q554 679 546 667L333 366L581 32Q589 20 589 13Q589-2 537-2L495-2Q448-2 436 15L215 325L211 325L211 27Q211-2 157-2L132-2Z"  horiz-adv-x="576" vert-adv-y="1000"  />

      
      <glyph glyph-name="uni0136" unicode="&#x0136;" d="M132-2Q79-2 79 27L79 673Q79 702 132 702L157 702Q211 702 211 673L211 392L215 392L413 685Q425 702 471 702L506 702Q530 702 542 698Q554 694 554 688Q554 679 546 667L333 366L581 32Q589 20 589 13Q589-2 537-2L495-2Q448-2 436 15L215 325L211 325L211 27Q211-2 157-2L132-2M245-238Q230-238 217.50-233.50Q205-229 205-219Q205-213 208.50-205Q212-197 213-194Q224-169 230-147Q236-125 236-91Q236-72 249-61.50Q262-51 289-51L304-51Q327-51 339-61.50Q351-72 351-89Q351-125 332.50-159.50Q314-194 288.50-216Q263-238 245-238Z"  horiz-adv-x="576" vert-adv-y="1000"  />

      
      <glyph glyph-name="uni4c" unicode="&#x4c;" d="M120 0Q101 0 92 9Q83 18 83 37L83 673Q83 702 136 702L161 702Q189 702 201.50 695Q214 688 214 673L214 112L451 112Q465 112 471 101.50Q477 91 477 69L477 43Q477 21 471 10.50Q465 0 451 0L120 0Z"  horiz-adv-x="484" vert-adv-y="1000"  />

      
      <glyph glyph-name="uni01C7" unicode="&#x01C7;" d="M446-172Q406-172 368-164Q330-156 330-131Q330-112 338.50-82Q347-52 364-51Q367-51 384-55.50Q401-60 422-60Q477-60 501.50-34Q526-8 526 51L526 673Q526 703 579 703L605 703Q658 703 658 673L658 47Q658-54 606-113Q554-172 446-172M120 0Q101 0 92 9Q83 18 83 37L83 673Q83 702 136 702L161 702Q189 702 201.50 695Q214 688 214 673L214 112L385 112Q399 112 405.50 102Q412 92 412 69L412 43Q412 20 405.50 10Q399 0 385 0L120 0Z"  horiz-adv-x="725" vert-adv-y="1000"  />

      
      <glyph glyph-name="uni0139" unicode="&#x0139;" d="M120 0Q101 0 92 9Q83 18 83 37L83 673Q83 702 136 702L161 702Q189 702 201.50 695Q214 688 214 673L214 112L451 112Q465 112 471 101.50Q477 91 477 69L477 43Q477 21 471 10.50Q465 0 451 0L120 0M133 756Q117 756 111 759Q105 762 105 770Q105 775 112 788Q119 801 131 821Q144 842 168 885Q182 911 245 911Q274 911 287 908Q300 905 300 898Q300 891 292 881Q284 871 242 825L200 779Q179 756 133 756Z"  horiz-adv-x="484" vert-adv-y="1000"  />

      
      <glyph glyph-name="uni013D" unicode="&#x013D;" d="M120 0Q101 0 92 9Q83 18 83 37L83 673Q83 702 136 702L161 702Q189 702 201.50 695Q214 688 214 673L214 112L451 112Q465 112 471 101.50Q477 91 477 69L477 43Q477 21 471 10.50Q465 0 451 0L120 0M324 516Q309 516 297 521Q285 526 285 536Q285 555 286 569Q287 583 288 593Q292 635 292 660Q292 679 303.50 689.50Q315 700 338 700L354 700Q376 700 388 689.50Q400 679 400 662Q400 627 387 593.50Q374 560 355.50 538.50Q337 517 324 516Z"  horiz-adv-x="484" vert-adv-y="1000"  />

      
      <glyph glyph-name="uni013B" unicode="&#x013B;" d="M120 0Q101 0 92 9Q83 18 83 37L83 673Q83 702 136 702L161 702Q189 702 201.50 695Q214 688 214 673L214 112L451 112Q465 112 471 101.50Q477 91 477 69L477 43Q477 21 471 10.50Q465 0 451 0L120 0M206-238Q191-238 178.50-233.50Q166-229 166-219Q166-213 169.50-205Q173-197 174-194Q185-169 191-147Q197-125 197-91Q197-72 210-61.50Q223-51 250-51L265-51Q288-51 300-61.50Q312-72 312-89Q312-125 293.50-159.50Q275-194 249.50-216Q224-238 206-238Z"  horiz-adv-x="484" vert-adv-y="1000"  />

      
      <glyph glyph-name="uni013F" unicode="&#x013F;" d="M120 0Q101 0 92 9Q83 18 83 37L83 673Q83 702 136 702L161 702Q189 702 201.50 695Q214 688 214 673L214 112L451 112Q465 112 471 101.50Q477 91 477 69L477 43Q477 21 471 10.50Q465 0 451 0L120 0M339 296Q312 296 294 314.50Q276 333 276 359Q276 386 294 404.50Q312 423 339 423Q366 423 384.50 404.50Q403 386 403 359Q403 333 384.50 314.50Q366 296 339 296Z"  horiz-adv-x="484" vert-adv-y="1000"  />

      
      <glyph glyph-name="uni01C8" unicode="&#x01C8;" d="M627 598Q564 598 564 631L564 696Q564 729 629 729Q692 729 692 696L692 631Q692 614 676.50 606Q661 598 627 598M120 0Q101 0 92 9Q83 18 83 37L83 673Q83 702 136 702L161 702Q189 702 201.50 695Q214 688 214 673L214 112L451 112Q465 112 471 101.50Q477 91 477 69L477 43Q477 21 471 10.50Q465 0 451 0L120 0M550-212Q502-212 479.50-202.50Q457-193 457-168Q457-151 466-128.50Q475-106 488-106Q492-106 502-108.50Q512-111 523-111Q544-111 554.50-98.50Q565-86 565-57L565 496Q565 525 618 525L638 525Q691 525 691 496L691-58Q691-136 650.50-174Q610-212 550-212Z"  horiz-adv-x="760" vert-adv-y="1000"  />

      
      <glyph glyph-name="uni0141" unicode="&#x0141;" d="M451 112Q465 112 471 101.50Q477 91 477 69L477 43Q477 21 471 10.50Q465 0 451 0L120 0Q101 0 92 9Q83 18 83 37L83 322L40 296Q34 291 27 291Q16 291 16 309L16 324Q16 338 22 347Q28 356 40 364L83 390L83 673Q83 702 136 702L161 702Q189 702 201.50 695Q214 688 214 673L214 469L301 522Q311 527 315 527Q325 527 325 510L325 494Q325 469 301 454L214 401L214 112L451 112Z"  horiz-adv-x="486" vert-adv-y="1000"  />

      
      <glyph glyph-name="uni4d" unicode="&#x4d;" d="M406 177Q383 177 372 194L230 445Q218 462 207 486L203 485Q204 468 204 434L204 27Q204-2 151-2L129-2Q76-2 76 27L76 673Q76 702 129 702L176 702Q219 702 232 678L406 371Q416 354 422 338Q426 351 438 372L613 678Q626 702 668 702L714 702Q767 702 767 673L767 27Q767-2 714-2L692-2Q639-2 639 27L639 432Q639 466 640 483L636 484Q625 460 613 443L472 194Q461 177 438 177L406 177Z"  horiz-adv-x="843" vert-adv-y="1000"  />

      
      <glyph glyph-name="uni4e" unicode="&#x4e;" d="M129-2Q76-2 76 27L76 673Q76 702 129 702L165 702Q187 702 200.50 697Q214 692 222 678L478 287Q498 258 513 227L517 228Q515 251 515 296L515 673Q515 702 568 702L590 702Q643 702 643 673L643 27Q643-2 590-2L558-2Q537-2 524.50 3Q512 8 503 21L241 419Q219 450 206 478L202 477Q204 454 204 409L204 27Q204-2 151-2L129-2Z"  horiz-adv-x="719" vert-adv-y="1000"  />

      
      <glyph glyph-name="uni01CA" unicode="&#x01CA;" d="M129-2Q76-2 76 27L76 673Q76 702 129 702L165 702Q187 702 200.50 697Q214 692 222 678L478 287Q498 258 513 227L517 228Q515 251 515 296L515 673Q515 702 568 702L590 702Q643 702 643 673L643 27Q643-2 590-2L558-2Q537-2 524.50 3Q512 8 503 21L241 419Q219 450 206 478L202 477Q204 454 204 409L204 27Q204-2 151-2L129-2M837-7Q797-7 759 1Q721 9 721 34Q721 53 730 83Q739 113 756 114Q759 114 776 109.50Q793 105 814 105Q869 105 893 131Q917 157 917 216L917 673Q917 703 970 703L996 703Q1049 703 1049 673L1049 203Q1049 103 997.50 48Q946-7 837-7Z"  horiz-adv-x="1121" vert-adv-y="1000"  />

      
      <glyph glyph-name="uni0143" unicode="&#x0143;" d="M129-2Q76-2 76 27L76 673Q76 702 129 702L165 702Q187 702 200.50 697Q214 692 222 678L478 287Q498 258 513 227L517 228Q515 251 515 296L515 673Q515 702 568 702L590 702Q643 702 643 673L643 27Q643-2 590-2L558-2Q537-2 524.50 3Q512 8 503 21L241 419Q219 450 206 478L202 477Q204 454 204 409L204 27Q204-2 151-2L129-2M340 755Q324 755 318 758Q312 761 312 769Q312 774 319 787Q326 800 338 820Q351 841 375 884Q389 910 452 910Q481 910 494 907Q507 904 507 897Q507 890 499 880Q491 870 449 824L407 778Q386 755 340 755Z"  horiz-adv-x="719" vert-adv-y="1000"  />

      
      <glyph glyph-name="uni0147" unicode="&#x0147;" d="M129-2Q76-2 76 27L76 673Q76 702 129 702L165 702Q187 702 200.50 697Q214 692 222 678L478 287Q498 258 513 227L517 228Q515 251 515 296L515 673Q515 702 568 702L590 702Q643 702 643 673L643 27Q643-2 590-2L558-2Q537-2 524.50 3Q512 8 503 21L241 419Q219 450 206 478L202 477Q204 454 204 409L204 27Q204-2 151-2L129-2M352 752Q331 752 317.50 756.50Q304 761 296 773L235 870Q229 879 229 886Q229 897 250 897L265 897Q284 897 297.50 892.50Q311 888 320 876L360 825L400 877Q416 897 456 897L471 897Q492 897 492 885Q492 879 486 870L424 773Q416 761 402.50 756.50Q389 752 368 752L352 752Z"  horiz-adv-x="719" vert-adv-y="1000"  />

      
      <glyph glyph-name="uni0145" unicode="&#x0145;" d="M129-2Q76-2 76 27L76 673Q76 702 129 702L165 702Q187 702 200.50 697Q214 692 222 678L478 287Q498 258 513 227L517 228Q515 251 515 296L515 673Q515 702 568 702L590 702Q643 702 643 673L643 27Q643-2 590-2L558-2Q537-2 524.50 3Q512 8 503 21L241 419Q219 450 206 478L202 477Q204 454 204 409L204 27Q204-2 151-2L129-2M310-238Q295-238 282.50-233.50Q270-229 270-219Q270-213 273.50-205Q277-197 278-194Q289-169 295-147Q301-125 301-91Q301-72 314-61.50Q327-51 354-51L369-51Q392-51 404-61.50Q416-72 416-89Q416-125 397.50-159.50Q379-194 353.50-216Q328-238 310-238Z"  horiz-adv-x="719" vert-adv-y="1000"  />

      
      <glyph glyph-name="uni1E44" unicode="&#x1E44;" d="M129-2Q76-2 76 27L76 673Q76 702 129 702L165 702Q187 702 200.50 697Q214 692 222 678L478 287Q498 258 513 227L517 228Q515 251 515 296L515 673Q515 702 568 702L590 702Q643 702 643 673L643 27Q643-2 590-2L558-2Q537-2 524.50 3Q512 8 503 21L241 419Q219 450 206 478L202 477Q204 454 204 409L204 27Q204-2 151-2L129-2M359 765Q306 765 306 794L306 850Q306 879 361 879Q414 879 414 850L414 794Q414 765 359 765Z"  horiz-adv-x="719" vert-adv-y="1000"  />

      
      <glyph glyph-name="uni014A" unicode="&#x014A;" d="M590 702Q643 702 643 673L643-58Q643-136 602.50-174Q562-212 503-212Q455-212 432-202Q409-192 409-168Q409-151 418.50-128.50Q428-106 440-106Q444-106 454-108.50Q464-111 475-111Q496-111 506.50-98.50Q517-86 517-57L517-1L241 419Q215 459 206 478L202 477Q204 454 204 409L204 27Q204-2 151-2L129-2Q76-2 76 27L76 673Q76 702 129 702L165 702Q187 702 200.50 697Q214 692 222 678L478 287Q498 258 513 227L517 228Q515 251 515 296L515 673Q515 702 568 702L590 702Z"  horiz-adv-x="719" vert-adv-y="1000"  />

      
      <glyph glyph-name="uni01CB" unicode="&#x01CB;" d="M862 598Q799 598 799 631L799 696Q799 729 864 729Q927 729 927 696L927 631Q927 614 911.50 606Q896 598 862 598M129-2Q76-2 76 27L76 673Q76 702 129 702L165 702Q187 702 200.50 697Q214 692 222 678L478 287Q498 258 513 227L517 228Q515 251 515 296L515 673Q515 702 568 702L590 702Q643 702 643 673L643 27Q643-2 590-2L558-2Q537-2 524.50 3Q512 8 503 21L241 419Q219 450 206 478L202 477Q204 454 204 409L204 27Q204-2 151-2L129-2M785-212Q737-212 714.50-202.50Q692-193 692-168Q692-151 701-128.50Q710-106 723-106Q727-106 737-108.50Q747-111 758-111Q779-111 789.50-98.50Q800-86 800-57L800 496Q800 525 853 525L873 525Q926 525 926 496L926-58Q926-136 885.50-174Q845-212 785-212Z"  horiz-adv-x="995" vert-adv-y="1000"  />

      
      <glyph glyph-name="unid1" unicode="&#xd1;" d="M129-2Q76-2 76 27L76 673Q76 702 129 702L165 702Q187 702 200.50 697Q214 692 222 678L478 287Q498 258 513 227L517 228Q515 251 515 296L515 673Q515 702 568 702L590 702Q643 702 643 673L643 27Q643-2 590-2L558-2Q537-2 524.50 3Q512 8 503 21L241 419Q219 450 206 478L202 477Q204 454 204 409L204 27Q204-2 151-2L129-2M195 765Q176 770 176 786Q176 794 179 800Q192 832 218.50 851Q245 870 283 870Q298 870 321 864.50Q344 859 366 852Q385 846 404 841Q423 836 434 836Q456 836 472 856Q484 872 497 872Q505 872 508 870L518 867Q537 862 537 845Q537 841 535 831Q522 799 495 780.50Q468 762 431 762Q407 762 347 780Q328 786 309 791Q290 796 278 796Q258 796 242 775Q230 759 217 759Q214 759 206 761L195 765Z"  horiz-adv-x="719" vert-adv-y="1000"  />

      
      <glyph glyph-name="uni4f" unicode="&#x4f;" d="M366-7Q213-7 131 85Q49 177 49 351Q49 524 131 615.50Q213 707 366 707Q519 707 600.50 616Q682 525 682 351Q682 177 600.50 85Q519-7 366-7M366 105Q454 105 500.50 168Q547 231 547 351Q547 471 501 533Q455 595 366 595Q277 595 230.50 533Q184 471 184 351Q184 231 230.50 168Q277 105 366 105Z"  horiz-adv-x="731" vert-adv-y="1000"  />

      
      <glyph glyph-name="unid3" unicode="&#xd3;" d="M366-7Q213-7 131 85Q49 177 49 351Q49 524 131 615.50Q213 707 366 707Q519 707 600.50 616Q682 525 682 351Q682 177 600.50 85Q519-7 366-7M366 105Q454 105 500.50 168Q547 231 547 351Q547 471 501 533Q455 595 366 595Q277 595 230.50 533Q184 471 184 351Q184 231 230.50 168Q277 105 366 105M346 755Q330 755 324 758Q318 761 318 769Q318 774 325 787Q332 800 344 820Q357 841 381 884Q395 910 458 910Q487 910 500 907Q513 904 513 897Q513 890 505 880Q497 870 455 824L413 778Q392 755 346 755Z"  horiz-adv-x="731" vert-adv-y="1000"  />

      
      <glyph glyph-name="uni014E" unicode="&#x014E;" d="M366-7Q213-7 131 85Q49 177 49 351Q49 524 131 615.50Q213 707 366 707Q519 707 600.50 616Q682 525 682 351Q682 177 600.50 85Q519-7 366-7M366 105Q454 105 500.50 168Q547 231 547 351Q547 471 501 533Q455 595 366 595Q277 595 230.50 533Q184 471 184 351Q184 231 230.50 168Q277 105 366 105M366 755Q326 755 292.50 770Q259 785 239.50 811Q220 837 220 869Q220 892 248 892Q258 892 263 888.50Q268 885 271.50 879.50Q275 874 277 872Q302 838 366 838Q432 838 456 873Q464 884 468.50 888Q473 892 484 892Q512 892 512 869Q512 838 492.50 811.50Q473 785 439.50 770Q406 755 366 755Z"  horiz-adv-x="731" vert-adv-y="1000"  />

      
      <glyph glyph-name="unid4" unicode="&#xd4;" d="M366-7Q213-7 131 85Q49 177 49 351Q49 524 131 615.50Q213 707 366 707Q519 707 600.50 616Q682 525 682 351Q682 177 600.50 85Q519-7 366-7M366 105Q454 105 500.50 168Q547 231 547 351Q547 471 501 533Q455 595 366 595Q277 595 230.50 533Q184 471 184 351Q184 231 230.50 168Q277 105 366 105M255 750Q234 750 234 762Q234 768 240 778L302 875Q309 887 322.50 891Q336 895 358 895L373 895Q395 895 408.50 891Q422 887 429 875L491 778Q497 769 497 762Q497 750 476 750L461 750Q421 750 405 771L365 822L326 771Q316 759 303 754.50Q290 750 270 750L255 750Z"  horiz-adv-x="731" vert-adv-y="1000"  />

      
      <glyph glyph-name="uni1ED0" unicode="&#x1ED0;" d="M482 842Q466 842 460 845Q454 848 454 856Q454 861 461 874Q468 887 480 907Q493 928 517 971Q531 997 594 997Q623 997 636 994Q649 991 649 984Q649 977 641 967Q633 957 591 911L549 865Q528 842 482 842M257 750Q236 750 236 762Q236 768 242 778L304 875Q311 887 324.50 891Q338 895 360 895L375 895Q397 895 410.50 891Q424 887 431 875L493 778Q499 769 499 762Q499 750 478 750L463 750Q423 750 407 771L367 822L328 771Q318 759 305 754.50Q292 750 272 750L257 750M366-7Q213-7 131 85Q49 177 49 351Q49 524 131 615.50Q213 707 366 707Q519 707 600.50 616Q682 525 682 351Q682 177 600.50 85Q519-7 366-7M366 105Q454 105 500.50 168Q547 231 547 351Q547 471 501 533Q455 595 366 595Q277 595 230.50 533Q184 471 184 351Q184 231 230.50 168Q277 105 366 105Z"  horiz-adv-x="731" vert-adv-y="1000"  />

      
      <glyph glyph-name="uni1ED8" unicode="&#x1ED8;" d="M366-7Q213-7 131 85Q49 177 49 351Q49 524 131 615.50Q213 707 366 707Q519 707 600.50 616Q682 525 682 351Q682 177 600.50 85Q519-7 366-7M366 105Q454 105 500.50 168Q547 231 547 351Q547 471 501 533Q455 595 366 595Q277 595 230.50 533Q184 471 184 351Q184 231 230.50 168Q277 105 366 105M368-194Q315-194 315-165L315-109Q315-80 370-80Q423-80 423-109L423-165Q423-194 368-194M255 750Q234 750 234 762Q234 768 240 778L302 875Q309 887 322.50 891Q336 895 358 895L373 895Q395 895 408.50 891Q422 887 429 875L491 778Q497 769 497 762Q497 750 476 750L461 750Q421 750 405 771L365 822L326 771Q316 759 303 754.50Q290 750 270 750L255 750Z"  horiz-adv-x="731" vert-adv-y="1000"  />

      
      <glyph glyph-name="uni1ED2" unicode="&#x1ED2;" d="M522 842Q476 842 455 865L395 931Q373 955 364 966.50Q355 978 355 984Q355 991 368.50 994Q382 997 411 997Q472 997 488 971Q485 977 519 917Q523 911 531 896Q539 881 544.50 870Q550 859 550 856Q550 848 544 845Q538 842 522 842M257 750Q236 750 236 762Q236 768 242 778L304 875Q311 887 324.50 891Q338 895 360 895L375 895Q397 895 410.50 891Q424 887 431 875L493 778Q499 769 499 762Q499 750 478 750L463 750Q423 750 407 771L367 822L328 771Q318 759 305 754.50Q292 750 272 750L257 750M366-7Q213-7 131 85Q49 177 49 351Q49 524 131 615.50Q213 707 366 707Q519 707 600.50 616Q682 525 682 351Q682 177 600.50 85Q519-7 366-7M366 105Q454 105 500.50 168Q547 231 547 351Q547 471 501 533Q455 595 366 595Q277 595 230.50 533Q184 471 184 351Q184 231 230.50 168Q277 105 366 105Z"  horiz-adv-x="731" vert-adv-y="1000"  />

      
      <glyph glyph-name="uni1ED4" unicode="&#x1ED4;" d="M520 835Q506 835 489.50 842Q473 849 473 856Q473 862 479 868Q485 874 495 881.50Q505 889 512 895Q525 906 532 915.50Q539 925 539 936Q539 947 529 953.50Q519 960 505 960Q489 960 476.50 954Q464 948 462 948Q456 948 445 962.50Q434 977 434 987Q434 997 460.50 1007.50Q487 1018 513 1018Q559 1018 588 998.50Q617 979 617 941Q617 910 585 878Q569 860 548.50 847.50Q528 835 520 835M257 750Q236 750 236 762Q236 768 242 778L304 875Q311 887 324.50 891Q338 895 360 895L375 895Q397 895 410.50 891Q424 887 431 875L493 778Q499 769 499 762Q499 750 478 750L463 750Q423 750 407 771L367 822L328 771Q318 759 305 754.50Q292 750 272 750L257 750M366-7Q213-7 131 85Q49 177 49 351Q49 524 131 615.50Q213 707 366 707Q519 707 600.50 616Q682 525 682 351Q682 177 600.50 85Q519-7 366-7M366 105Q454 105 500.50 168Q547 231 547 351Q547 471 501 533Q455 595 366 595Q277 595 230.50 533Q184 471 184 351Q184 231 230.50 168Q277 105 366 105Z"  horiz-adv-x="731" vert-adv-y="1000"  />

      
      <glyph glyph-name="uni1ED6" unicode="&#x1ED6;" d="M216 909Q199 915 199 930Q199 938 202 944Q214 976 238 995Q262 1014 296 1014Q319 1014 371 996Q389 990 406 985Q423 980 434 980Q453 980 468 1000Q479 1016 491 1016Q498 1016 501 1014L510 1011Q527 1006 527 989Q527 985 525 975Q513 944 489 925Q465 906 431 906Q408 906 354 924Q308 940 292 940Q274 940 259 919Q248 903 236 903Q234 903 226 905L216 909M255 750Q234 750 234 762Q234 768 240 778L302 875Q309 887 322.50 891Q336 895 358 895L373 895Q395 895 408.50 891Q422 887 429 875L491 778Q497 769 497 762Q497 750 476 750L461 750Q421 750 405 771L365 822L326 771Q316 759 303 754.50Q290 750 270 750L255 750M366-7Q213-7 131 85Q49 177 49 351Q49 524 131 615.50Q213 707 366 707Q519 707 600.50 616Q682 525 682 351Q682 177 600.50 85Q519-7 366-7M366 105Q454 105 500.50 168Q547 231 547 351Q547 471 501 533Q455 595 366 595Q277 595 230.50 533Q184 471 184 351Q184 231 230.50 168Q277 105 366 105Z"  horiz-adv-x="731" vert-adv-y="1000"  />

      
      <glyph glyph-name="unid6" unicode="&#xd6;" d="M366-7Q213-7 131 85Q49 177 49 351Q49 524 131 615.50Q213 707 366 707Q519 707 600.50 616Q682 525 682 351Q682 177 600.50 85Q519-7 366-7M366 105Q454 105 500.50 168Q547 231 547 351Q547 471 501 533Q455 595 366 595Q277 595 230.50 533Q184 471 184 351Q184 231 230.50 168Q277 105 366 105M282 765Q228 765 228 794L228 850Q228 879 283 879Q336 879 336 850L336 794Q336 765 282 765M449 765Q396 765 396 794L396 850Q396 879 450 879Q504 879 504 850L504 794Q504 765 449 765Z"  horiz-adv-x="731" vert-adv-y="1000"  />

      
      <glyph glyph-name="uni1ECC" unicode="&#x1ECC;" d="M366-7Q213-7 131 85Q49 177 49 351Q49 524 131 615.50Q213 707 366 707Q519 707 600.50 616Q682 525 682 351Q682 177 600.50 85Q519-7 366-7M366 105Q454 105 500.50 168Q547 231 547 351Q547 471 501 533Q455 595 366 595Q277 595 230.50 533Q184 471 184 351Q184 231 230.50 168Q277 105 366 105M368-194Q315-194 315-165L315-109Q315-80 370-80Q423-80 423-109L423-165Q423-194 368-194Z"  horiz-adv-x="731" vert-adv-y="1000"  />

      
      <glyph glyph-name="unid2" unicode="&#xd2;" d="M366-7Q213-7 131 85Q49 177 49 351Q49 524 131 615.50Q213 707 366 707Q519 707 600.50 616Q682 525 682 351Q682 177 600.50 85Q519-7 366-7M366 105Q454 105 500.50 168Q547 231 547 351Q547 471 501 533Q455 595 366 595Q277 595 230.50 533Q184 471 184 351Q184 231 230.50 168Q277 105 366 105M393 755Q347 755 326 778L266 844Q244 868 235 879.50Q226 891 226 897Q226 904 239.50 907Q253 910 282 910Q343 910 359 884Q356 890 390 830Q394 824 402 809Q410 794 415.50 783Q421 772 421 769Q421 761 415 758Q409 755 393 755Z"  horiz-adv-x="731" vert-adv-y="1000"  />

      
      <glyph glyph-name="uni1ECE" unicode="&#x1ECE;" d="M366-7Q213-7 131 85Q49 177 49 351Q49 524 131 615.50Q213 707 366 707Q519 707 600.50 616Q682 525 682 351Q682 177 600.50 85Q519-7 366-7M366 105Q454 105 500.50 168Q547 231 547 351Q547 471 501 533Q455 595 366 595Q277 595 230.50 533Q184 471 184 351Q184 231 230.50 168Q277 105 366 105M384 745Q370 745 353.50 752Q337 759 337 766Q337 772 345 779.50Q353 787 363 795Q382 809 392.50 820.50Q403 832 403 846Q403 857 393 863.50Q383 870 369 870Q353 870 340.50 864Q328 858 326 858Q320 858 309 872.50Q298 887 298 897Q298 907 324.50 917.50Q351 928 377 928Q423 928 452 908.50Q481 889 481 851Q481 825 461.50 801Q442 777 418 761Q394 745 384 745Z"  horiz-adv-x="731" vert-adv-y="1000"  />

      
      <glyph glyph-name="uni01A0" unicode="&#x01A0;" d="M366-7Q213-7 131 85Q49 177 49 351Q49 524 131 615.50Q213 707 366 707Q424 707 474 693Q479 692 497.50 687Q516 682 534 682Q577 682 577 717Q577 733 560 754Q550 768 550 772Q550 785 561 790L590 810Q595 815 604 815Q622 815 636 787.50Q650 760 650 735Q650 700 630 677Q610 654 568 646Q624 602 653 528Q682 454 682 351Q682 177 600.50 85Q519-7 366-7M366 105Q454 105 500.50 168Q547 231 547 351Q547 471 501 533Q455 595 366 595Q277 595 230.50 533Q184 471 184 351Q184 231 230.50 168Q277 105 366 105Z"  horiz-adv-x="731" vert-adv-y="1000"  />

      
      <glyph glyph-name="uni1EDA" unicode="&#x1EDA;" d="M366-7Q213-7 131 85Q49 177 49 351Q49 524 131 615.50Q213 707 366 707Q424 707 474 693Q479 692 497.50 687Q516 682 534 682Q577 682 577 717Q577 733 560 754Q550 768 550 772Q550 785 561 790L590 810Q595 815 604 815Q622 815 636 787.50Q650 760 650 735Q650 700 630 677Q610 654 568 646Q624 602 653 528Q682 454 682 351Q682 177 600.50 85Q519-7 366-7M366 105Q454 105 500.50 168Q547 231 547 351Q547 471 501 533Q455 595 366 595Q277 595 230.50 533Q184 471 184 351Q184 231 230.50 168Q277 105 366 105M346 755Q330 755 324 758Q318 761 318 769Q318 774 325 787Q332 800 344 820Q357 841 381 884Q395 910 458 910Q487 910 500 907Q513 904 513 897Q513 890 505 880Q497 870 455 824L413 778Q392 755 346 755Z"  horiz-adv-x="731" vert-adv-y="1000"  />

      
      <glyph glyph-name="uni1EE2" unicode="&#x1EE2;" d="M366-7Q213-7 131 85Q49 177 49 351Q49 524 131 615.50Q213 707 366 707Q424 707 474 693Q479 692 497.50 687Q516 682 534 682Q577 682 577 717Q577 733 560 754Q550 768 550 772Q550 785 561 790L590 810Q595 815 604 815Q622 815 636 787.50Q650 760 650 735Q650 700 630 677Q610 654 568 646Q624 602 653 528Q682 454 682 351Q682 177 600.50 85Q519-7 366-7M366 105Q454 105 500.50 168Q547 231 547 351Q547 471 501 533Q455 595 366 595Q277 595 230.50 533Q184 471 184 351Q184 231 230.50 168Q277 105 366 105M368-194Q315-194 315-165L315-109Q315-80 370-80Q423-80 423-109L423-165Q423-194 368-194Z"  horiz-adv-x="731" vert-adv-y="1000"  />

      
      <glyph glyph-name="uni1EDC" unicode="&#x1EDC;" d="M366-7Q213-7 131 85Q49 177 49 351Q49 524 131 615.50Q213 707 366 707Q424 707 474 693Q479 692 497.50 687Q516 682 534 682Q577 682 577 717Q577 733 560 754Q550 768 550 772Q550 785 561 790L590 810Q595 815 604 815Q622 815 636 787.50Q650 760 650 735Q650 700 630 677Q610 654 568 646Q624 602 653 528Q682 454 682 351Q682 177 600.50 85Q519-7 366-7M366 105Q454 105 500.50 168Q547 231 547 351Q547 471 501 533Q455 595 366 595Q277 595 230.50 533Q184 471 184 351Q184 231 230.50 168Q277 105 366 105M393 755Q347 755 326 778L266 844Q244 868 235 879.50Q226 891 226 897Q226 904 239.50 907Q253 910 282 910Q343 910 359 884Q356 890 390 830Q394 824 402 809Q410 794 415.50 783Q421 772 421 769Q421 761 415 758Q409 755 393 755Z"  horiz-adv-x="731" vert-adv-y="1000"  />

      
      <glyph glyph-name="uni1EDE" unicode="&#x1EDE;" d="M366-7Q213-7 131 85Q49 177 49 351Q49 524 131 615.50Q213 707 366 707Q424 707 474 693Q479 692 497.50 687Q516 682 534 682Q577 682 577 717Q577 733 560 754Q550 768 550 772Q550 785 561 790L590 810Q595 815 604 815Q622 815 636 787.50Q650 760 650 735Q650 700 630 677Q610 654 568 646Q624 602 653 528Q682 454 682 351Q682 177 600.50 85Q519-7 366-7M366 105Q454 105 500.50 168Q547 231 547 351Q547 471 501 533Q455 595 366 595Q277 595 230.50 533Q184 471 184 351Q184 231 230.50 168Q277 105 366 105M384 745Q370 745 353.50 752Q337 759 337 766Q337 772 345 779.50Q353 787 363 795Q382 809 392.50 820.50Q403 832 403 846Q403 857 393 863.50Q383 870 369 870Q353 870 340.50 864Q328 858 326 858Q320 858 309 872.50Q298 887 298 897Q298 907 324.50 917.50Q351 928 377 928Q423 928 452 908.50Q481 889 481 851Q481 825 461.50 801Q442 777 418 761Q394 745 384 745Z"  horiz-adv-x="731" vert-adv-y="1000"  />

      
      <glyph glyph-name="uni1EE0" unicode="&#x1EE0;" d="M209 765Q192 771 192 786Q192 794 195 800Q207 832 231 851Q255 870 289 870Q312 870 364 852Q382 846 399 841Q416 836 427 836Q446 836 461 856Q472 872 484 872Q491 872 494 870L503 867Q520 862 520 845Q520 841 518 831Q506 800 482 781Q458 762 424 762Q401 762 347 780Q301 796 285 796Q267 796 252 775Q241 759 229 759Q227 759 219 761L209 765M366-7Q213-7 131 85Q49 177 49 351Q49 524 131 615.50Q213 707 366 707Q424 707 474 693Q479 692 497.50 687Q516 682 534 682Q577 682 577 717Q577 733 560 754Q550 768 550 772Q550 785 561 790L590 810Q595 815 604 815Q622 815 636 787.50Q650 760 650 735Q650 700 630 677Q610 654 568 646Q624 602 653 528Q682 454 682 351Q682 177 600.50 85Q519-7 366-7M366 105Q454 105 500.50 168Q547 231 547 351Q547 471 501 533Q455 595 366 595Q277 595 230.50 533Q184 471 184 351Q184 231 230.50 168Q277 105 366 105Z"  horiz-adv-x="731" vert-adv-y="1000"  />

      
      <glyph glyph-name="uni0150" unicode="&#x0150;" d="M366-7Q213-7 131 85Q49 177 49 351Q49 524 131 615.50Q213 707 366 707Q519 707 600.50 616Q682 525 682 351Q682 177 600.50 85Q519-7 366-7M366 105Q454 105 500.50 168Q547 231 547 351Q547 471 501 533Q455 595 366 595Q277 595 230.50 533Q184 471 184 351Q184 231 230.50 168Q277 105 366 105M257 755Q241 755 235 758Q229 761 229 769Q229 774 236 787Q243 800 255 820Q268 841 292 884Q306 910 369 910Q398 910 411.50 907Q425 904 425 897Q425 891 413.50 877Q402 863 376 835L324 778Q303 755 257 755M428 755Q412 755 406 758Q400 761 400 769Q400 773 406.50 785.50Q413 798 420 811Q427 824 431 830Q465 889 462 884Q478 910 539 910Q569 910 582 907Q595 904 595 897Q595 890 587 880Q579 870 537 824L495 778Q474 755 428 755Z"  horiz-adv-x="731" vert-adv-y="1000"  />

      
      <glyph glyph-name="uni014C" unicode="&#x014C;" d="M366-7Q213-7 131 85Q49 177 49 351Q49 524 131 615.50Q213 707 366 707Q519 707 600.50 616Q682 525 682 351Q682 177 600.50 85Q519-7 366-7M366 105Q454 105 500.50 168Q547 231 547 351Q547 471 501 533Q455 595 366 595Q277 595 230.50 533Q184 471 184 351Q184 231 230.50 168Q277 105 366 105M258 779Q244 779 237.50 787.50Q231 796 231 816L231 829Q231 849 237.50 857.50Q244 866 258 866L475 866Q489 866 495.50 857.50Q502 849 502 829L502 816Q502 796 495.50 787.50Q489 779 475 779L258 779Z"  horiz-adv-x="731" vert-adv-y="1000"  />

      
      <glyph glyph-name="uni01EA" unicode="&#x01EA;" d="M682 351Q682 201 621 111.50Q560 22 443 0Q442-5 437-22.50Q432-40 432-62Q432-94 450-103.50Q468-113 494-113Q504-113 512-111Q520-109 522-108Q536-104 544-104Q565-104 565-131Q565-149 555-161Q538-183 483-183Q413-183 389-150Q365-117 365-81Q365-66 369.50-45.50Q374-25 382-7L366-7Q213-7 131 85Q49 177 49 351Q49 524 131 615.50Q213 707 366 707Q519 707 600.50 616Q682 525 682 351M184 351Q184 231 230.50 168Q277 105 366 105Q454 105 500.50 168Q547 231 547 351Q547 471 501 533Q455 595 366 595Q277 595 230.50 533Q184 471 184 351Z"  horiz-adv-x="731" vert-adv-y="1000"  />

      
      <glyph glyph-name="unid8" unicode="&#xd8;" d="M614 599Q682 510 682 351Q682 177 600.50 85Q519-7 366-7Q225-7 143 72L82 3Q73-8 63-8Q53-8 38.50 5.50Q24 19 24 30Q24 35 33 48L102 125Q49 213 49 351Q49 524 131 615.50Q213 707 366 707Q491 707 567 647L619 706Q629 716 639 716Q650 716 664 703Q678 690 678 679Q678 672 669 661L614 599M184 351Q184 284 199 234L483 553Q440 595 366 595Q277 595 230.50 533Q184 471 184 351M366 105Q454 105 500.50 168Q547 231 547 351Q547 440 522 496L230 169Q276 105 366 105Z"  horiz-adv-x="731" vert-adv-y="1000"  />

      
      <glyph glyph-name="uni01FE" unicode="&#x01FE;" d="M614 599Q682 510 682 351Q682 177 600.50 85Q519-7 366-7Q225-7 143 72L82 3Q73-8 63-8Q53-8 38.50 5.50Q24 19 24 30Q24 35 33 48L102 125Q49 213 49 351Q49 524 131 615.50Q213 707 366 707Q491 707 567 647L619 706Q629 716 639 716Q650 716 664 703Q678 690 678 679Q678 672 669 661L614 599M184 351Q184 284 199 234L483 553Q440 595 366 595Q277 595 230.50 533Q184 471 184 351M366 105Q454 105 500.50 168Q547 231 547 351Q547 440 522 496L230 169Q276 105 366 105M346 755Q330 755 324 758Q318 761 318 769Q318 774 325 787Q332 800 344 820Q357 841 381 884Q395 910 458 910Q487 910 500 907Q513 904 513 897Q513 890 505 880Q497 870 455 824L413 778Q392 755 346 755Z"  horiz-adv-x="731" vert-adv-y="1000"  />

      
      <glyph glyph-name="unid5" unicode="&#xd5;" d="M366-7Q213-7 131 85Q49 177 49 351Q49 524 131 615.50Q213 707 366 707Q519 707 600.50 616Q682 525 682 351Q682 177 600.50 85Q519-7 366-7M366 105Q454 105 500.50 168Q547 231 547 351Q547 471 501 533Q455 595 366 595Q277 595 230.50 533Q184 471 184 351Q184 231 230.50 168Q277 105 366 105M201 765Q182 770 182 786Q182 794 185 800Q198 832 224.50 851Q251 870 289 870Q304 870 327 864.50Q350 859 372 852Q391 846 410 841Q429 836 440 836Q462 836 478 856Q490 872 503 872Q511 872 514 870L524 867Q543 862 543 845Q543 841 541 831Q528 799 501 780.50Q474 762 437 762Q413 762 353 780Q334 786 315 791Q296 796 284 796Q264 796 248 775Q236 759 223 759Q220 759 212 761L201 765Z"  horiz-adv-x="731" vert-adv-y="1000"  />

      
      <glyph glyph-name="uni0152" unicode="&#x0152;" d="M940 112Q954 112 960.50 102Q967 92 967 69L967 43Q967 20 960.50 10Q954 0 940 0L586 0Q567 0 558 9Q549 18 549 37L549 50Q474-7 359-7Q209-7 129 85Q49 177 49 351Q49 525 129 616Q209 707 359 707Q476 707 549 650L549 665Q549 683 558 691.50Q567 700 586 700L939 700Q953 700 959.50 690Q966 680 966 657L966 631Q966 608 959.50 598Q953 588 939 588L680 588L680 414L911 414Q925 414 931.50 404Q938 394 938 371L938 345Q938 322 931.50 312Q925 302 911 302L680 302L680 112L940 112M366 105Q454 105 500.50 168Q547 231 547 351Q547 471 501 533Q455 595 366 595Q277 595 230.50 533Q184 471 184 351Q184 231 230.50 168Q277 105 366 105Z"  horiz-adv-x="1015" vert-adv-y="1000"  />

      
      <glyph glyph-name="uni50" unicode="&#x50;" d="M128-2Q100-2 87.50 5Q75 12 75 27L75 663Q75 682 83.50 691Q92 700 111 700L319 700Q411 700 481 656Q551 612 551 489Q551 403 510.50 355Q470 307 419.50 290.50Q369 274 329 274L206 274L206 27Q206-2 153-2L128-2M318 387Q357 387 387 409.50Q417 432 417 489Q417 544 386 566Q355 588 313 588L206 588L206 387L318 387Z"  horiz-adv-x="570" vert-adv-y="1000"  />

      
      <glyph glyph-name="unide" unicode="&#xde;" d="M128-2Q100-2 87.50 5Q75 12 75 27L75 673Q75 688 87.50 695Q100 702 128 702L153 702Q206 702 206 673L206 588L319 588Q410 588 480.50 543.50Q551 499 551 377Q551 291 510.50 243Q470 195 419.50 178.50Q369 162 329 162L206 162L206 27Q206-2 153-2L128-2M318 275Q357 275 387 297.50Q417 320 417 377Q417 432 386 454Q355 476 313 476L206 476L206 275L318 275Z"  horiz-adv-x="570" vert-adv-y="1000"  />

      
      <glyph glyph-name="uni51" unicode="&#x51;" d="M641-147Q635-147 487-88Q450-73 389.50-48.50Q329-24 234 13Q143 48 96 133Q49 218 49 349Q49 523 131 615Q213 707 366 707Q519 707 600.50 615Q682 523 682 349Q682 223 638 140Q594 57 510 22L510 18L678-39Q692-44 692-55Q692-64 684.50-87Q677-110 665.50-128.50Q654-147 641-147M366 101Q454 101 500.50 164.50Q547 228 547 349Q547 469 500.50 532Q454 595 366 595Q278 595 231 531.50Q184 468 184 349Q184 228 230.50 164.50Q277 101 366 101Z"  horiz-adv-x="731" vert-adv-y="1000"  />

      
      <glyph glyph-name="uni52" unicode="&#x52;" d="M132-2Q79-2 79 27L79 663Q79 682 87.50 691Q96 700 115 700L301 700Q426 700 486.50 654Q547 608 547 516Q547 458 516 416Q485 374 431 353L431 349Q453 341 473 313.50Q493 286 509 246L594 34Q598 20 598 17Q598-2 544-2L514-2Q470-2 462 17L384 213Q366 254 341.50 270Q317 286 267 286L210 286L210 27Q210-2 157-2L132-2M318 399Q356 399 384 428.50Q412 458 412 498Q412 541 385 564.50Q358 588 311 588L210 588L210 399L318 399Z"  horiz-adv-x="610" vert-adv-y="1000"  />

      
      <glyph glyph-name="uni0154" unicode="&#x0154;" d="M132-2Q79-2 79 27L79 663Q79 682 87.50 691Q96 700 115 700L301 700Q426 700 486.50 654Q547 608 547 516Q547 458 516 416Q485 374 431 353L431 349Q453 341 473 313.50Q493 286 509 246L594 34Q598 20 598 17Q598-2 544-2L514-2Q470-2 462 17L384 213Q366 254 341.50 270Q317 286 267 286L210 286L210 27Q210-2 157-2L132-2M318 399Q356 399 384 428.50Q412 458 412 498Q412 541 385 564.50Q358 588 311 588L210 588L210 399L318 399M285 755Q269 755 263 758Q257 761 257 769Q257 774 264 787Q271 800 283 820Q296 841 320 884Q334 910 397 910Q426 910 439 907Q452 904 452 897Q452 890 444 880Q436 870 394 824L352 778Q331 755 285 755Z"  horiz-adv-x="610" vert-adv-y="1000"  />

      
      <glyph glyph-name="uni0158" unicode="&#x0158;" d="M132-2Q79-2 79 27L79 663Q79 682 87.50 691Q96 700 115 700L301 700Q426 700 486.50 654Q547 608 547 516Q547 458 516 416Q485 374 431 353L431 349Q453 341 473 313.50Q493 286 509 246L594 34Q598 20 598 17Q598-2 544-2L514-2Q470-2 462 17L384 213Q366 254 341.50 270Q317 286 267 286L210 286L210 27Q210-2 157-2L132-2M318 399Q356 399 384 428.50Q412 458 412 498Q412 541 385 564.50Q358 588 311 588L210 588L210 399L318 399M297 752Q276 752 262.50 756.50Q249 761 241 773L180 870Q174 879 174 886Q174 897 195 897L210 897Q229 897 242.50 892.50Q256 888 265 876L305 825L345 877Q361 897 401 897L416 897Q437 897 437 885Q437 879 431 870L369 773Q361 761 347.50 756.50Q334 752 313 752L297 752Z"  horiz-adv-x="610" vert-adv-y="1000"  />

      
      <glyph glyph-name="uni0156" unicode="&#x0156;" d="M132-2Q79-2 79 27L79 663Q79 682 87.50 691Q96 700 115 700L301 700Q426 700 486.50 654Q547 608 547 516Q547 458 516 416Q485 374 431 353L431 349Q453 341 473 313.50Q493 286 509 246L594 34Q598 20 598 17Q598-2 544-2L514-2Q470-2 462 17L384 213Q366 254 341.50 270Q317 286 267 286L210 286L210 27Q210-2 157-2L132-2M318 399Q356 399 384 428.50Q412 458 412 498Q412 541 385 564.50Q358 588 311 588L210 588L210 399L318 399M255-238Q240-238 227.50-233.50Q215-229 215-219Q215-213 218.50-205Q222-197 223-194Q234-169 240-147Q246-125 246-91Q246-72 259-61.50Q272-51 299-51L314-51Q337-51 349-61.50Q361-72 361-89Q361-125 342.50-159.50Q324-194 298.50-216Q273-238 255-238Z"  horiz-adv-x="610" vert-adv-y="1000"  />

      
      <glyph glyph-name="uni1E5A" unicode="&#x1E5A;" d="M132-2Q79-2 79 27L79 663Q79 682 87.50 691Q96 700 115 700L301 700Q426 700 486.50 654Q547 608 547 516Q547 458 516 416Q485 374 431 353L431 349Q453 341 473 313.50Q493 286 509 246L594 34Q598 20 598 17Q598-2 544-2L514-2Q470-2 462 17L384 213Q366 254 341.50 270Q317 286 267 286L210 286L210 27Q210-2 157-2L132-2M318 399Q356 399 384 428.50Q412 458 412 498Q412 541 385 564.50Q358 588 311 588L210 588L210 399L318 399M306-194Q253-194 253-165L253-109Q253-80 308-80Q361-80 361-109L361-165Q361-194 306-194Z"  horiz-adv-x="610" vert-adv-y="1000"  />

      
      <glyph glyph-name="uni53" unicode="&#x53;" d="M253-7Q186-7 133.50 7Q81 21 52 42Q27 61 27 76Q27 95 47 123.50Q67 152 80 152Q86 152 105 141Q136 125 166 115Q196 105 236 105Q281 105 311.50 126.50Q342 148 342 191Q342 218 326.50 236.50Q311 255 288 267.50Q265 280 224 297L189 312Q143 332 112 354.50Q81 377 61 415Q41 453 41 511Q41 574 72.50 618.50Q104 663 157 685Q210 707 273 707Q318 707 360 697Q402 687 425 670Q446 655 446 640Q446 622 429 593.50Q412 565 399 565Q394 565 383 570Q372 575 366 578Q326 595 281 595Q227 595 201.50 573.50Q176 552 176 519Q176 490 191 471.50Q206 453 228 442Q250 431 293 414Q350 391 387 369Q424 347 450.50 306.50Q477 266 477 203Q477 98 413 45.50Q349-7 253-7Z"  horiz-adv-x="500" vert-adv-y="1000"  />

      
      <glyph glyph-name="uni015A" unicode="&#x015A;" d="M253-7Q186-7 133.50 7Q81 21 52 42Q27 61 27 76Q27 95 47 123.50Q67 152 80 152Q86 152 105 141Q136 125 166 115Q196 105 236 105Q281 105 311.50 126.50Q342 148 342 191Q342 218 326.50 236.50Q311 255 288 267.50Q265 280 224 297L189 312Q143 332 112 354.50Q81 377 61 415Q41 453 41 511Q41 574 72.50 618.50Q104 663 157 685Q210 707 273 707Q318 707 360 697Q402 687 425 670Q446 655 446 640Q446 622 429 593.50Q412 565 399 565Q394 565 383 570Q372 575 366 578Q326 595 281 595Q227 595 201.50 573.50Q176 552 176 519Q176 490 191 471.50Q206 453 228 442Q250 431 293 414Q350 391 387 369Q424 347 450.50 306.50Q477 266 477 203Q477 98 413 45.50Q349-7 253-7M230 755Q214 755 208 758Q202 761 202 769Q202 774 209 787Q216 800 228 820Q241 841 265 884Q279 910 342 910Q371 910 384 907Q397 904 397 897Q397 890 389 880Q381 870 339 824L297 778Q276 755 230 755Z"  horiz-adv-x="500" vert-adv-y="1000"  />

      
      <glyph glyph-name="uni0160" unicode="&#x0160;" d="M253-7Q186-7 133.50 7Q81 21 52 42Q27 61 27 76Q27 95 47 123.50Q67 152 80 152Q86 152 105 141Q136 125 166 115Q196 105 236 105Q281 105 311.50 126.50Q342 148 342 191Q342 218 326.50 236.50Q311 255 288 267.50Q265 280 224 297L189 312Q143 332 112 354.50Q81 377 61 415Q41 453 41 511Q41 574 72.50 618.50Q104 663 157 685Q210 707 273 707Q318 707 360 697Q402 687 425 670Q446 655 446 640Q446 622 429 593.50Q412 565 399 565Q394 565 383 570Q372 575 366 578Q326 595 281 595Q227 595 201.50 573.50Q176 552 176 519Q176 490 191 471.50Q206 453 228 442Q250 431 293 414Q350 391 387 369Q424 347 450.50 306.50Q477 266 477 203Q477 98 413 45.50Q349-7 253-7M242 752Q221 752 207.50 756.50Q194 761 186 773L125 870Q119 879 119 886Q119 897 140 897L155 897Q174 897 187.50 892.50Q201 888 210 876L250 825L290 877Q306 897 346 897L361 897Q382 897 382 885Q382 879 376 870L314 773Q306 761 292.50 756.50Q279 752 258 752L242 752Z"  horiz-adv-x="500" vert-adv-y="1000"  />

      
      <glyph glyph-name="uni015E" unicode="&#x015E;" d="M477 203Q477 106 421.50 53.50Q366 1 280-6L271-40Q303-43 327.50-60.50Q352-78 352-115Q352-211 234-211Q190-211 149.50-198Q109-185 109-164Q109-146 118-136Q127-126 136-126Q144-126 166-134Q201-147 224-147Q260-147 260-123Q260-112 252-106Q244-100 228-94Q215-89 208.50-84.50Q202-80 202-72Q202-67 221-6Q164-2 120.50 11Q77 24 52 42Q27 61 27 76Q27 95 47 123.50Q67 152 80 152Q86 152 105 141Q136 125 166 115Q196 105 236 105Q281 105 311.50 126.50Q342 148 342 191Q342 218 326.50 236.50Q311 255 288 267.50Q265 280 224 297L189 312Q143 332 112 354.50Q81 377 61 415Q41 453 41 511Q41 574 72.50 618.50Q104 663 157 685Q210 707 273 707Q318 707 360 697Q402 687 425 670Q446 655 446 640Q446 622 429 593.50Q412 565 399 565Q394 565 383 570Q372 575 366 578Q326 595 281 595Q227 595 201.50 573.50Q176 552 176 519Q176 490 191 471.50Q206 453 228 442Q250 431 293 414Q350 391 387 369Q424 347 450.50 306.50Q477 266 477 203Z"  horiz-adv-x="500" vert-adv-y="1000"  />

      
      <glyph glyph-name="uni015C" unicode="&#x015C;" d="M253-7Q186-7 133.50 7Q81 21 52 42Q27 61 27 76Q27 95 47 123.50Q67 152 80 152Q86 152 105 141Q136 125 166 115Q196 105 236 105Q281 105 311.50 126.50Q342 148 342 191Q342 218 326.50 236.50Q311 255 288 267.50Q265 280 224 297L189 312Q143 332 112 354.50Q81 377 61 415Q41 453 41 511Q41 574 72.50 618.50Q104 663 157 685Q210 707 273 707Q318 707 360 697Q402 687 425 670Q446 655 446 640Q446 622 429 593.50Q412 565 399 565Q394 565 383 570Q372 575 366 578Q326 595 281 595Q227 595 201.50 573.50Q176 552 176 519Q176 490 191 471.50Q206 453 228 442Q250 431 293 414Q350 391 387 369Q424 347 450.50 306.50Q477 266 477 203Q477 98 413 45.50Q349-7 253-7M139 750Q118 750 118 762Q118 768 124 778L186 875Q193 887 206.50 891Q220 895 242 895L257 895Q279 895 292.50 891Q306 887 313 875L375 778Q381 769 381 762Q381 750 360 750L345 750Q305 750 289 771L249 822L210 771Q200 759 187 754.50Q174 750 154 750L139 750Z"  horiz-adv-x="500" vert-adv-y="1000"  />

      
      <glyph glyph-name="uni0218" unicode="&#x0218;" d="M253-7Q186-7 133.50 7Q81 21 52 42Q27 61 27 76Q27 95 47 123.50Q67 152 80 152Q86 152 105 141Q136 125 166 115Q196 105 236 105Q281 105 311.50 126.50Q342 148 342 191Q342 218 326.50 236.50Q311 255 288 267.50Q265 280 224 297L189 312Q143 332 112 354.50Q81 377 61 415Q41 453 41 511Q41 574 72.50 618.50Q104 663 157 685Q210 707 273 707Q318 707 360 697Q402 687 425 670Q446 655 446 640Q446 622 429 593.50Q412 565 399 565Q394 565 383 570Q372 575 366 578Q326 595 281 595Q227 595 201.50 573.50Q176 552 176 519Q176 490 191 471.50Q206 453 228 442Q250 431 293 414Q350 391 387 369Q424 347 450.50 306.50Q477 266 477 203Q477 98 413 45.50Q349-7 253-7M200-238Q185-238 172.50-233.50Q160-229 160-219Q160-213 163.50-205Q167-197 168-194Q179-169 185-147Q191-125 191-91Q191-72 204-61.50Q217-51 244-51L259-51Q282-51 294-61.50Q306-72 306-89Q306-125 287.50-159.50Q269-194 243.50-216Q218-238 200-238Z"  horiz-adv-x="500" vert-adv-y="1000"  />

      
      <glyph glyph-name="uni1E62" unicode="&#x1E62;" d="M253-7Q186-7 133.50 7Q81 21 52 42Q27 61 27 76Q27 95 47 123.50Q67 152 80 152Q86 152 105 141Q136 125 166 115Q196 105 236 105Q281 105 311.50 126.50Q342 148 342 191Q342 218 326.50 236.50Q311 255 288 267.50Q265 280 224 297L189 312Q143 332 112 354.50Q81 377 61 415Q41 453 41 511Q41 574 72.50 618.50Q104 663 157 685Q210 707 273 707Q318 707 360 697Q402 687 425 670Q446 655 446 640Q446 622 429 593.50Q412 565 399 565Q394 565 383 570Q372 575 366 578Q326 595 281 595Q227 595 201.50 573.50Q176 552 176 519Q176 490 191 471.50Q206 453 228 442Q250 431 293 414Q350 391 387 369Q424 347 450.50 306.50Q477 266 477 203Q477 98 413 45.50Q349-7 253-7M251-194Q198-194 198-165L198-109Q198-80 253-80Q306-80 306-109L306-165Q306-194 251-194Z"  horiz-adv-x="500" vert-adv-y="1000"  />

      
      <glyph glyph-name="uni1E9E" unicode="&#x1E9E;" d="M448-7Q382-7 324 12.50Q266 32 266 66Q266 82 282 107.50Q298 133 311 133Q319 133 329 127.50Q339 122 342 121Q362 109 382.50 101.50Q403 94 430 94Q477 94 509.50 122Q542 150 542 205Q542 318 416 318L387 318Q376 318 364.50 346Q353 374 353 394Q353 401 355 405L472 584Q417 595 354 595Q279 595 243 554Q207 513 207 430L207 27Q207-2 154-2L128-2Q75-2 75 27L75 431Q75 567 145.50 637Q216 707 353 707Q463 707 598 683Q607 682 618 653Q629 624 629 605Q629 598 628 596L503 407Q580 384 625 337.50Q670 291 670 204Q670 136 640 88.50Q610 41 559.50 17Q509-7 448-7Z"  horiz-adv-x="700" vert-adv-y="1000"  />

      
      <glyph glyph-name="uni018F" unicode="&#x018F;" d="M303-4Q170-4 105 83.50Q40 171 40 319Q40 330 58 351Q76 372 85 372L461 372Q453 499 412 552.50Q371 606 293 606Q245 606 207.50 594Q170 582 133 563Q109 551 103 551Q90 551 73.50 577.50Q57 604 57 618Q57 643 95.50 663.50Q134 684 190.50 695.50Q247 707 297 707Q447 707 520 610.50Q593 514 593 332Q593 162 517 79Q441-4 303-4M304 98Q443 98 461 282L165 282Q165 194 199.50 146Q234 98 304 98Z"  horiz-adv-x="672" vert-adv-y="1000"  />

      
      <glyph glyph-name="uni54" unicode="&#x54;" d="M262-2Q209-2 209 27L209 588L39 588Q25 588 18.50 598Q12 608 12 631L12 657Q12 680 18.50 690Q25 700 39 700L510 700Q524 700 530.50 690Q537 680 537 657L537 631Q537 608 530.50 598Q524 588 510 588L341 588L341 27Q341-2 288-2L262-2Z"  horiz-adv-x="549" vert-adv-y="1000"  />

      
      <glyph glyph-name="uni0166" unicode="&#x0166;" d="M510 700Q524 700 530.50 690Q537 680 537 657L537 631Q537 608 530.50 598Q524 588 510 588L341 588L341 395L457 395Q471 395 477.50 386.50Q484 378 484 358L484 345Q484 325 477.50 316.50Q471 308 457 308L341 308L341 27Q341-2 288-2L262-2Q209-2 209 27L209 308L100 308Q86 308 79.50 316.50Q73 325 73 345L73 358Q73 378 79.50 386.50Q86 395 100 395L209 395L209 588L39 588Q25 588 18.50 598Q12 608 12 631L12 657Q12 680 18.50 690Q25 700 39 700L510 700Z"  horiz-adv-x="549" vert-adv-y="1000"  />

      
      <glyph glyph-name="uni0164" unicode="&#x0164;" d="M262-2Q209-2 209 27L209 588L39 588Q25 588 18.50 598Q12 608 12 631L12 657Q12 680 18.50 690Q25 700 39 700L510 700Q524 700 530.50 690Q537 680 537 657L537 631Q537 608 530.50 598Q524 588 510 588L341 588L341 27Q341-2 288-2L262-2M267 752Q246 752 232.50 756.50Q219 761 211 773L150 870Q144 879 144 886Q144 897 165 897L180 897Q199 897 212.50 892.50Q226 888 235 876L275 825L315 877Q331 897 371 897L386 897Q407 897 407 885Q407 879 401 870L339 773Q331 761 317.50 756.50Q304 752 283 752L267 752Z"  horiz-adv-x="549" vert-adv-y="1000"  />

      
      <glyph glyph-name="uni0162" unicode="&#x0162;" d="M510 700Q524 700 530.50 690Q537 680 537 657L537 631Q537 608 530.50 598Q524 588 510 588L341 588L341 27Q341 3 306-1L296-40Q328-43 352.50-60.50Q377-78 377-115Q377-211 259-211Q215-211 174.50-198Q134-185 134-164Q134-146 143-136Q152-126 161-126Q169-126 191-134Q226-147 249-147Q285-147 285-123Q285-112 277-106Q269-100 253-94Q240-89 233.50-84.50Q227-80 227-72Q227-68 247-1Q209 2 209 27L209 588L39 588Q25 588 18.50 598Q12 608 12 631L12 657Q12 680 18.50 690Q25 700 39 700L510 700Z"  horiz-adv-x="549" vert-adv-y="1000"  />

      
      <glyph glyph-name="uni021A" unicode="&#x021A;" d="M262-2Q209-2 209 27L209 588L39 588Q25 588 18.50 598Q12 608 12 631L12 657Q12 680 18.50 690Q25 700 39 700L510 700Q524 700 530.50 690Q537 680 537 657L537 631Q537 608 530.50 598Q524 588 510 588L341 588L341 27Q341-2 288-2L262-2M225-238Q210-238 197.50-233.50Q185-229 185-219Q185-213 188.50-205Q192-197 193-194Q204-169 210-147Q216-125 216-91Q216-72 229-61.50Q242-51 269-51L284-51Q307-51 319-61.50Q331-72 331-89Q331-125 312.50-159.50Q294-194 268.50-216Q243-238 225-238Z"  horiz-adv-x="549" vert-adv-y="1000"  />

      
      <glyph glyph-name="uni1E6C" unicode="&#x1E6C;" d="M262-2Q209-2 209 27L209 588L39 588Q25 588 18.50 598Q12 608 12 631L12 657Q12 680 18.50 690Q25 700 39 700L510 700Q524 700 530.50 690Q537 680 537 657L537 631Q537 608 530.50 598Q524 588 510 588L341 588L341 27Q341-2 288-2L262-2M276-194Q223-194 223-165L223-109Q223-80 278-80Q331-80 331-109L331-165Q331-194 276-194Z"  horiz-adv-x="549" vert-adv-y="1000"  />

      
      <glyph glyph-name="uni55" unicode="&#x55;" d="M356-7Q220-7 146 55.50Q72 118 72 231L72 673Q72 702 125 702L150 702Q203 702 203 673L203 236Q203 178 246 141.50Q289 105 356 105Q423 105 466.50 142Q510 179 510 236L510 673Q510 702 563 702L587 702Q640 702 640 673L640 231Q640 118 566 55.50Q492-7 356-7Z"  horiz-adv-x="712" vert-adv-y="1000"  />

      
      <glyph glyph-name="unida" unicode="&#xda;" d="M356-7Q220-7 146 55.50Q72 118 72 231L72 673Q72 702 125 702L150 702Q203 702 203 673L203 236Q203 178 246 141.50Q289 105 356 105Q423 105 466.50 142Q510 179 510 236L510 673Q510 702 563 702L587 702Q640 702 640 673L640 231Q640 118 566 55.50Q492-7 356-7M336 755Q320 755 314 758Q308 761 308 769Q308 774 315 787Q322 800 334 820Q347 841 371 884Q385 910 448 910Q477 910 490 907Q503 904 503 897Q503 890 495 880Q487 870 445 824L403 778Q382 755 336 755Z"  horiz-adv-x="712" vert-adv-y="1000"  />

      
      </font>
</defs>
</svg>
